  0
SECTION
  2
HEADER
  9
$ANGBASE
  50
0.0
  9
$ANGDIR
  70
1
  9
$MEASUREMENT
  70
0
  0
ENDSEC
  0
SECTION
  2
TABLES
  0
TABLE
  2
LTYPE
  70
4
  0
LTYPE
  5
40F
  2
CONTINUOUS
  70
0
  3
Solid line
  72
65
  73
0
  40
0.0
  0
LTYPE
  5
410
  2
DASHDOT
 70
0
  3
Dash Dot ____ _ ____ _
 72
65
 73
4
 40
2.0
 49
1.25
 49
-0.25
 49
0.25
 49
-0.25
  0
LTYPE
  5
411
  2
DASHED
 70
0
  3
Dashed __ __ __ __ __
 72
65
 73
2
 40
0.75
 49
0.5
 49
-0.25
  0
LTYPE
  5
43B
  2
DOTTED
 70
0
  3
Dotted .  .  .  .
 72
65
 73
2
 40
0.2
 49
0.0
 49
-0.2
  0
ENDTAB
  0
TABLE
  2
STYLE
  70
4
  0
STYLE
  2
KICAD
  70
0
  40
0
  41
1
  42
1
  50
0
  71
0
  3
isocp.shx
  0
STYLE
  2
KICADB
  70
0
  40
0
  41
1
  42
1
  50
0
  71
0
  3
isocp.shx
  0
STYLE
  2
KICADI
  70
0
  40
0
  41
1
  42
1
  50
15
  71
0
  3
isocp.shx
  0
STYLE
  2
KICADBI
  70
0
  40
0
  41
1
  42
1
  50
15
  71
0
  3
isocp.shx
  0
ENDTAB
  0
TABLE
  2
LAYER
  70
1
  0
LAYER
  2
BLACK
  70
0
  62
7
  6
CONTINUOUS
  0
ENDTAB
  0
ENDSEC
  0
SECTION
  2
ENTITIES
0
LINE
8
BLACK
6
CONTINUOUS
10
1.8604353543307086
20
-5.1468074803149602
11
1.870508464566929
21
-5.1495065354330709
0
LINE
8
BLACK
6
CONTINUOUS
10
1.870508464566929
20
-5.1495065354330709
11
1.8801431102362205
21
-5.1534973622047247
0
LINE
8
BLACK
6
CONTINUOUS
10
1.8801431102362205
20
-5.1534973622047247
11
1.8891744094488188
21
-5.1587115748031493
0
LINE
8
BLACK
6
CONTINUOUS
10
1.8891744094488188
20
-5.1587115748031493
11
1.8974478346456694
21
-5.1650599999999995
0
LINE
8
BLACK
6
CONTINUOUS
10
1.8974478346456694
20
-5.1650599999999995
11
1.9048218897637794
21
-5.1724340551181101
0
LINE
8
BLACK
6
CONTINUOUS
10
1.9048218897637794
20
-5.1724340551181101
11
1.9111703149606298
21
-5.1807074803149602
0
LINE
8
BLACK
6
CONTINUOUS
10
1.9111703149606298
20
-5.1807074803149602
11
1.916384527559055
21
-5.1897387795275591
0
LINE
8
BLACK
6
CONTINUOUS
10
1.916384527559055
20
-5.1897387795275591
11
1.9203753543307087
21
-5.1993734251968506
0
LINE
8
BLACK
6
CONTINUOUS
10
1.9203753543307087
20
-5.1993734251968506
11
1.9230744094488188
21
-5.209446535433071
0
LINE
8
BLACK
6
CONTINUOUS
10
1.9230744094488188
20
-5.209446535433071
11
1.924435590551181
21
-5.219785787401575
0
LINE
8
BLACK
6
CONTINUOUS
10
1.924435590551181
20
-5.219785787401575
11
1.924435590551181
21
-5.2302142125984252
0
LINE
8
BLACK
6
CONTINUOUS
10
1.924435590551181
20
-5.2302142125984252
11
1.9230744094488188
21
-5.2405534645669292
0
LINE
8
BLACK
6
CONTINUOUS
10
1.9230744094488188
20
-5.2405534645669292
11
1.9203753543307087
21
-5.2506265748031495
0
LINE
8
BLACK
6
CONTINUOUS
10
1.9203753543307087
20
-5.2506265748031495
11
1.916384527559055
21
-5.260261220472441
0
LINE
8
BLACK
6
CONTINUOUS
10
1.916384527559055
20
-5.260261220472441
11
1.9111703149606298
21
-5.2692925196850391
0
LINE
8
BLACK
6
CONTINUOUS
10
1.9111703149606298
20
-5.2692925196850391
11
1.9048218897637794
21
-5.2775659448818892
0
LINE
8
BLACK
6
CONTINUOUS
10
1.9048218897637794
20
-5.2775659448818892
11
1.8974478346456694
21
-5.2849399999999997
0
LINE
8
BLACK
6
CONTINUOUS
10
1.8974478346456694
20
-5.2849399999999997
11
1.8891744094488188
21
-5.2912884251968499
0
LINE
8
BLACK
6
CONTINUOUS
10
1.8891744094488188
20
-5.2912884251968499
11
1.8801431102362205
21
-5.2965026377952755
0
LINE
8
BLACK
6
CONTINUOUS
10
1.8801431102362205
20
-5.2965026377952755
11
1.870508464566929
21
-5.3004934645669293
0
LINE
8
BLACK
6
CONTINUOUS
10
1.870508464566929
20
-5.3004934645669293
11
1.8604353543307086
21
-5.3031925196850391
0
LINE
8
BLACK
6
CONTINUOUS
10
1.8604353543307086
20
-5.3031925196850391
11
1.8500961023622047
21
-5.3045537007874017
0
LINE
8
BLACK
6
CONTINUOUS
10
1.8500961023622047
20
-5.3045537007874017
11
1.8396676771653544
21
-5.3045537007874017
0
LINE
8
BLACK
6
CONTINUOUS
10
1.8396676771653544
20
-5.3045537007874017
11
1.8293284251968505
21
-5.3031925196850391
0
LINE
8
BLACK
6
CONTINUOUS
10
1.8293284251968505
20
-5.3031925196850391
11
1.8192553149606299
21
-5.3004934645669293
0
LINE
8
BLACK
6
CONTINUOUS
10
1.8192553149606299
20
-5.3004934645669293
11
1.8096206692913386
21
-5.2965026377952755
0
LINE
8
BLACK
6
CONTINUOUS
10
1.8096206692913386
20
-5.2965026377952755
11
1.8005893700787401
21
-5.2912884251968499
0
LINE
8
BLACK
6
CONTINUOUS
10
1.8005893700787401
20
-5.2912884251968499
11
1.7923159448818897
21
-5.2849399999999997
0
LINE
8
BLACK
6
CONTINUOUS
10
1.7923159448818897
20
-5.2849399999999997
11
1.7849418897637794
21
-5.2775659448818892
0
LINE
8
BLACK
6
CONTINUOUS
10
1.7849418897637794
20
-5.2775659448818892
11
1.778593464566929
21
-5.2692925196850391
0
LINE
8
BLACK
6
CONTINUOUS
10
1.778593464566929
20
-5.2692925196850391
11
1.7733792519685039
21
-5.260261220472441
0
LINE
8
BLACK
6
CONTINUOUS
10
1.7733792519685039
20
-5.260261220472441
11
1.7693884251968504
21
-5.2506265748031495
0
LINE
8
BLACK
6
CONTINUOUS
10
1.7693884251968504
20
-5.2506265748031495
11
1.7666893700787401
21
-5.2405534645669292
0
LINE
8
BLACK
6
CONTINUOUS
10
1.7666893700787401
20
-5.2405534645669292
11
1.7653281889763779
21
-5.2302142125984252
0
LINE
8
BLACK
6
CONTINUOUS
10
1.7653281889763779
20
-5.2302142125984252
11
1.7653281889763779
21
-5.2199036220472443
0
LINE
8
BLACK
6
CONTINUOUS
10
1.7653281889763779
20
-5.2199036220472443
11
1.7653281889763779
21
-5.219785787401575
0
LINE
8
BLACK
6
CONTINUOUS
10
1.7653281889763779
20
-5.219785787401575
11
1.7666893700787401
21
-5.209446535433071
0
LINE
8
BLACK
6
CONTINUOUS
10
1.7666893700787401
20
-5.209446535433071
11
1.7693884251968504
21
-5.1993734251968506
0
LINE
8
BLACK
6
CONTINUOUS
10
1.7693884251968504
20
-5.1993734251968506
11
1.7733792519685039
21
-5.1897387795275591
0
LINE
8
BLACK
6
CONTINUOUS
10
1.7733792519685039
20
-5.1897387795275591
11
1.778593464566929
21
-5.1807074803149602
0
LINE
8
BLACK
6
CONTINUOUS
10
1.778593464566929
20
-5.1807074803149602
11
1.7849418897637794
21
-5.1724340551181101
0
LINE
8
BLACK
6
CONTINUOUS
10
1.7849418897637794
20
-5.1724340551181101
11
1.7923159448818897
21
-5.1650599999999995
0
LINE
8
BLACK
6
CONTINUOUS
10
1.7923159448818897
20
-5.1650599999999995
11
1.8005893700787401
21
-5.1587115748031493
0
LINE
8
BLACK
6
CONTINUOUS
10
1.8005893700787401
20
-5.1587115748031493
11
1.8096206692913386
21
-5.1534973622047247
0
LINE
8
BLACK
6
CONTINUOUS
10
1.8096206692913386
20
-5.1534973622047247
11
1.8192553149606299
21
-5.1495065354330709
0
LINE
8
BLACK
6
CONTINUOUS
10
1.8192553149606299
20
-5.1495065354330709
11
1.8293284251968505
21
-5.1468074803149602
0
LINE
8
BLACK
6
CONTINUOUS
10
1.8293284251968505
20
-5.1468074803149602
11
1.8396676771653544
21
-5.1454462992125984
0
LINE
8
BLACK
6
CONTINUOUS
10
1.8396676771653544
20
-5.1454462992125984
11
1.8500961023622047
21
-5.1454462992125984
0
LINE
8
BLACK
6
CONTINUOUS
10
1.8500961023622047
20
-5.1454462992125984
11
1.8604353543307086
21
-5.1468074803149602
0
LINE
8
BLACK
6
CONTINUOUS
10
1.7671259842519684
20
-5.2300963779527558
11
1.7684564173228345
21
-5.2402019685039365
0
LINE
8
BLACK
6
CONTINUOUS
10
1.7684564173228345
20
-5.2402019685039365
11
1.7710944881889763
21
-5.2500474409448818
0
LINE
8
BLACK
6
CONTINUOUS
10
1.7710944881889763
20
-5.2500474409448818
11
1.7749950787401574
21
-5.2594643700787405
0
LINE
8
BLACK
6
CONTINUOUS
10
1.7749950787401574
20
-5.2594643700787405
11
1.7800914960629921
21
-5.2682915748031496
0
LINE
8
BLACK
6
CONTINUOUS
10
1.7800914960629921
20
-5.2682915748031496
11
1.7862964566929134
21
-5.2763780314960629
0
LINE
8
BLACK
6
CONTINUOUS
10
1.7862964566929134
20
-5.2763780314960629
11
1.7935038582677165
21
-5.2835854330708658
0
LINE
8
BLACK
6
CONTINUOUS
10
1.7935038582677165
20
-5.2835854330708658
11
1.8015903149606298
21
-5.2897903937007875
0
LINE
8
BLACK
6
CONTINUOUS
10
1.8015903149606298
20
-5.2897903937007875
11
1.8104175196850394
21
-5.2948868110236216
0
LINE
8
BLACK
6
CONTINUOUS
10
1.8104175196850394
20
-5.2948868110236216
11
1.8198344488188976
21
-5.2987874015748027
0
LINE
8
BLACK
6
CONTINUOUS
10
1.8198344488188976
20
-5.2987874015748027
11
1.8296799212598425
21
-5.3014254724409451
0
LINE
8
BLACK
6
CONTINUOUS
10
1.8296799212598425
20
-5.3014254724409451
11
1.8397855118110236
21
-5.3027559055118108
0
LINE
8
BLACK
6
CONTINUOUS
10
1.8397855118110236
20
-5.3027559055118108
11
1.8499782677165353
21
-5.3027559055118108
0
LINE
8
BLACK
6
CONTINUOUS
10
1.8499782677165353
20
-5.3027559055118108
11
1.8600838582677164
21
-5.3014254724409451
0
LINE
8
BLACK
6
CONTINUOUS
10
1.8600838582677164
20
-5.3014254724409451
11
1.8699293307086613
21
-5.2987874015748027
0
LINE
8
BLACK
6
CONTINUOUS
10
1.8699293307086613
20
-5.2987874015748027
11
1.8793462598425197
21
-5.2948868110236216
0
LINE
8
BLACK
6
CONTINUOUS
10
1.8793462598425197
20
-5.2948868110236216
11
1.888173464566929
21
-5.2897903937007875
0
LINE
8
BLACK
6
CONTINUOUS
10
1.888173464566929
20
-5.2897903937007875
11
1.8962599212598426
21
-5.2835854330708658
0
LINE
8
BLACK
6
CONTINUOUS
10
1.8962599212598426
20
-5.2835854330708658
11
1.9034673228346457
21
-5.2763780314960629
0
LINE
8
BLACK
6
CONTINUOUS
10
1.9034673228346457
20
-5.2763780314960629
11
1.909672283464567
21
-5.2682915748031496
0
LINE
8
BLACK
6
CONTINUOUS
10
1.909672283464567
20
-5.2682915748031496
11
1.9147687007874015
21
-5.2594643700787405
0
LINE
8
BLACK
6
CONTINUOUS
10
1.9147687007874015
20
-5.2594643700787405
11
1.9186692913385825
21
-5.2500474409448818
0
LINE
8
BLACK
6
CONTINUOUS
10
1.9186692913385825
20
-5.2500474409448818
11
1.9213073622047243
21
-5.2402019685039365
0
LINE
8
BLACK
6
CONTINUOUS
10
1.9213073622047243
20
-5.2402019685039365
11
1.9226377952755904
21
-5.2300963779527558
0
LINE
8
BLACK
6
CONTINUOUS
10
1.9226377952755904
20
-5.2300963779527558
11
1.9226377952755904
21
-5.2199036220472443
0
LINE
8
BLACK
6
CONTINUOUS
10
1.9226377952755904
20
-5.2199036220472443
11
1.9213073622047243
21
-5.2097980314960628
0
LINE
8
BLACK
6
CONTINUOUS
10
1.9213073622047243
20
-5.2097980314960628
11
1.9186692913385825
21
-5.1999525590551183
0
LINE
8
BLACK
6
CONTINUOUS
10
1.9186692913385825
20
-5.1999525590551183
11
1.9147687007874015
21
-5.1905356299212597
0
LINE
8
BLACK
6
CONTINUOUS
10
1.9147687007874015
20
-5.1905356299212597
11
1.909672283464567
21
-5.1817084251968506
0
LINE
8
BLACK
6
CONTINUOUS
10
1.909672283464567
20
-5.1817084251968506
11
1.9034673228346457
21
-5.1736219685039373
0
LINE
8
BLACK
6
CONTINUOUS
10
1.9034673228346457
20
-5.1736219685039373
11
1.8962599212598426
21
-5.1664145669291335
0
LINE
8
BLACK
6
CONTINUOUS
10
1.8962599212598426
20
-5.1664145669291335
11
1.888173464566929
21
-5.1602096062992127
0
LINE
8
BLACK
6
CONTINUOUS
10
1.888173464566929
20
-5.1602096062992127
11
1.8793462598425197
21
-5.1551131889763777
0
LINE
8
BLACK
6
CONTINUOUS
10
1.8793462598425197
20
-5.1551131889763777
11
1.8699293307086613
21
-5.1512125984251966
0
LINE
8
BLACK
6
CONTINUOUS
10
1.8699293307086613
20
-5.1512125984251966
11
1.8600838582677164
21
-5.1485745275590551
0
LINE
8
BLACK
6
CONTINUOUS
10
1.8600838582677164
20
-5.1485745275590551
11
1.8499782677165353
21
-5.1472440944881885
0
LINE
8
BLACK
6
CONTINUOUS
10
1.8499782677165353
20
-5.1472440944881885
11
1.8397855118110236
21
-5.1472440944881885
0
LINE
8
BLACK
6
CONTINUOUS
10
1.8397855118110236
20
-5.1472440944881885
11
1.8296799212598425
21
-5.1485745275590551
0
LINE
8
BLACK
6
CONTINUOUS
10
1.8296799212598425
20
-5.1485745275590551
11
1.8198344488188976
21
-5.1512125984251966
0
LINE
8
BLACK
6
CONTINUOUS
10
1.8198344488188976
20
-5.1512125984251966
11
1.8104175196850394
21
-5.1551131889763777
0
LINE
8
BLACK
6
CONTINUOUS
10
1.8104175196850394
20
-5.1551131889763777
11
1.8015903149606298
21
-5.1602096062992127
0
LINE
8
BLACK
6
CONTINUOUS
10
1.8015903149606298
20
-5.1602096062992127
11
1.7935038582677165
21
-5.1664145669291335
0
LINE
8
BLACK
6
CONTINUOUS
10
1.7935038582677165
20
-5.1664145669291335
11
1.7862964566929134
21
-5.1736219685039373
0
LINE
8
BLACK
6
CONTINUOUS
10
1.7862964566929134
20
-5.1736219685039373
11
1.7800914960629921
21
-5.1817084251968506
0
LINE
8
BLACK
6
CONTINUOUS
10
1.7800914960629921
20
-5.1817084251968506
11
1.7749950787401574
21
-5.1905356299212597
0
LINE
8
BLACK
6
CONTINUOUS
10
1.7749950787401574
20
-5.1905356299212597
11
1.7710944881889763
21
-5.1999525590551183
0
LINE
8
BLACK
6
CONTINUOUS
10
1.7710944881889763
20
-5.1999525590551183
11
1.7684564173228345
21
-5.2097980314960628
0
LINE
8
BLACK
6
CONTINUOUS
10
1.7684564173228345
20
-5.2097980314960628
11
1.7671259842519684
21
-5.2199036220472443
0
LINE
8
BLACK
6
CONTINUOUS
10
1.7671259842519684
20
-5.2199036220472443
11
1.7671259842519684
21
-5.2300963779527558
0
LINE
8
BLACK
6
CONTINUOUS
10
5.0578762992125981
20
-5.1468074803149602
11
5.0679494094488184
21
-5.1495065354330709
0
LINE
8
BLACK
6
CONTINUOUS
10
5.0679494094488184
20
-5.1495065354330709
11
5.07758405511811
21
-5.1534973622047247
0
LINE
8
BLACK
6
CONTINUOUS
10
5.07758405511811
20
-5.1534973622047247
11
5.0866153543307089
21
-5.1587115748031493
0
LINE
8
BLACK
6
CONTINUOUS
10
5.0866153543307089
20
-5.1587115748031493
11
5.094888779527559
21
-5.1650599999999995
0
LINE
8
BLACK
6
CONTINUOUS
10
5.094888779527559
20
-5.1650599999999995
11
5.1022628346456695
21
-5.1724340551181101
0
LINE
8
BLACK
6
CONTINUOUS
10
5.1022628346456695
20
-5.1724340551181101
11
5.1086112598425197
21
-5.1807074803149602
0
LINE
8
BLACK
6
CONTINUOUS
10
5.1086112598425197
20
-5.1807074803149602
11
5.1138254724409444
21
-5.1897387795275591
0
LINE
8
BLACK
6
CONTINUOUS
10
5.1138254724409444
20
-5.1897387795275591
11
5.1178162992125982
21
-5.1993734251968506
0
LINE
8
BLACK
6
CONTINUOUS
10
5.1178162992125982
20
-5.1993734251968506
11
5.1205153543307089
21
-5.209446535433071
0
LINE
8
BLACK
6
CONTINUOUS
10
5.1205153543307089
20
-5.209446535433071
11
5.1218765354330706
21
-5.219785787401575
0
LINE
8
BLACK
6
CONTINUOUS
10
5.1218765354330706
20
-5.219785787401575
11
5.1218765354330706
21
-5.2302142125984252
0
LINE
8
BLACK
6
CONTINUOUS
10
5.1218765354330706
20
-5.2302142125984252
11
5.1205153543307089
21
-5.2405534645669292
0
LINE
8
BLACK
6
CONTINUOUS
10
5.1205153543307089
20
-5.2405534645669292
11
5.1178162992125982
21
-5.2506265748031495
0
LINE
8
BLACK
6
CONTINUOUS
10
5.1178162992125982
20
-5.2506265748031495
11
5.1138254724409444
21
-5.260261220472441
0
LINE
8
BLACK
6
CONTINUOUS
10
5.1138254724409444
20
-5.260261220472441
11
5.1086112598425197
21
-5.2692925196850391
0
LINE
8
BLACK
6
CONTINUOUS
10
5.1086112598425197
20
-5.2692925196850391
11
5.1022628346456695
21
-5.2775659448818892
0
LINE
8
BLACK
6
CONTINUOUS
10
5.1022628346456695
20
-5.2775659448818892
11
5.094888779527559
21
-5.2849399999999997
0
LINE
8
BLACK
6
CONTINUOUS
10
5.094888779527559
20
-5.2849399999999997
11
5.0866153543307089
21
-5.2912884251968499
0
LINE
8
BLACK
6
CONTINUOUS
10
5.0866153543307089
20
-5.2912884251968499
11
5.07758405511811
21
-5.2965026377952755
0
LINE
8
BLACK
6
CONTINUOUS
10
5.07758405511811
20
-5.2965026377952755
11
5.0679494094488184
21
-5.3004934645669293
0
LINE
8
BLACK
6
CONTINUOUS
10
5.0679494094488184
20
-5.3004934645669293
11
5.0578762992125981
21
-5.3031925196850391
0
LINE
8
BLACK
6
CONTINUOUS
10
5.0578762992125981
20
-5.3031925196850391
11
5.0475370472440941
21
-5.3045537007874017
0
LINE
8
BLACK
6
CONTINUOUS
10
5.0475370472440941
20
-5.3045537007874017
11
5.0371086220472439
21
-5.3045537007874017
0
LINE
8
BLACK
6
CONTINUOUS
10
5.0371086220472439
20
-5.3045537007874017
11
5.0267693700787399
21
-5.3031925196850391
0
LINE
8
BLACK
6
CONTINUOUS
10
5.0267693700787399
20
-5.3031925196850391
11
5.0166962598425195
21
-5.3004934645669293
0
LINE
8
BLACK
6
CONTINUOUS
10
5.0166962598425195
20
-5.3004934645669293
11
5.007061614173228
21
-5.2965026377952755
0
LINE
8
BLACK
6
CONTINUOUS
10
5.007061614173228
20
-5.2965026377952755
11
4.99803031496063
21
-5.2912884251968499
0
LINE
8
BLACK
6
CONTINUOUS
10
4.99803031496063
20
-5.2912884251968499
11
4.9897568897637798
21
-5.2849399999999997
0
LINE
8
BLACK
6
CONTINUOUS
10
4.9897568897637798
20
-5.2849399999999997
11
4.9823828346456693
21
-5.2775659448818892
0
LINE
8
BLACK
6
CONTINUOUS
10
4.9823828346456693
20
-5.2775659448818892
11
4.9760344094488191
21
-5.2692925196850391
0
LINE
8
BLACK
6
CONTINUOUS
10
4.9760344094488191
20
-5.2692925196850391
11
4.9708201968503936
21
-5.260261220472441
0
LINE
8
BLACK
6
CONTINUOUS
10
4.9708201968503936
20
-5.260261220472441
11
4.9668293700787398
21
-5.2506265748031495
0
LINE
8
BLACK
6
CONTINUOUS
10
4.9668293700787398
20
-5.2506265748031495
11
4.96413031496063
21
-5.2405534645669292
0
LINE
8
BLACK
6
CONTINUOUS
10
4.96413031496063
20
-5.2405534645669292
11
4.9627691338582673
21
-5.2302142125984252
0
LINE
8
BLACK
6
CONTINUOUS
10
4.9627691338582673
20
-5.2302142125984252
11
4.9627691338582673
21
-5.2199036220472443
0
LINE
8
BLACK
6
CONTINUOUS
10
4.9627691338582673
20
-5.2199036220472443
11
4.9627691338582673
21
-5.219785787401575
0
LINE
8
BLACK
6
CONTINUOUS
10
4.9627691338582673
20
-5.219785787401575
11
4.96413031496063
21
-5.209446535433071
0
LINE
8
BLACK
6
CONTINUOUS
10
4.96413031496063
20
-5.209446535433071
11
4.9668293700787398
21
-5.1993734251968506
0
LINE
8
BLACK
6
CONTINUOUS
10
4.9668293700787398
20
-5.1993734251968506
11
4.9708201968503936
21
-5.1897387795275591
0
LINE
8
BLACK
6
CONTINUOUS
10
4.9708201968503936
20
-5.1897387795275591
11
4.9760344094488191
21
-5.1807074803149602
0
LINE
8
BLACK
6
CONTINUOUS
10
4.9760344094488191
20
-5.1807074803149602
11
4.9823828346456693
21
-5.1724340551181101
0
LINE
8
BLACK
6
CONTINUOUS
10
4.9823828346456693
20
-5.1724340551181101
11
4.9897568897637798
21
-5.1650599999999995
0
LINE
8
BLACK
6
CONTINUOUS
10
4.9897568897637798
20
-5.1650599999999995
11
4.99803031496063
21
-5.1587115748031493
0
LINE
8
BLACK
6
CONTINUOUS
10
4.99803031496063
20
-5.1587115748031493
11
5.007061614173228
21
-5.1534973622047247
0
LINE
8
BLACK
6
CONTINUOUS
10
5.007061614173228
20
-5.1534973622047247
11
5.0166962598425195
21
-5.1495065354330709
0
LINE
8
BLACK
6
CONTINUOUS
10
5.0166962598425195
20
-5.1495065354330709
11
5.0267693700787399
21
-5.1468074803149602
0
LINE
8
BLACK
6
CONTINUOUS
10
5.0267693700787399
20
-5.1468074803149602
11
5.0371086220472439
21
-5.1454462992125984
0
LINE
8
BLACK
6
CONTINUOUS
10
5.0371086220472439
20
-5.1454462992125984
11
5.0475370472440941
21
-5.1454462992125984
0
LINE
8
BLACK
6
CONTINUOUS
10
5.0475370472440941
20
-5.1454462992125984
11
5.0578762992125981
21
-5.1468074803149602
0
LINE
8
BLACK
6
CONTINUOUS
10
4.9645669291338583
20
-5.2300963779527558
11
4.965897362204724
21
-5.2402019685039365
0
LINE
8
BLACK
6
CONTINUOUS
10
4.965897362204724
20
-5.2402019685039365
11
4.9685354330708664
21
-5.2500474409448818
0
LINE
8
BLACK
6
CONTINUOUS
10
4.9685354330708664
20
-5.2500474409448818
11
4.9724360236220475
21
-5.2594643700787405
0
LINE
8
BLACK
6
CONTINUOUS
10
4.9724360236220475
20
-5.2594643700787405
11
4.9775324409448816
21
-5.2682915748031496
0
LINE
8
BLACK
6
CONTINUOUS
10
4.9775324409448816
20
-5.2682915748031496
11
4.9837374015748033
21
-5.2763780314960629
0
LINE
8
BLACK
6
CONTINUOUS
10
4.9837374015748033
20
-5.2763780314960629
11
4.9909448031496062
21
-5.2835854330708658
0
LINE
8
BLACK
6
CONTINUOUS
10
4.9909448031496062
20
-5.2835854330708658
11
4.9990312598425195
21
-5.2897903937007875
0
LINE
8
BLACK
6
CONTINUOUS
10
4.9990312598425195
20
-5.2897903937007875
11
5.0078584645669286
21
-5.2948868110236216
0
LINE
8
BLACK
6
CONTINUOUS
10
5.0078584645669286
20
-5.2948868110236216
11
5.0172753937007872
21
-5.2987874015748027
0
LINE
8
BLACK
6
CONTINUOUS
10
5.0172753937007872
20
-5.2987874015748027
11
5.0271208661417326
21
-5.3014254724409451
0
LINE
8
BLACK
6
CONTINUOUS
10
5.0271208661417326
20
-5.3014254724409451
11
5.0372264566929132
21
-5.3027559055118108
0
LINE
8
BLACK
6
CONTINUOUS
10
5.0372264566929132
20
-5.3027559055118108
11
5.0474192125984247
21
-5.3027559055118108
0
LINE
8
BLACK
6
CONTINUOUS
10
5.0474192125984247
20
-5.3027559055118108
11
5.0575248031496063
21
-5.3014254724409451
0
LINE
8
BLACK
6
CONTINUOUS
10
5.0575248031496063
20
-5.3014254724409451
11
5.0673702755905508
21
-5.2987874015748027
0
LINE
8
BLACK
6
CONTINUOUS
10
5.0673702755905508
20
-5.2987874015748027
11
5.0767872047244094
21
-5.2948868110236216
0
LINE
8
BLACK
6
CONTINUOUS
10
5.0767872047244094
20
-5.2948868110236216
11
5.0856144094488185
21
-5.2897903937007875
0
LINE
8
BLACK
6
CONTINUOUS
10
5.0856144094488185
20
-5.2897903937007875
11
5.0937008661417318
21
-5.2835854330708658
0
LINE
8
BLACK
6
CONTINUOUS
10
5.0937008661417318
20
-5.2835854330708658
11
5.1009082677165356
21
-5.2763780314960629
0
LINE
8
BLACK
6
CONTINUOUS
10
5.1009082677165356
20
-5.2763780314960629
11
5.1071132283464564
21
-5.2682915748031496
0
LINE
8
BLACK
6
CONTINUOUS
10
5.1071132283464564
20
-5.2682915748031496
11
5.1122096456692914
21
-5.2594643700787405
0
LINE
8
BLACK
6
CONTINUOUS
10
5.1122096456692914
20
-5.2594643700787405
11
5.1161102362204725
21
-5.2500474409448818
0
LINE
8
BLACK
6
CONTINUOUS
10
5.1161102362204725
20
-5.2500474409448818
11
5.118748307086614
21
-5.2402019685039365
0
LINE
8
BLACK
6
CONTINUOUS
10
5.118748307086614
20
-5.2402019685039365
11
5.1200787401574805
21
-5.2300963779527558
0
LINE
8
BLACK
6
CONTINUOUS
10
5.1200787401574805
20
-5.2300963779527558
11
5.1200787401574805
21
-5.2199036220472443
0
LINE
8
BLACK
6
CONTINUOUS
10
5.1200787401574805
20
-5.2199036220472443
11
5.118748307086614
21
-5.2097980314960628
0
LINE
8
BLACK
6
CONTINUOUS
10
5.118748307086614
20
-5.2097980314960628
11
5.1161102362204725
21
-5.1999525590551183
0
LINE
8
BLACK
6
CONTINUOUS
10
5.1161102362204725
20
-5.1999525590551183
11
5.1122096456692914
21
-5.1905356299212597
0
LINE
8
BLACK
6
CONTINUOUS
10
5.1122096456692914
20
-5.1905356299212597
11
5.1071132283464564
21
-5.1817084251968506
0
LINE
8
BLACK
6
CONTINUOUS
10
5.1071132283464564
20
-5.1817084251968506
11
5.1009082677165356
21
-5.1736219685039373
0
LINE
8
BLACK
6
CONTINUOUS
10
5.1009082677165356
20
-5.1736219685039373
11
5.0937008661417318
21
-5.1664145669291335
0
LINE
8
BLACK
6
CONTINUOUS
10
5.0937008661417318
20
-5.1664145669291335
11
5.0856144094488185
21
-5.1602096062992127
0
LINE
8
BLACK
6
CONTINUOUS
10
5.0856144094488185
20
-5.1602096062992127
11
5.0767872047244094
21
-5.1551131889763777
0
LINE
8
BLACK
6
CONTINUOUS
10
5.0767872047244094
20
-5.1551131889763777
11
5.0673702755905508
21
-5.1512125984251966
0
LINE
8
BLACK
6
CONTINUOUS
10
5.0673702755905508
20
-5.1512125984251966
11
5.0575248031496063
21
-5.1485745275590551
0
LINE
8
BLACK
6
CONTINUOUS
10
5.0575248031496063
20
-5.1485745275590551
11
5.0474192125984247
21
-5.1472440944881885
0
LINE
8
BLACK
6
CONTINUOUS
10
5.0474192125984247
20
-5.1472440944881885
11
5.0372264566929132
21
-5.1472440944881885
0
LINE
8
BLACK
6
CONTINUOUS
10
5.0372264566929132
20
-5.1472440944881885
11
5.0271208661417326
21
-5.1485745275590551
0
LINE
8
BLACK
6
CONTINUOUS
10
5.0271208661417326
20
-5.1485745275590551
11
5.0172753937007872
21
-5.1512125984251966
0
LINE
8
BLACK
6
CONTINUOUS
10
5.0172753937007872
20
-5.1512125984251966
11
5.0078584645669286
21
-5.1551131889763777
0
LINE
8
BLACK
6
CONTINUOUS
10
5.0078584645669286
20
-5.1551131889763777
11
4.9990312598425195
21
-5.1602096062992127
0
LINE
8
BLACK
6
CONTINUOUS
10
4.9990312598425195
20
-5.1602096062992127
11
4.9909448031496062
21
-5.1664145669291335
0
LINE
8
BLACK
6
CONTINUOUS
10
4.9909448031496062
20
-5.1664145669291335
11
4.9837374015748033
21
-5.1736219685039373
0
LINE
8
BLACK
6
CONTINUOUS
10
4.9837374015748033
20
-5.1736219685039373
11
4.9775324409448816
21
-5.1817084251968506
0
LINE
8
BLACK
6
CONTINUOUS
10
4.9775324409448816
20
-5.1817084251968506
11
4.9724360236220475
21
-5.1905356299212597
0
LINE
8
BLACK
6
CONTINUOUS
10
4.9724360236220475
20
-5.1905356299212597
11
4.9685354330708664
21
-5.1999525590551183
0
LINE
8
BLACK
6
CONTINUOUS
10
4.9685354330708664
20
-5.1999525590551183
11
4.965897362204724
21
-5.2097980314960628
0
LINE
8
BLACK
6
CONTINUOUS
10
4.965897362204724
20
-5.2097980314960628
11
4.9645669291338583
21
-5.2199036220472443
0
LINE
8
BLACK
6
CONTINUOUS
10
4.9645669291338583
20
-5.2199036220472443
11
4.9645669291338583
21
-5.2300963779527558
0
LINE
8
BLACK
6
CONTINUOUS
10
8.2777581889763781
20
-5.1468074803149602
11
8.2878312992125984
21
-5.1495065354330709
0
LINE
8
BLACK
6
CONTINUOUS
10
8.2878312992125984
20
-5.1495065354330709
11
8.297465944881889
21
-5.1534973622047247
0
LINE
8
BLACK
6
CONTINUOUS
10
8.297465944881889
20
-5.1534973622047247
11
8.3064972440944889
21
-5.1587115748031493
0
LINE
8
BLACK
6
CONTINUOUS
10
8.3064972440944889
20
-5.1587115748031493
11
8.3147706692913381
21
-5.1650599999999995
0
LINE
8
BLACK
6
CONTINUOUS
10
8.3147706692913381
20
-5.1650599999999995
11
8.3221447244094477
21
-5.1724340551181101
0
LINE
8
BLACK
6
CONTINUOUS
10
8.3221447244094477
20
-5.1724340551181101
11
8.3284931496062988
21
-5.1807074803149602
0
LINE
8
BLACK
6
CONTINUOUS
10
8.3284931496062988
20
-5.1807074803149602
11
8.3337073622047235
21
-5.1897387795275591
0
LINE
8
BLACK
6
CONTINUOUS
10
8.3337073622047235
20
-5.1897387795275591
11
8.3376981889763773
21
-5.1993734251968506
0
LINE
8
BLACK
6
CONTINUOUS
10
8.3376981889763773
20
-5.1993734251968506
11
8.340397244094488
21
-5.209446535433071
0
LINE
8
BLACK
6
CONTINUOUS
10
8.340397244094488
20
-5.209446535433071
11
8.3417584251968506
21
-5.219785787401575
0
LINE
8
BLACK
6
CONTINUOUS
10
8.3417584251968506
20
-5.219785787401575
11
8.3417584251968506
21
-5.2302142125984252
0
LINE
8
BLACK
6
CONTINUOUS
10
8.3417584251968506
20
-5.2302142125984252
11
8.340397244094488
21
-5.2405534645669292
0
LINE
8
BLACK
6
CONTINUOUS
10
8.340397244094488
20
-5.2405534645669292
11
8.3376981889763773
21
-5.2506265748031495
0
LINE
8
BLACK
6
CONTINUOUS
10
8.3376981889763773
20
-5.2506265748031495
11
8.3337073622047235
21
-5.260261220472441
0
LINE
8
BLACK
6
CONTINUOUS
10
8.3337073622047235
20
-5.260261220472441
11
8.3284931496062988
21
-5.2692925196850391
0
LINE
8
BLACK
6
CONTINUOUS
10
8.3284931496062988
20
-5.2692925196850391
11
8.3221447244094477
21
-5.2775659448818892
0
LINE
8
BLACK
6
CONTINUOUS
10
8.3221447244094477
20
-5.2775659448818892
11
8.3147706692913381
21
-5.2849399999999997
0
LINE
8
BLACK
6
CONTINUOUS
10
8.3147706692913381
20
-5.2849399999999997
11
8.3064972440944889
21
-5.2912884251968499
0
LINE
8
BLACK
6
CONTINUOUS
10
8.3064972440944889
20
-5.2912884251968499
11
8.297465944881889
21
-5.2965026377952755
0
LINE
8
BLACK
6
CONTINUOUS
10
8.297465944881889
20
-5.2965026377952755
11
8.2878312992125984
21
-5.3004934645669293
0
LINE
8
BLACK
6
CONTINUOUS
10
8.2878312992125984
20
-5.3004934645669293
11
8.2777581889763781
21
-5.3031925196850391
0
LINE
8
BLACK
6
CONTINUOUS
10
8.2777581889763781
20
-5.3031925196850391
11
8.2674189370078732
21
-5.3045537007874017
0
LINE
8
BLACK
6
CONTINUOUS
10
8.2674189370078732
20
-5.3045537007874017
11
8.2569905118110238
21
-5.3045537007874017
0
LINE
8
BLACK
6
CONTINUOUS
10
8.2569905118110238
20
-5.3045537007874017
11
8.246651259842519
21
-5.3031925196850391
0
LINE
8
BLACK
6
CONTINUOUS
10
8.246651259842519
20
-5.3031925196850391
11
8.2365781496062986
21
-5.3004934645669293
0
LINE
8
BLACK
6
CONTINUOUS
10
8.2365781496062986
20
-5.3004934645669293
11
8.226943503937008
21
-5.2965026377952755
0
LINE
8
BLACK
6
CONTINUOUS
10
8.226943503937008
20
-5.2965026377952755
11
8.21791220472441
21
-5.2912884251968499
0
LINE
8
BLACK
6
CONTINUOUS
10
8.21791220472441
20
-5.2912884251968499
11
8.2096387795275589
21
-5.2849399999999997
0
LINE
8
BLACK
6
CONTINUOUS
10
8.2096387795275589
20
-5.2849399999999997
11
8.2022647244094493
21
-5.2775659448818892
0
LINE
8
BLACK
6
CONTINUOUS
10
8.2022647244094493
20
-5.2775659448818892
11
8.1959162992125982
21
-5.2692925196850391
0
LINE
8
BLACK
6
CONTINUOUS
10
8.1959162992125982
20
-5.2692925196850391
11
8.1907020866141735
21
-5.260261220472441
0
LINE
8
BLACK
6
CONTINUOUS
10
8.1907020866141735
20
-5.260261220472441
11
8.1867112598425198
21
-5.2506265748031495
0
LINE
8
BLACK
6
CONTINUOUS
10
8.1867112598425198
20
-5.2506265748031495
11
8.184012204724409
21
-5.2405534645669292
0
LINE
8
BLACK
6
CONTINUOUS
10
8.184012204724409
20
-5.2405534645669292
11
8.1826510236220464
21
-5.2302142125984252
0
LINE
8
BLACK
6
CONTINUOUS
10
8.1826510236220464
20
-5.2302142125984252
11
8.1826510236220464
21
-5.2199036220472443
0
LINE
8
BLACK
6
CONTINUOUS
10
8.1826510236220464
20
-5.2199036220472443
11
8.1826510236220464
21
-5.219785787401575
0
LINE
8
BLACK
6
CONTINUOUS
10
8.1826510236220464
20
-5.219785787401575
11
8.184012204724409
21
-5.209446535433071
0
LINE
8
BLACK
6
CONTINUOUS
10
8.184012204724409
20
-5.209446535433071
11
8.1867112598425198
21
-5.1993734251968506
0
LINE
8
BLACK
6
CONTINUOUS
10
8.1867112598425198
20
-5.1993734251968506
11
8.1907020866141735
21
-5.1897387795275591
0
LINE
8
BLACK
6
CONTINUOUS
10
8.1907020866141735
20
-5.1897387795275591
11
8.1959162992125982
21
-5.1807074803149602
0
LINE
8
BLACK
6
CONTINUOUS
10
8.1959162992125982
20
-5.1807074803149602
11
8.2022647244094493
21
-5.1724340551181101
0
LINE
8
BLACK
6
CONTINUOUS
10
8.2022647244094493
20
-5.1724340551181101
11
8.2096387795275589
21
-5.1650599999999995
0
LINE
8
BLACK
6
CONTINUOUS
10
8.2096387795275589
20
-5.1650599999999995
11
8.21791220472441
21
-5.1587115748031493
0
LINE
8
BLACK
6
CONTINUOUS
10
8.21791220472441
20
-5.1587115748031493
11
8.226943503937008
21
-5.1534973622047247
0
LINE
8
BLACK
6
CONTINUOUS
10
8.226943503937008
20
-5.1534973622047247
11
8.2365781496062986
21
-5.1495065354330709
0
LINE
8
BLACK
6
CONTINUOUS
10
8.2365781496062986
20
-5.1495065354330709
11
8.246651259842519
21
-5.1468074803149602
0
LINE
8
BLACK
6
CONTINUOUS
10
8.246651259842519
20
-5.1468074803149602
11
8.2569905118110238
21
-5.1454462992125984
0
LINE
8
BLACK
6
CONTINUOUS
10
8.2569905118110238
20
-5.1454462992125984
11
8.2674189370078732
21
-5.1454462992125984
0
LINE
8
BLACK
6
CONTINUOUS
10
8.2674189370078732
20
-5.1454462992125984
11
8.2777581889763781
21
-5.1468074803149602
0
LINE
8
BLACK
6
CONTINUOUS
10
8.1844488188976374
20
-5.2300963779527558
11
8.1857792519685031
21
-5.2402019685039365
0
LINE
8
BLACK
6
CONTINUOUS
10
8.1857792519685031
20
-5.2402019685039365
11
8.1884173228346455
21
-5.2500474409448818
0
LINE
8
BLACK
6
CONTINUOUS
10
8.1884173228346455
20
-5.2500474409448818
11
8.1923179133858266
21
-5.2594643700787405
0
LINE
8
BLACK
6
CONTINUOUS
10
8.1923179133858266
20
-5.2594643700787405
11
8.1974143307086607
21
-5.2682915748031496
0
LINE
8
BLACK
6
CONTINUOUS
10
8.1974143307086607
20
-5.2682915748031496
11
8.2036192913385833
21
-5.2763780314960629
0
LINE
8
BLACK
6
CONTINUOUS
10
8.2036192913385833
20
-5.2763780314960629
11
8.2108266929133862
21
-5.2835854330708658
0
LINE
8
BLACK
6
CONTINUOUS
10
8.2108266929133862
20
-5.2835854330708658
11
8.2189131496062995
21
-5.2897903937007875
0
LINE
8
BLACK
6
CONTINUOUS
10
8.2189131496062995
20
-5.2897903937007875
11
8.2277403543307077
21
-5.2948868110236216
0
LINE
8
BLACK
6
CONTINUOUS
10
8.2277403543307077
20
-5.2948868110236216
11
8.2371572834645672
21
-5.2987874015748027
0
LINE
8
BLACK
6
CONTINUOUS
10
8.2371572834645672
20
-5.2987874015748027
11
8.2470027559055108
21
-5.3014254724409451
0
LINE
8
BLACK
6
CONTINUOUS
10
8.2470027559055108
20
-5.3014254724409451
11
8.2571083464566932
21
-5.3027559055118108
0
LINE
8
BLACK
6
CONTINUOUS
10
8.2571083464566932
20
-5.3027559055118108
11
8.2673011023622038
21
-5.3027559055118108
0
LINE
8
BLACK
6
CONTINUOUS
10
8.2673011023622038
20
-5.3027559055118108
11
8.2774066929133863
21
-5.3014254724409451
0
LINE
8
BLACK
6
CONTINUOUS
10
8.2774066929133863
20
-5.3014254724409451
11
8.2872521653543298
21
-5.2987874015748027
0
LINE
8
BLACK
6
CONTINUOUS
10
8.2872521653543298
20
-5.2987874015748027
11
8.2966690944881893
21
-5.2948868110236216
0
LINE
8
BLACK
6
CONTINUOUS
10
8.2966690944881893
20
-5.2948868110236216
11
8.3054962992125976
21
-5.2897903937007875
0
LINE
8
BLACK
6
CONTINUOUS
10
8.3054962992125976
20
-5.2897903937007875
11
8.3135827559055109
21
-5.2835854330708658
0
LINE
8
BLACK
6
CONTINUOUS
10
8.3135827559055109
20
-5.2835854330708658
11
8.3207901574803156
21
-5.2763780314960629
0
LINE
8
BLACK
6
CONTINUOUS
10
8.3207901574803156
20
-5.2763780314960629
11
8.3269951181102364
21
-5.2682915748031496
0
LINE
8
BLACK
6
CONTINUOUS
10
8.3269951181102364
20
-5.2682915748031496
11
8.3320915354330705
21
-5.2594643700787405
0
LINE
8
BLACK
6
CONTINUOUS
10
8.3320915354330705
20
-5.2594643700787405
11
8.3359921259842515
21
-5.2500474409448818
0
LINE
8
BLACK
6
CONTINUOUS
10
8.3359921259842515
20
-5.2500474409448818
11
8.338630196850394
21
-5.2402019685039365
0
LINE
8
BLACK
6
CONTINUOUS
10
8.338630196850394
20
-5.2402019685039365
11
8.3399606299212596
21
-5.2300963779527558
0
LINE
8
BLACK
6
CONTINUOUS
10
8.3399606299212596
20
-5.2300963779527558
11
8.3399606299212596
21
-5.2199036220472443
0
LINE
8
BLACK
6
CONTINUOUS
10
8.3399606299212596
20
-5.2199036220472443
11
8.338630196850394
21
-5.2097980314960628
0
LINE
8
BLACK
6
CONTINUOUS
10
8.338630196850394
20
-5.2097980314960628
11
8.3359921259842515
21
-5.1999525590551183
0
LINE
8
BLACK
6
CONTINUOUS
10
8.3359921259842515
20
-5.1999525590551183
11
8.3320915354330705
21
-5.1905356299212597
0
LINE
8
BLACK
6
CONTINUOUS
10
8.3320915354330705
20
-5.1905356299212597
11
8.3269951181102364
21
-5.1817084251968506
0
LINE
8
BLACK
6
CONTINUOUS
10
8.3269951181102364
20
-5.1817084251968506
11
8.3207901574803156
21
-5.1736219685039373
0
LINE
8
BLACK
6
CONTINUOUS
10
8.3207901574803156
20
-5.1736219685039373
11
8.3135827559055109
21
-5.1664145669291335
0
LINE
8
BLACK
6
CONTINUOUS
10
8.3135827559055109
20
-5.1664145669291335
11
8.3054962992125976
21
-5.1602096062992127
0
LINE
8
BLACK
6
CONTINUOUS
10
8.3054962992125976
20
-5.1602096062992127
11
8.2966690944881893
21
-5.1551131889763777
0
LINE
8
BLACK
6
CONTINUOUS
10
8.2966690944881893
20
-5.1551131889763777
11
8.2872521653543298
21
-5.1512125984251966
0
LINE
8
BLACK
6
CONTINUOUS
10
8.2872521653543298
20
-5.1512125984251966
11
8.2774066929133863
21
-5.1485745275590551
0
LINE
8
BLACK
6
CONTINUOUS
10
8.2774066929133863
20
-5.1485745275590551
11
8.2673011023622038
21
-5.1472440944881885
0
LINE
8
BLACK
6
CONTINUOUS
10
8.2673011023622038
20
-5.1472440944881885
11
8.2571083464566932
21
-5.1472440944881885
0
LINE
8
BLACK
6
CONTINUOUS
10
8.2571083464566932
20
-5.1472440944881885
11
8.2470027559055108
21
-5.1485745275590551
0
LINE
8
BLACK
6
CONTINUOUS
10
8.2470027559055108
20
-5.1485745275590551
11
8.2371572834645672
21
-5.1512125984251966
0
LINE
8
BLACK
6
CONTINUOUS
10
8.2371572834645672
20
-5.1512125984251966
11
8.2277403543307077
21
-5.1551131889763777
0
LINE
8
BLACK
6
CONTINUOUS
10
8.2277403543307077
20
-5.1551131889763777
11
8.2189131496062995
21
-5.1602096062992127
0
LINE
8
BLACK
6
CONTINUOUS
10
8.2189131496062995
20
-5.1602096062992127
11
8.2108266929133862
21
-5.1664145669291335
0
LINE
8
BLACK
6
CONTINUOUS
10
8.2108266929133862
20
-5.1664145669291335
11
8.2036192913385833
21
-5.1736219685039373
0
LINE
8
BLACK
6
CONTINUOUS
10
8.2036192913385833
20
-5.1736219685039373
11
8.1974143307086607
21
-5.1817084251968506
0
LINE
8
BLACK
6
CONTINUOUS
10
8.1974143307086607
20
-5.1817084251968506
11
8.1923179133858266
21
-5.1905356299212597
0
LINE
8
BLACK
6
CONTINUOUS
10
8.1923179133858266
20
-5.1905356299212597
11
8.1884173228346455
21
-5.1999525590551183
0
LINE
8
BLACK
6
CONTINUOUS
10
8.1884173228346455
20
-5.1999525590551183
11
8.1857792519685031
21
-5.2097980314960628
0
LINE
8
BLACK
6
CONTINUOUS
10
8.1857792519685031
20
-5.2097980314960628
11
8.1844488188976374
21
-5.2199036220472443
0
LINE
8
BLACK
6
CONTINUOUS
10
8.1844488188976374
20
-5.2199036220472443
11
8.1844488188976374
21
-5.2300963779527558
0
LINE
8
BLACK
6
CONTINUOUS
10
2.6539199606299211
20
-4.4443662598425195
11
2.6544526377952757
21
-4.4448989370078742
0
LINE
8
BLACK
6
CONTINUOUS
10
2.6544526377952757
20
-4.4448989370078742
11
2.6545275590551181
21
-4.4452755905511809
0
LINE
8
BLACK
6
CONTINUOUS
10
2.6545275590551181
20
-4.4452755905511809
11
2.6545275590551181
21
-4.9649606299212596
0
LINE
8
BLACK
6
CONTINUOUS
10
2.6545275590551181
20
-4.9649606299212596
11
2.6544526377952757
21
-4.9653372834645664
0
LINE
8
BLACK
6
CONTINUOUS
10
2.6544526377952757
20
-4.9653372834645664
11
2.6539199606299211
21
-4.965869960629921
0
LINE
8
BLACK
6
CONTINUOUS
10
2.6539199606299211
20
-4.965869960629921
11
2.6535433070866139
21
-4.9659448818897634
0
LINE
8
BLACK
6
CONTINUOUS
10
2.6535433070866139
20
-4.9659448818897634
11
2.1338582677165352
21
-4.9659448818897634
0
LINE
8
BLACK
6
CONTINUOUS
10
2.1338582677165352
20
-4.9659448818897634
11
2.1334816141732285
21
-4.965869960629921
0
LINE
8
BLACK
6
CONTINUOUS
10
2.1334816141732285
20
-4.965869960629921
11
2.1329489370078738
21
-4.9653372834645664
0
LINE
8
BLACK
6
CONTINUOUS
10
2.1329489370078738
20
-4.9653372834645664
11
2.1328740157480315
21
-4.9649606299212596
0
LINE
8
BLACK
6
CONTINUOUS
10
2.1328740157480315
20
-4.9649606299212596
11
2.1328740157480315
21
-4.4452755905511809
0
LINE
8
BLACK
6
CONTINUOUS
10
2.1328740157480315
20
-4.4452755905511809
11
2.1329489370078738
21
-4.4448989370078742
0
LINE
8
BLACK
6
CONTINUOUS
10
2.1329489370078738
20
-4.4448989370078742
11
2.1334816141732285
21
-4.4443662598425195
0
LINE
8
BLACK
6
CONTINUOUS
10
2.1334816141732285
20
-4.4443662598425195
11
2.1338582677165352
21
-4.4442913385826772
0
LINE
8
BLACK
6
CONTINUOUS
10
2.1338582677165352
20
-4.4442913385826772
11
2.6535433070866139
21
-4.4442913385826772
0
LINE
8
BLACK
6
CONTINUOUS
10
2.6535433070866139
20
-4.4442913385826772
11
2.6539199606299211
21
-4.4443662598425195
0
LINE
8
BLACK
6
CONTINUOUS
10
2.1348425196850394
20
-4.4462598425196846
11
2.1348425196850394
21
-4.9639763779527559
0
LINE
8
BLACK
6
CONTINUOUS
10
2.1348425196850394
20
-4.9639763779527559
11
2.6525590551181102
21
-4.9639763779527559
0
LINE
8
BLACK
6
CONTINUOUS
10
2.6525590551181102
20
-4.9639763779527559
11
2.6525590551181102
21
-4.4462598425196846
0
LINE
8
BLACK
6
CONTINUOUS
10
2.6525590551181102
20
-4.4462598425196846
11
2.1348425196850394
21
-4.4462598425196846
0
LINE
8
BLACK
6
CONTINUOUS
10
3.4137624803149604
20
-4.4443662598425195
11
3.4142951574803151
21
-4.4448989370078742
0
LINE
8
BLACK
6
CONTINUOUS
10
3.4142951574803151
20
-4.4448989370078742
11
3.4143700787401574
21
-4.4452755905511809
0
LINE
8
BLACK
6
CONTINUOUS
10
3.4143700787401574
20
-4.4452755905511809
11
3.4143700787401574
21
-4.9649606299212596
0
LINE
8
BLACK
6
CONTINUOUS
10
3.4143700787401574
20
-4.9649606299212596
11
3.4142951574803151
21
-4.9653372834645664
0
LINE
8
BLACK
6
CONTINUOUS
10
3.4142951574803151
20
-4.9653372834645664
11
3.4137624803149604
21
-4.965869960629921
0
LINE
8
BLACK
6
CONTINUOUS
10
3.4137624803149604
20
-4.965869960629921
11
3.4133858267716533
21
-4.9659448818897634
0
LINE
8
BLACK
6
CONTINUOUS
10
3.4133858267716533
20
-4.9659448818897634
11
2.8937007874015745
21
-4.9659448818897634
0
LINE
8
BLACK
6
CONTINUOUS
10
2.8937007874015745
20
-4.9659448818897634
11
2.8933241338582678
21
-4.965869960629921
0
LINE
8
BLACK
6
CONTINUOUS
10
2.8933241338582678
20
-4.965869960629921
11
2.8927914566929132
21
-4.9653372834645664
0
LINE
8
BLACK
6
CONTINUOUS
10
2.8927914566929132
20
-4.9653372834645664
11
2.8927165354330708
21
-4.9649606299212596
0
LINE
8
BLACK
6
CONTINUOUS
10
2.8927165354330708
20
-4.9649606299212596
11
2.8927165354330708
21
-4.4452755905511809
0
LINE
8
BLACK
6
CONTINUOUS
10
2.8927165354330708
20
-4.4452755905511809
11
2.8927914566929132
21
-4.4448989370078742
0
LINE
8
BLACK
6
CONTINUOUS
10
2.8927914566929132
20
-4.4448989370078742
11
2.8933241338582678
21
-4.4443662598425195
0
LINE
8
BLACK
6
CONTINUOUS
10
2.8933241338582678
20
-4.4443662598425195
11
2.8937007874015745
21
-4.4442913385826772
0
LINE
8
BLACK
6
CONTINUOUS
10
2.8937007874015745
20
-4.4442913385826772
11
3.4133858267716533
21
-4.4442913385826772
0
LINE
8
BLACK
6
CONTINUOUS
10
3.4133858267716533
20
-4.4442913385826772
11
3.4137624803149604
21
-4.4443662598425195
0
LINE
8
BLACK
6
CONTINUOUS
10
2.8946850393700787
20
-4.4462598425196846
11
2.8946850393700787
21
-4.9639763779527559
0
LINE
8
BLACK
6
CONTINUOUS
10
2.8946850393700787
20
-4.9639763779527559
11
3.4124015748031495
21
-4.9639763779527559
0
LINE
8
BLACK
6
CONTINUOUS
10
3.4124015748031495
20
-4.9639763779527559
11
3.4124015748031495
21
-4.4462598425196846
0
LINE
8
BLACK
6
CONTINUOUS
10
3.4124015748031495
20
-4.4462598425196846
11
2.8946850393700787
21
-4.4462598425196846
0
LINE
8
BLACK
6
CONTINUOUS
10
4.1736050000000002
20
-4.4443662598425195
11
4.174137677165354
21
-4.4448989370078742
0
LINE
8
BLACK
6
CONTINUOUS
10
4.174137677165354
20
-4.4448989370078742
11
4.1742125984251963
21
-4.4452755905511809
0
LINE
8
BLACK
6
CONTINUOUS
10
4.1742125984251963
20
-4.4452755905511809
11
4.1742125984251963
21
-4.9649606299212596
0
LINE
8
BLACK
6
CONTINUOUS
10
4.1742125984251963
20
-4.9649606299212596
11
4.174137677165354
21
-4.9653372834645664
0
LINE
8
BLACK
6
CONTINUOUS
10
4.174137677165354
20
-4.9653372834645664
11
4.1736050000000002
21
-4.965869960629921
0
LINE
8
BLACK
6
CONTINUOUS
10
4.1736050000000002
20
-4.965869960629921
11
4.1732283464566926
21
-4.9659448818897634
0
LINE
8
BLACK
6
CONTINUOUS
10
4.1732283464566926
20
-4.9659448818897634
11
3.6535433070866139
21
-4.9659448818897634
0
LINE
8
BLACK
6
CONTINUOUS
10
3.6535433070866139
20
-4.9659448818897634
11
3.6531666535433072
21
-4.965869960629921
0
LINE
8
BLACK
6
CONTINUOUS
10
3.6531666535433072
20
-4.965869960629921
11
3.6526339763779525
21
-4.9653372834645664
0
LINE
8
BLACK
6
CONTINUOUS
10
3.6526339763779525
20
-4.9653372834645664
11
3.6525590551181102
21
-4.9649606299212596
0
LINE
8
BLACK
6
CONTINUOUS
10
3.6525590551181102
20
-4.9649606299212596
11
3.6525590551181102
21
-4.4452755905511809
0
LINE
8
BLACK
6
CONTINUOUS
10
3.6525590551181102
20
-4.4452755905511809
11
3.6526339763779525
21
-4.4448989370078742
0
LINE
8
BLACK
6
CONTINUOUS
10
3.6526339763779525
20
-4.4448989370078742
11
3.6531666535433072
21
-4.4443662598425195
0
LINE
8
BLACK
6
CONTINUOUS
10
3.6531666535433072
20
-4.4443662598425195
11
3.6535433070866139
21
-4.4442913385826772
0
LINE
8
BLACK
6
CONTINUOUS
10
3.6535433070866139
20
-4.4442913385826772
11
4.1732283464566926
21
-4.4442913385826772
0
LINE
8
BLACK
6
CONTINUOUS
10
4.1732283464566926
20
-4.4442913385826772
11
4.1736050000000002
21
-4.4443662598425195
0
LINE
8
BLACK
6
CONTINUOUS
10
3.6545275590551181
20
-4.4462598425196846
11
3.6545275590551181
21
-4.9639763779527559
0
LINE
8
BLACK
6
CONTINUOUS
10
3.6545275590551181
20
-4.9639763779527559
11
4.1722440944881889
21
-4.9639763779527559
0
LINE
8
BLACK
6
CONTINUOUS
10
4.1722440944881889
20
-4.9639763779527559
11
4.1722440944881889
21
-4.4462598425196846
0
LINE
8
BLACK
6
CONTINUOUS
10
4.1722440944881889
20
-4.4462598425196846
11
3.6545275590551181
21
-4.4462598425196846
0
LINE
8
BLACK
6
CONTINUOUS
10
4.9334475196850391
20
-4.4443662598425195
11
4.9339801968503938
21
-4.4448989370078742
0
LINE
8
BLACK
6
CONTINUOUS
10
4.9339801968503938
20
-4.4448989370078742
11
4.9340551181102361
21
-4.4452755905511809
0
LINE
8
BLACK
6
CONTINUOUS
10
4.9340551181102361
20
-4.4452755905511809
11
4.9340551181102361
21
-4.9649606299212596
0
LINE
8
BLACK
6
CONTINUOUS
10
4.9340551181102361
20
-4.9649606299212596
11
4.9339801968503938
21
-4.9653372834645664
0
LINE
8
BLACK
6
CONTINUOUS
10
4.9339801968503938
20
-4.9653372834645664
11
4.9334475196850391
21
-4.965869960629921
0
LINE
8
BLACK
6
CONTINUOUS
10
4.9334475196850391
20
-4.965869960629921
11
4.9330708661417324
21
-4.9659448818897634
0
LINE
8
BLACK
6
CONTINUOUS
10
4.9330708661417324
20
-4.9659448818897634
11
4.4133858267716537
21
-4.9659448818897634
0
LINE
8
BLACK
6
CONTINUOUS
10
4.4133858267716537
20
-4.9659448818897634
11
4.4130091732283461
21
-4.965869960629921
0
LINE
8
BLACK
6
CONTINUOUS
10
4.4130091732283461
20
-4.965869960629921
11
4.4124764960629923
21
-4.9653372834645664
0
LINE
8
BLACK
6
CONTINUOUS
10
4.4124764960629923
20
-4.9653372834645664
11
4.4124015748031491
21
-4.9649606299212596
0
LINE
8
BLACK
6
CONTINUOUS
10
4.4124015748031491
20
-4.9649606299212596
11
4.4124015748031491
21
-4.4452755905511809
0
LINE
8
BLACK
6
CONTINUOUS
10
4.4124015748031491
20
-4.4452755905511809
11
4.4124764960629923
21
-4.4448989370078742
0
LINE
8
BLACK
6
CONTINUOUS
10
4.4124764960629923
20
-4.4448989370078742
11
4.4130091732283461
21
-4.4443662598425195
0
LINE
8
BLACK
6
CONTINUOUS
10
4.4130091732283461
20
-4.4443662598425195
11
4.4133858267716537
21
-4.4442913385826772
0
LINE
8
BLACK
6
CONTINUOUS
10
4.4133858267716537
20
-4.4442913385826772
11
4.9330708661417324
21
-4.4442913385826772
0
LINE
8
BLACK
6
CONTINUOUS
10
4.9330708661417324
20
-4.4442913385826772
11
4.9334475196850391
21
-4.4443662598425195
0
LINE
8
BLACK
6
CONTINUOUS
10
4.4143700787401574
20
-4.4462598425196846
11
4.4143700787401574
21
-4.9639763779527559
0
LINE
8
BLACK
6
CONTINUOUS
10
4.4143700787401574
20
-4.9639763779527559
11
4.9320866141732278
21
-4.9639763779527559
0
LINE
8
BLACK
6
CONTINUOUS
10
4.9320866141732278
20
-4.9639763779527559
11
4.9320866141732278
21
-4.4462598425196846
0
LINE
8
BLACK
6
CONTINUOUS
10
4.9320866141732278
20
-4.4462598425196846
11
4.4143700787401574
21
-4.4462598425196846
0
LINE
8
BLACK
6
CONTINUOUS
10
5.6932900393700789
20
-4.4443662598425195
11
5.6938227165354327
21
-4.4448989370078742
0
LINE
8
BLACK
6
CONTINUOUS
10
5.6938227165354327
20
-4.4448989370078742
11
5.693897637795275
21
-4.4452755905511809
0
LINE
8
BLACK
6
CONTINUOUS
10
5.693897637795275
20
-4.4452755905511809
11
5.693897637795275
21
-4.9649606299212596
0
LINE
8
BLACK
6
CONTINUOUS
10
5.693897637795275
20
-4.9649606299212596
11
5.6938227165354327
21
-4.9653372834645664
0
LINE
8
BLACK
6
CONTINUOUS
10
5.6938227165354327
20
-4.9653372834645664
11
5.6932900393700789
21
-4.965869960629921
0
LINE
8
BLACK
6
CONTINUOUS
10
5.6932900393700789
20
-4.965869960629921
11
5.6929133858267713
21
-4.9659448818897634
0
LINE
8
BLACK
6
CONTINUOUS
10
5.6929133858267713
20
-4.9659448818897634
11
5.1732283464566926
21
-4.9659448818897634
0
LINE
8
BLACK
6
CONTINUOUS
10
5.1732283464566926
20
-4.9659448818897634
11
5.1728516929133859
21
-4.965869960629921
0
LINE
8
BLACK
6
CONTINUOUS
10
5.1728516929133859
20
-4.965869960629921
11
5.1723190157480312
21
-4.9653372834645664
0
LINE
8
BLACK
6
CONTINUOUS
10
5.1723190157480312
20
-4.9653372834645664
11
5.1722440944881889
21
-4.9649606299212596
0
LINE
8
BLACK
6
CONTINUOUS
10
5.1722440944881889
20
-4.9649606299212596
11
5.1722440944881889
21
-4.4452755905511809
0
LINE
8
BLACK
6
CONTINUOUS
10
5.1722440944881889
20
-4.4452755905511809
11
5.1723190157480312
21
-4.4448989370078742
0
LINE
8
BLACK
6
CONTINUOUS
10
5.1723190157480312
20
-4.4448989370078742
11
5.1728516929133859
21
-4.4443662598425195
0
LINE
8
BLACK
6
CONTINUOUS
10
5.1728516929133859
20
-4.4443662598425195
11
5.1732283464566926
21
-4.4442913385826772
0
LINE
8
BLACK
6
CONTINUOUS
10
5.1732283464566926
20
-4.4442913385826772
11
5.6929133858267713
21
-4.4442913385826772
0
LINE
8
BLACK
6
CONTINUOUS
10
5.6929133858267713
20
-4.4442913385826772
11
5.6932900393700789
21
-4.4443662598425195
0
LINE
8
BLACK
6
CONTINUOUS
10
5.1742125984251963
20
-4.4462598425196846
11
5.1742125984251963
21
-4.9639763779527559
0
LINE
8
BLACK
6
CONTINUOUS
10
5.1742125984251963
20
-4.9639763779527559
11
5.6919291338582676
21
-4.9639763779527559
0
LINE
8
BLACK
6
CONTINUOUS
10
5.6919291338582676
20
-4.9639763779527559
11
5.6919291338582676
21
-4.4462598425196846
0
LINE
8
BLACK
6
CONTINUOUS
10
5.6919291338582676
20
-4.4462598425196846
11
5.1742125984251963
21
-4.4462598425196846
0
LINE
8
BLACK
6
CONTINUOUS
10
6.4531325590551178
20
-4.4443662598425195
11
6.4536652362204725
21
-4.4448989370078742
0
LINE
8
BLACK
6
CONTINUOUS
10
6.4536652362204725
20
-4.4448989370078742
11
6.4537401574803148
21
-4.4452755905511809
0
LINE
8
BLACK
6
CONTINUOUS
10
6.4537401574803148
20
-4.4452755905511809
11
6.4537401574803148
21
-4.9649606299212596
0
LINE
8
BLACK
6
CONTINUOUS
10
6.4537401574803148
20
-4.9649606299212596
11
6.4536652362204725
21
-4.9653372834645664
0
LINE
8
BLACK
6
CONTINUOUS
10
6.4536652362204725
20
-4.9653372834645664
11
6.4531325590551178
21
-4.965869960629921
0
LINE
8
BLACK
6
CONTINUOUS
10
6.4531325590551178
20
-4.965869960629921
11
6.4527559055118111
21
-4.9659448818897634
0
LINE
8
BLACK
6
CONTINUOUS
10
6.4527559055118111
20
-4.9659448818897634
11
5.9330708661417324
21
-4.9659448818897634
0
LINE
8
BLACK
6
CONTINUOUS
10
5.9330708661417324
20
-4.9659448818897634
11
5.9326942125984248
21
-4.965869960629921
0
LINE
8
BLACK
6
CONTINUOUS
10
5.9326942125984248
20
-4.965869960629921
11
5.932161535433071
21
-4.9653372834645664
0
LINE
8
BLACK
6
CONTINUOUS
10
5.932161535433071
20
-4.9653372834645664
11
5.9320866141732278
21
-4.9649606299212596
0
LINE
8
BLACK
6
CONTINUOUS
10
5.9320866141732278
20
-4.9649606299212596
11
5.9320866141732278
21
-4.4452755905511809
0
LINE
8
BLACK
6
CONTINUOUS
10
5.9320866141732278
20
-4.4452755905511809
11
5.932161535433071
21
-4.4448989370078742
0
LINE
8
BLACK
6
CONTINUOUS
10
5.932161535433071
20
-4.4448989370078742
11
5.9326942125984248
21
-4.4443662598425195
0
LINE
8
BLACK
6
CONTINUOUS
10
5.9326942125984248
20
-4.4443662598425195
11
5.9330708661417324
21
-4.4442913385826772
0
LINE
8
BLACK
6
CONTINUOUS
10
5.9330708661417324
20
-4.4442913385826772
11
6.4527559055118111
21
-4.4442913385826772
0
LINE
8
BLACK
6
CONTINUOUS
10
6.4527559055118111
20
-4.4442913385826772
11
6.4531325590551178
21
-4.4443662598425195
0
LINE
8
BLACK
6
CONTINUOUS
10
5.9340551181102361
20
-4.4462598425196846
11
5.9340551181102361
21
-4.9639763779527559
0
LINE
8
BLACK
6
CONTINUOUS
10
5.9340551181102361
20
-4.9639763779527559
11
6.4517716535433065
21
-4.9639763779527559
0
LINE
8
BLACK
6
CONTINUOUS
10
6.4517716535433065
20
-4.9639763779527559
11
6.4517716535433065
21
-4.4462598425196846
0
LINE
8
BLACK
6
CONTINUOUS
10
6.4517716535433065
20
-4.4462598425196846
11
5.9340551181102361
21
-4.4462598425196846
0
LINE
8
BLACK
6
CONTINUOUS
10
7.2129750787401576
20
-4.4443662598425195
11
7.2135077559055114
21
-4.4448989370078742
0
LINE
8
BLACK
6
CONTINUOUS
10
7.2135077559055114
20
-4.4448989370078742
11
7.2135826771653537
21
-4.4452755905511809
0
LINE
8
BLACK
6
CONTINUOUS
10
7.2135826771653537
20
-4.4452755905511809
11
7.2135826771653537
21
-4.9649606299212596
0
LINE
8
BLACK
6
CONTINUOUS
10
7.2135826771653537
20
-4.9649606299212596
11
7.2135077559055114
21
-4.9653372834645664
0
LINE
8
BLACK
6
CONTINUOUS
10
7.2135077559055114
20
-4.9653372834645664
11
7.2129750787401576
21
-4.965869960629921
0
LINE
8
BLACK
6
CONTINUOUS
10
7.2129750787401576
20
-4.965869960629921
11
7.21259842519685
21
-4.9659448818897634
0
LINE
8
BLACK
6
CONTINUOUS
10
7.21259842519685
20
-4.9659448818897634
11
6.6929133858267713
21
-4.9659448818897634
0
LINE
8
BLACK
6
CONTINUOUS
10
6.6929133858267713
20
-4.9659448818897634
11
6.6925367322834646
21
-4.965869960629921
0
LINE
8
BLACK
6
CONTINUOUS
10
6.6925367322834646
20
-4.965869960629921
11
6.6920040551181099
21
-4.9653372834645664
0
LINE
8
BLACK
6
CONTINUOUS
10
6.6920040551181099
20
-4.9653372834645664
11
6.6919291338582676
21
-4.9649606299212596
0
LINE
8
BLACK
6
CONTINUOUS
10
6.6919291338582676
20
-4.9649606299212596
11
6.6919291338582676
21
-4.4452755905511809
0
LINE
8
BLACK
6
CONTINUOUS
10
6.6919291338582676
20
-4.4452755905511809
11
6.6920040551181099
21
-4.4448989370078742
0
LINE
8
BLACK
6
CONTINUOUS
10
6.6920040551181099
20
-4.4448989370078742
11
6.6925367322834646
21
-4.4443662598425195
0
LINE
8
BLACK
6
CONTINUOUS
10
6.6925367322834646
20
-4.4443662598425195
11
6.6929133858267713
21
-4.4442913385826772
0
LINE
8
BLACK
6
CONTINUOUS
10
6.6929133858267713
20
-4.4442913385826772
11
7.21259842519685
21
-4.4442913385826772
0
LINE
8
BLACK
6
CONTINUOUS
10
7.21259842519685
20
-4.4442913385826772
11
7.2129750787401576
21
-4.4443662598425195
0
LINE
8
BLACK
6
CONTINUOUS
10
6.693897637795275
20
-4.4462598425196846
11
6.693897637795275
21
-4.9639763779527559
0
LINE
8
BLACK
6
CONTINUOUS
10
6.693897637795275
20
-4.9639763779527559
11
7.2116141732283463
21
-4.9639763779527559
0
LINE
8
BLACK
6
CONTINUOUS
10
7.2116141732283463
20
-4.9639763779527559
11
7.2116141732283463
21
-4.4462598425196846
0
LINE
8
BLACK
6
CONTINUOUS
10
7.2116141732283463
20
-4.4462598425196846
11
6.693897637795275
21
-4.4462598425196846
0
LINE
8
BLACK
6
CONTINUOUS
10
7.9728175984251966
20
-4.4443662598425195
11
7.9733502755905512
21
-4.4448989370078742
0
LINE
8
BLACK
6
CONTINUOUS
10
7.9733502755905512
20
-4.4448989370078742
11
7.9734251968503935
21
-4.4452755905511809
0
LINE
8
BLACK
6
CONTINUOUS
10
7.9734251968503935
20
-4.4452755905511809
11
7.9734251968503935
21
-4.9649606299212596
0
LINE
8
BLACK
6
CONTINUOUS
10
7.9734251968503935
20
-4.9649606299212596
11
7.9733502755905512
21
-4.9653372834645664
0
LINE
8
BLACK
6
CONTINUOUS
10
7.9733502755905512
20
-4.9653372834645664
11
7.9728175984251966
21
-4.965869960629921
0
LINE
8
BLACK
6
CONTINUOUS
10
7.9728175984251966
20
-4.965869960629921
11
7.9724409448818898
21
-4.9659448818897634
0
LINE
8
BLACK
6
CONTINUOUS
10
7.9724409448818898
20
-4.9659448818897634
11
7.4527559055118111
21
-4.9659448818897634
0
LINE
8
BLACK
6
CONTINUOUS
10
7.4527559055118111
20
-4.9659448818897634
11
7.4523792519685035
21
-4.965869960629921
0
LINE
8
BLACK
6
CONTINUOUS
10
7.4523792519685035
20
-4.965869960629921
11
7.4518465748031497
21
-4.9653372834645664
0
LINE
8
BLACK
6
CONTINUOUS
10
7.4518465748031497
20
-4.9653372834645664
11
7.4517716535433065
21
-4.9649606299212596
0
LINE
8
BLACK
6
CONTINUOUS
10
7.4517716535433065
20
-4.9649606299212596
11
7.4517716535433065
21
-4.4452755905511809
0
LINE
8
BLACK
6
CONTINUOUS
10
7.4517716535433065
20
-4.4452755905511809
11
7.4518465748031497
21
-4.4448989370078742
0
LINE
8
BLACK
6
CONTINUOUS
10
7.4518465748031497
20
-4.4448989370078742
11
7.4523792519685035
21
-4.4443662598425195
0
LINE
8
BLACK
6
CONTINUOUS
10
7.4523792519685035
20
-4.4443662598425195
11
7.4527559055118111
21
-4.4442913385826772
0
LINE
8
BLACK
6
CONTINUOUS
10
7.4527559055118111
20
-4.4442913385826772
11
7.9724409448818898
21
-4.4442913385826772
0
LINE
8
BLACK
6
CONTINUOUS
10
7.9724409448818898
20
-4.4442913385826772
11
7.9728175984251966
21
-4.4443662598425195
0
LINE
8
BLACK
6
CONTINUOUS
10
7.4537401574803148
20
-4.4462598425196846
11
7.4537401574803148
21
-4.9639763779527559
0
LINE
8
BLACK
6
CONTINUOUS
10
7.4537401574803148
20
-4.9639763779527559
11
7.9714566929133852
21
-4.9639763779527559
0
LINE
8
BLACK
6
CONTINUOUS
10
7.9714566929133852
20
-4.9639763779527559
11
7.9714566929133852
21
-4.4462598425196846
0
LINE
8
BLACK
6
CONTINUOUS
10
7.9714566929133852
20
-4.4462598425196846
11
7.4537401574803148
21
-4.4462598425196846
0
LINE
8
BLACK
6
CONTINUOUS
10
2.6539199606299211
20
-3.6845237401574802
11
2.6544526377952757
21
-3.6850564173228344
0
LINE
8
BLACK
6
CONTINUOUS
10
2.6544526377952757
20
-3.6850564173228344
11
2.6545275590551181
21
-3.6854330708661416
0
LINE
8
BLACK
6
CONTINUOUS
10
2.6545275590551181
20
-3.6854330708661416
11
2.6545275590551181
21
-4.2051181102362207
0
LINE
8
BLACK
6
CONTINUOUS
10
2.6545275590551181
20
-4.2051181102362207
11
2.6544526377952757
21
-4.2054947637795275
0
LINE
8
BLACK
6
CONTINUOUS
10
2.6544526377952757
20
-4.2054947637795275
11
2.6539199606299211
21
-4.2060274409448821
0
LINE
8
BLACK
6
CONTINUOUS
10
2.6539199606299211
20
-4.2060274409448821
11
2.6535433070866139
21
-4.2061023622047244
0
LINE
8
BLACK
6
CONTINUOUS
10
2.6535433070866139
20
-4.2061023622047244
11
2.1338582677165352
21
-4.2061023622047244
0
LINE
8
BLACK
6
CONTINUOUS
10
2.1338582677165352
20
-4.2061023622047244
11
2.1334816141732285
21
-4.2060274409448821
0
LINE
8
BLACK
6
CONTINUOUS
10
2.1334816141732285
20
-4.2060274409448821
11
2.1329489370078738
21
-4.2054947637795275
0
LINE
8
BLACK
6
CONTINUOUS
10
2.1329489370078738
20
-4.2054947637795275
11
2.1328740157480315
21
-4.2051181102362207
0
LINE
8
BLACK
6
CONTINUOUS
10
2.1328740157480315
20
-4.2051181102362207
11
2.1328740157480315
21
-3.6854330708661416
0
LINE
8
BLACK
6
CONTINUOUS
10
2.1328740157480315
20
-3.6854330708661416
11
2.1329489370078738
21
-3.6850564173228344
0
LINE
8
BLACK
6
CONTINUOUS
10
2.1329489370078738
20
-3.6850564173228344
11
2.1334816141732285
21
-3.6845237401574802
0
LINE
8
BLACK
6
CONTINUOUS
10
2.1334816141732285
20
-3.6845237401574802
11
2.1338582677165352
21
-3.6844488188976379
0
LINE
8
BLACK
6
CONTINUOUS
10
2.1338582677165352
20
-3.6844488188976379
11
2.6535433070866139
21
-3.6844488188976379
0
LINE
8
BLACK
6
CONTINUOUS
10
2.6535433070866139
20
-3.6844488188976379
11
2.6539199606299211
21
-3.6845237401574802
0
LINE
8
BLACK
6
CONTINUOUS
10
2.1348425196850394
20
-3.6864173228346457
11
2.1348425196850394
21
-4.2041338582677161
0
LINE
8
BLACK
6
CONTINUOUS
10
2.1348425196850394
20
-4.2041338582677161
11
2.6525590551181102
21
-4.2041338582677161
0
LINE
8
BLACK
6
CONTINUOUS
10
2.6525590551181102
20
-4.2041338582677161
11
2.6525590551181102
21
-3.6864173228346457
0
LINE
8
BLACK
6
CONTINUOUS
10
2.6525590551181102
20
-3.6864173228346457
11
2.1348425196850394
21
-3.6864173228346457
0
LINE
8
BLACK
6
CONTINUOUS
10
3.4137624803149604
20
-3.6845237401574802
11
3.4142951574803151
21
-3.6850564173228344
0
LINE
8
BLACK
6
CONTINUOUS
10
3.4142951574803151
20
-3.6850564173228344
11
3.4143700787401574
21
-3.6854330708661416
0
LINE
8
BLACK
6
CONTINUOUS
10
3.4143700787401574
20
-3.6854330708661416
11
3.4143700787401574
21
-4.2051181102362207
0
LINE
8
BLACK
6
CONTINUOUS
10
3.4143700787401574
20
-4.2051181102362207
11
3.4142951574803151
21
-4.2054947637795275
0
LINE
8
BLACK
6
CONTINUOUS
10
3.4142951574803151
20
-4.2054947637795275
11
3.4137624803149604
21
-4.2060274409448821
0
LINE
8
BLACK
6
CONTINUOUS
10
3.4137624803149604
20
-4.2060274409448821
11
3.4133858267716533
21
-4.2061023622047244
0
LINE
8
BLACK
6
CONTINUOUS
10
3.4133858267716533
20
-4.2061023622047244
11
2.8937007874015745
21
-4.2061023622047244
0
LINE
8
BLACK
6
CONTINUOUS
10
2.8937007874015745
20
-4.2061023622047244
11
2.8933241338582678
21
-4.2060274409448821
0
LINE
8
BLACK
6
CONTINUOUS
10
2.8933241338582678
20
-4.2060274409448821
11
2.8927914566929132
21
-4.2054947637795275
0
LINE
8
BLACK
6
CONTINUOUS
10
2.8927914566929132
20
-4.2054947637795275
11
2.8927165354330708
21
-4.2051181102362207
0
LINE
8
BLACK
6
CONTINUOUS
10
2.8927165354330708
20
-4.2051181102362207
11
2.8927165354330708
21
-3.6854330708661416
0
LINE
8
BLACK
6
CONTINUOUS
10
2.8927165354330708
20
-3.6854330708661416
11
2.8927914566929132
21
-3.6850564173228344
0
LINE
8
BLACK
6
CONTINUOUS
10
2.8927914566929132
20
-3.6850564173228344
11
2.8933241338582678
21
-3.6845237401574802
0
LINE
8
BLACK
6
CONTINUOUS
10
2.8933241338582678
20
-3.6845237401574802
11
2.8937007874015745
21
-3.6844488188976379
0
LINE
8
BLACK
6
CONTINUOUS
10
2.8937007874015745
20
-3.6844488188976379
11
3.4133858267716533
21
-3.6844488188976379
0
LINE
8
BLACK
6
CONTINUOUS
10
3.4133858267716533
20
-3.6844488188976379
11
3.4137624803149604
21
-3.6845237401574802
0
LINE
8
BLACK
6
CONTINUOUS
10
2.8946850393700787
20
-3.6864173228346457
11
2.8946850393700787
21
-4.2041338582677161
0
LINE
8
BLACK
6
CONTINUOUS
10
2.8946850393700787
20
-4.2041338582677161
11
3.4124015748031495
21
-4.2041338582677161
0
LINE
8
BLACK
6
CONTINUOUS
10
3.4124015748031495
20
-4.2041338582677161
11
3.4124015748031495
21
-3.6864173228346457
0
LINE
8
BLACK
6
CONTINUOUS
10
3.4124015748031495
20
-3.6864173228346457
11
2.8946850393700787
21
-3.6864173228346457
0
LINE
8
BLACK
6
CONTINUOUS
10
4.1736050000000002
20
-3.6845237401574802
11
4.174137677165354
21
-3.6850564173228344
0
LINE
8
BLACK
6
CONTINUOUS
10
4.174137677165354
20
-3.6850564173228344
11
4.1742125984251963
21
-3.6854330708661416
0
LINE
8
BLACK
6
CONTINUOUS
10
4.1742125984251963
20
-3.6854330708661416
11
4.1742125984251963
21
-4.2051181102362207
0
LINE
8
BLACK
6
CONTINUOUS
10
4.1742125984251963
20
-4.2051181102362207
11
4.174137677165354
21
-4.2054947637795275
0
LINE
8
BLACK
6
CONTINUOUS
10
4.174137677165354
20
-4.2054947637795275
11
4.1736050000000002
21
-4.2060274409448821
0
LINE
8
BLACK
6
CONTINUOUS
10
4.1736050000000002
20
-4.2060274409448821
11
4.1732283464566926
21
-4.2061023622047244
0
LINE
8
BLACK
6
CONTINUOUS
10
4.1732283464566926
20
-4.2061023622047244
11
3.6535433070866139
21
-4.2061023622047244
0
LINE
8
BLACK
6
CONTINUOUS
10
3.6535433070866139
20
-4.2061023622047244
11
3.6531666535433072
21
-4.2060274409448821
0
LINE
8
BLACK
6
CONTINUOUS
10
3.6531666535433072
20
-4.2060274409448821
11
3.6526339763779525
21
-4.2054947637795275
0
LINE
8
BLACK
6
CONTINUOUS
10
3.6526339763779525
20
-4.2054947637795275
11
3.6525590551181102
21
-4.2051181102362207
0
LINE
8
BLACK
6
CONTINUOUS
10
3.6525590551181102
20
-4.2051181102362207
11
3.6525590551181102
21
-3.6854330708661416
0
LINE
8
BLACK
6
CONTINUOUS
10
3.6525590551181102
20
-3.6854330708661416
11
3.6526339763779525
21
-3.6850564173228344
0
LINE
8
BLACK
6
CONTINUOUS
10
3.6526339763779525
20
-3.6850564173228344
11
3.6531666535433072
21
-3.6845237401574802
0
LINE
8
BLACK
6
CONTINUOUS
10
3.6531666535433072
20
-3.6845237401574802
11
3.6535433070866139
21
-3.6844488188976379
0
LINE
8
BLACK
6
CONTINUOUS
10
3.6535433070866139
20
-3.6844488188976379
11
4.1732283464566926
21
-3.6844488188976379
0
LINE
8
BLACK
6
CONTINUOUS
10
4.1732283464566926
20
-3.6844488188976379
11
4.1736050000000002
21
-3.6845237401574802
0
LINE
8
BLACK
6
CONTINUOUS
10
3.6545275590551181
20
-3.6864173228346457
11
3.6545275590551181
21
-4.2041338582677161
0
LINE
8
BLACK
6
CONTINUOUS
10
3.6545275590551181
20
-4.2041338582677161
11
4.1722440944881889
21
-4.2041338582677161
0
LINE
8
BLACK
6
CONTINUOUS
10
4.1722440944881889
20
-4.2041338582677161
11
4.1722440944881889
21
-3.6864173228346457
0
LINE
8
BLACK
6
CONTINUOUS
10
4.1722440944881889
20
-3.6864173228346457
11
3.6545275590551181
21
-3.6864173228346457
0
LINE
8
BLACK
6
CONTINUOUS
10
4.9334475196850391
20
-3.6845237401574802
11
4.9339801968503938
21
-3.6850564173228344
0
LINE
8
BLACK
6
CONTINUOUS
10
4.9339801968503938
20
-3.6850564173228344
11
4.9340551181102361
21
-3.6854330708661416
0
LINE
8
BLACK
6
CONTINUOUS
10
4.9340551181102361
20
-3.6854330708661416
11
4.9340551181102361
21
-4.2051181102362207
0
LINE
8
BLACK
6
CONTINUOUS
10
4.9340551181102361
20
-4.2051181102362207
11
4.9339801968503938
21
-4.2054947637795275
0
LINE
8
BLACK
6
CONTINUOUS
10
4.9339801968503938
20
-4.2054947637795275
11
4.9334475196850391
21
-4.2060274409448821
0
LINE
8
BLACK
6
CONTINUOUS
10
4.9334475196850391
20
-4.2060274409448821
11
4.9330708661417324
21
-4.2061023622047244
0
LINE
8
BLACK
6
CONTINUOUS
10
4.9330708661417324
20
-4.2061023622047244
11
4.4133858267716537
21
-4.2061023622047244
0
LINE
8
BLACK
6
CONTINUOUS
10
4.4133858267716537
20
-4.2061023622047244
11
4.4130091732283461
21
-4.2060274409448821
0
LINE
8
BLACK
6
CONTINUOUS
10
4.4130091732283461
20
-4.2060274409448821
11
4.4124764960629923
21
-4.2054947637795275
0
LINE
8
BLACK
6
CONTINUOUS
10
4.4124764960629923
20
-4.2054947637795275
11
4.4124015748031491
21
-4.2051181102362207
0
LINE
8
BLACK
6
CONTINUOUS
10
4.4124015748031491
20
-4.2051181102362207
11
4.4124015748031491
21
-3.6854330708661416
0
LINE
8
BLACK
6
CONTINUOUS
10
4.4124015748031491
20
-3.6854330708661416
11
4.4124764960629923
21
-3.6850564173228344
0
LINE
8
BLACK
6
CONTINUOUS
10
4.4124764960629923
20
-3.6850564173228344
11
4.4130091732283461
21
-3.6845237401574802
0
LINE
8
BLACK
6
CONTINUOUS
10
4.4130091732283461
20
-3.6845237401574802
11
4.4133858267716537
21
-3.6844488188976379
0
LINE
8
BLACK
6
CONTINUOUS
10
4.4133858267716537
20
-3.6844488188976379
11
4.9330708661417324
21
-3.6844488188976379
0
LINE
8
BLACK
6
CONTINUOUS
10
4.9330708661417324
20
-3.6844488188976379
11
4.9334475196850391
21
-3.6845237401574802
0
LINE
8
BLACK
6
CONTINUOUS
10
4.4143700787401574
20
-3.6864173228346457
11
4.4143700787401574
21
-4.2041338582677161
0
LINE
8
BLACK
6
CONTINUOUS
10
4.4143700787401574
20
-4.2041338582677161
11
4.9320866141732278
21
-4.2041338582677161
0
LINE
8
BLACK
6
CONTINUOUS
10
4.9320866141732278
20
-4.2041338582677161
11
4.9320866141732278
21
-3.6864173228346457
0
LINE
8
BLACK
6
CONTINUOUS
10
4.9320866141732278
20
-3.6864173228346457
11
4.4143700787401574
21
-3.6864173228346457
0
LINE
8
BLACK
6
CONTINUOUS
10
5.6932900393700789
20
-3.6845237401574802
11
5.6938227165354327
21
-3.6850564173228344
0
LINE
8
BLACK
6
CONTINUOUS
10
5.6938227165354327
20
-3.6850564173228344
11
5.693897637795275
21
-3.6854330708661416
0
LINE
8
BLACK
6
CONTINUOUS
10
5.693897637795275
20
-3.6854330708661416
11
5.693897637795275
21
-4.2051181102362207
0
LINE
8
BLACK
6
CONTINUOUS
10
5.693897637795275
20
-4.2051181102362207
11
5.6938227165354327
21
-4.2054947637795275
0
LINE
8
BLACK
6
CONTINUOUS
10
5.6938227165354327
20
-4.2054947637795275
11
5.6932900393700789
21
-4.2060274409448821
0
LINE
8
BLACK
6
CONTINUOUS
10
5.6932900393700789
20
-4.2060274409448821
11
5.6929133858267713
21
-4.2061023622047244
0
LINE
8
BLACK
6
CONTINUOUS
10
5.6929133858267713
20
-4.2061023622047244
11
5.1732283464566926
21
-4.2061023622047244
0
LINE
8
BLACK
6
CONTINUOUS
10
5.1732283464566926
20
-4.2061023622047244
11
5.1728516929133859
21
-4.2060274409448821
0
LINE
8
BLACK
6
CONTINUOUS
10
5.1728516929133859
20
-4.2060274409448821
11
5.1723190157480312
21
-4.2054947637795275
0
LINE
8
BLACK
6
CONTINUOUS
10
5.1723190157480312
20
-4.2054947637795275
11
5.1722440944881889
21
-4.2051181102362207
0
LINE
8
BLACK
6
CONTINUOUS
10
5.1722440944881889
20
-4.2051181102362207
11
5.1722440944881889
21
-3.6854330708661416
0
LINE
8
BLACK
6
CONTINUOUS
10
5.1722440944881889
20
-3.6854330708661416
11
5.1723190157480312
21
-3.6850564173228344
0
LINE
8
BLACK
6
CONTINUOUS
10
5.1723190157480312
20
-3.6850564173228344
11
5.1728516929133859
21
-3.6845237401574802
0
LINE
8
BLACK
6
CONTINUOUS
10
5.1728516929133859
20
-3.6845237401574802
11
5.1732283464566926
21
-3.6844488188976379
0
LINE
8
BLACK
6
CONTINUOUS
10
5.1732283464566926
20
-3.6844488188976379
11
5.6929133858267713
21
-3.6844488188976379
0
LINE
8
BLACK
6
CONTINUOUS
10
5.6929133858267713
20
-3.6844488188976379
11
5.6932900393700789
21
-3.6845237401574802
0
LINE
8
BLACK
6
CONTINUOUS
10
5.1742125984251963
20
-3.6864173228346457
11
5.1742125984251963
21
-4.2041338582677161
0
LINE
8
BLACK
6
CONTINUOUS
10
5.1742125984251963
20
-4.2041338582677161
11
5.6919291338582676
21
-4.2041338582677161
0
LINE
8
BLACK
6
CONTINUOUS
10
5.6919291338582676
20
-4.2041338582677161
11
5.6919291338582676
21
-3.6864173228346457
0
LINE
8
BLACK
6
CONTINUOUS
10
5.6919291338582676
20
-3.6864173228346457
11
5.1742125984251963
21
-3.6864173228346457
0
LINE
8
BLACK
6
CONTINUOUS
10
6.4531325590551178
20
-3.6845237401574802
11
6.4536652362204725
21
-3.6850564173228344
0
LINE
8
BLACK
6
CONTINUOUS
10
6.4536652362204725
20
-3.6850564173228344
11
6.4537401574803148
21
-3.6854330708661416
0
LINE
8
BLACK
6
CONTINUOUS
10
6.4537401574803148
20
-3.6854330708661416
11
6.4537401574803148
21
-4.2051181102362207
0
LINE
8
BLACK
6
CONTINUOUS
10
6.4537401574803148
20
-4.2051181102362207
11
6.4536652362204725
21
-4.2054947637795275
0
LINE
8
BLACK
6
CONTINUOUS
10
6.4536652362204725
20
-4.2054947637795275
11
6.4531325590551178
21
-4.2060274409448821
0
LINE
8
BLACK
6
CONTINUOUS
10
6.4531325590551178
20
-4.2060274409448821
11
6.4527559055118111
21
-4.2061023622047244
0
LINE
8
BLACK
6
CONTINUOUS
10
6.4527559055118111
20
-4.2061023622047244
11
5.9330708661417324
21
-4.2061023622047244
0
LINE
8
BLACK
6
CONTINUOUS
10
5.9330708661417324
20
-4.2061023622047244
11
5.9326942125984248
21
-4.2060274409448821
0
LINE
8
BLACK
6
CONTINUOUS
10
5.9326942125984248
20
-4.2060274409448821
11
5.932161535433071
21
-4.2054947637795275
0
LINE
8
BLACK
6
CONTINUOUS
10
5.932161535433071
20
-4.2054947637795275
11
5.9320866141732278
21
-4.2051181102362207
0
LINE
8
BLACK
6
CONTINUOUS
10
5.9320866141732278
20
-4.2051181102362207
11
5.9320866141732278
21
-3.6854330708661416
0
LINE
8
BLACK
6
CONTINUOUS
10
5.9320866141732278
20
-3.6854330708661416
11
5.932161535433071
21
-3.6850564173228344
0
LINE
8
BLACK
6
CONTINUOUS
10
5.932161535433071
20
-3.6850564173228344
11
5.9326942125984248
21
-3.6845237401574802
0
LINE
8
BLACK
6
CONTINUOUS
10
5.9326942125984248
20
-3.6845237401574802
11
5.9330708661417324
21
-3.6844488188976379
0
LINE
8
BLACK
6
CONTINUOUS
10
5.9330708661417324
20
-3.6844488188976379
11
6.4527559055118111
21
-3.6844488188976379
0
LINE
8
BLACK
6
CONTINUOUS
10
6.4527559055118111
20
-3.6844488188976379
11
6.4531325590551178
21
-3.6845237401574802
0
LINE
8
BLACK
6
CONTINUOUS
10
5.9340551181102361
20
-3.6864173228346457
11
5.9340551181102361
21
-4.2041338582677161
0
LINE
8
BLACK
6
CONTINUOUS
10
5.9340551181102361
20
-4.2041338582677161
11
6.4517716535433065
21
-4.2041338582677161
0
LINE
8
BLACK
6
CONTINUOUS
10
6.4517716535433065
20
-4.2041338582677161
11
6.4517716535433065
21
-3.6864173228346457
0
LINE
8
BLACK
6
CONTINUOUS
10
6.4517716535433065
20
-3.6864173228346457
11
5.9340551181102361
21
-3.6864173228346457
0
LINE
8
BLACK
6
CONTINUOUS
10
7.2129750787401576
20
-3.6845237401574802
11
7.2135077559055114
21
-3.6850564173228344
0
LINE
8
BLACK
6
CONTINUOUS
10
7.2135077559055114
20
-3.6850564173228344
11
7.2135826771653537
21
-3.6854330708661416
0
LINE
8
BLACK
6
CONTINUOUS
10
7.2135826771653537
20
-3.6854330708661416
11
7.2135826771653537
21
-4.2051181102362207
0
LINE
8
BLACK
6
CONTINUOUS
10
7.2135826771653537
20
-4.2051181102362207
11
7.2135077559055114
21
-4.2054947637795275
0
LINE
8
BLACK
6
CONTINUOUS
10
7.2135077559055114
20
-4.2054947637795275
11
7.2129750787401576
21
-4.2060274409448821
0
LINE
8
BLACK
6
CONTINUOUS
10
7.2129750787401576
20
-4.2060274409448821
11
7.21259842519685
21
-4.2061023622047244
0
LINE
8
BLACK
6
CONTINUOUS
10
7.21259842519685
20
-4.2061023622047244
11
6.6929133858267713
21
-4.2061023622047244
0
LINE
8
BLACK
6
CONTINUOUS
10
6.6929133858267713
20
-4.2061023622047244
11
6.6925367322834646
21
-4.2060274409448821
0
LINE
8
BLACK
6
CONTINUOUS
10
6.6925367322834646
20
-4.2060274409448821
11
6.6920040551181099
21
-4.2054947637795275
0
LINE
8
BLACK
6
CONTINUOUS
10
6.6920040551181099
20
-4.2054947637795275
11
6.6919291338582676
21
-4.2051181102362207
0
LINE
8
BLACK
6
CONTINUOUS
10
6.6919291338582676
20
-4.2051181102362207
11
6.6919291338582676
21
-3.6854330708661416
0
LINE
8
BLACK
6
CONTINUOUS
10
6.6919291338582676
20
-3.6854330708661416
11
6.6920040551181099
21
-3.6850564173228344
0
LINE
8
BLACK
6
CONTINUOUS
10
6.6920040551181099
20
-3.6850564173228344
11
6.6925367322834646
21
-3.6845237401574802
0
LINE
8
BLACK
6
CONTINUOUS
10
6.6925367322834646
20
-3.6845237401574802
11
6.6929133858267713
21
-3.6844488188976379
0
LINE
8
BLACK
6
CONTINUOUS
10
6.6929133858267713
20
-3.6844488188976379
11
7.21259842519685
21
-3.6844488188976379
0
LINE
8
BLACK
6
CONTINUOUS
10
7.21259842519685
20
-3.6844488188976379
11
7.2129750787401576
21
-3.6845237401574802
0
LINE
8
BLACK
6
CONTINUOUS
10
6.693897637795275
20
-3.6864173228346457
11
6.693897637795275
21
-4.2041338582677161
0
LINE
8
BLACK
6
CONTINUOUS
10
6.693897637795275
20
-4.2041338582677161
11
7.2116141732283463
21
-4.2041338582677161
0
LINE
8
BLACK
6
CONTINUOUS
10
7.2116141732283463
20
-4.2041338582677161
11
7.2116141732283463
21
-3.6864173228346457
0
LINE
8
BLACK
6
CONTINUOUS
10
7.2116141732283463
20
-3.6864173228346457
11
6.693897637795275
21
-3.6864173228346457
0
LINE
8
BLACK
6
CONTINUOUS
10
7.9728175984251966
20
-3.6845237401574802
11
7.9733502755905512
21
-3.6850564173228344
0
LINE
8
BLACK
6
CONTINUOUS
10
7.9733502755905512
20
-3.6850564173228344
11
7.9734251968503935
21
-3.6854330708661416
0
LINE
8
BLACK
6
CONTINUOUS
10
7.9734251968503935
20
-3.6854330708661416
11
7.9734251968503935
21
-4.2051181102362207
0
LINE
8
BLACK
6
CONTINUOUS
10
7.9734251968503935
20
-4.2051181102362207
11
7.9733502755905512
21
-4.2054947637795275
0
LINE
8
BLACK
6
CONTINUOUS
10
7.9733502755905512
20
-4.2054947637795275
11
7.9728175984251966
21
-4.2060274409448821
0
LINE
8
BLACK
6
CONTINUOUS
10
7.9728175984251966
20
-4.2060274409448821
11
7.9724409448818898
21
-4.2061023622047244
0
LINE
8
BLACK
6
CONTINUOUS
10
7.9724409448818898
20
-4.2061023622047244
11
7.4527559055118111
21
-4.2061023622047244
0
LINE
8
BLACK
6
CONTINUOUS
10
7.4527559055118111
20
-4.2061023622047244
11
7.4523792519685035
21
-4.2060274409448821
0
LINE
8
BLACK
6
CONTINUOUS
10
7.4523792519685035
20
-4.2060274409448821
11
7.4518465748031497
21
-4.2054947637795275
0
LINE
8
BLACK
6
CONTINUOUS
10
7.4518465748031497
20
-4.2054947637795275
11
7.4517716535433065
21
-4.2051181102362207
0
LINE
8
BLACK
6
CONTINUOUS
10
7.4517716535433065
20
-4.2051181102362207
11
7.4517716535433065
21
-3.6854330708661416
0
LINE
8
BLACK
6
CONTINUOUS
10
7.4517716535433065
20
-3.6854330708661416
11
7.4518465748031497
21
-3.6850564173228344
0
LINE
8
BLACK
6
CONTINUOUS
10
7.4518465748031497
20
-3.6850564173228344
11
7.4523792519685035
21
-3.6845237401574802
0
LINE
8
BLACK
6
CONTINUOUS
10
7.4523792519685035
20
-3.6845237401574802
11
7.4527559055118111
21
-3.6844488188976379
0
LINE
8
BLACK
6
CONTINUOUS
10
7.4527559055118111
20
-3.6844488188976379
11
7.9724409448818898
21
-3.6844488188976379
0
LINE
8
BLACK
6
CONTINUOUS
10
7.9724409448818898
20
-3.6844488188976379
11
7.9728175984251966
21
-3.6845237401574802
0
LINE
8
BLACK
6
CONTINUOUS
10
7.4537401574803148
20
-3.6864173228346457
11
7.4537401574803148
21
-4.2041338582677161
0
LINE
8
BLACK
6
CONTINUOUS
10
7.4537401574803148
20
-4.2041338582677161
11
7.9714566929133852
21
-4.2041338582677161
0
LINE
8
BLACK
6
CONTINUOUS
10
7.9714566929133852
20
-4.2041338582677161
11
7.9714566929133852
21
-3.6864173228346457
0
LINE
8
BLACK
6
CONTINUOUS
10
7.9714566929133852
20
-3.6864173228346457
11
7.4537401574803148
21
-3.6864173228346457
0
LINE
8
BLACK
6
CONTINUOUS
10
5.0243924015748034
20
-1.198696968503937
11
5.0249250787401571
21
-1.1992296456692912
0
LINE
8
BLACK
6
CONTINUOUS
10
5.0249250787401571
20
-1.1992296456692912
11
5.0249999999999995
21
-1.1996062992125984
0
LINE
8
BLACK
6
CONTINUOUS
10
5.0249999999999995
20
-1.1996062992125984
11
5.0249999999999995
21
-3.2074803149606299
0
LINE
8
BLACK
6
CONTINUOUS
10
5.0249999999999995
20
-3.2074803149606299
11
5.0249250787401571
21
-3.2078569685039371
0
LINE
8
BLACK
6
CONTINUOUS
10
5.0249250787401571
20
-3.2078569685039371
11
5.0243924015748034
21
-3.2083896456692913
0
LINE
8
BLACK
6
CONTINUOUS
10
5.0243924015748034
20
-3.2083896456692913
11
5.0240157480314958
21
-3.2084645669291336
0
LINE
8
BLACK
6
CONTINUOUS
10
5.0240157480314958
20
-3.2084645669291336
11
1.8350393700787402
21
-3.2084645669291336
0
LINE
8
BLACK
6
CONTINUOUS
10
1.8350393700787402
20
-3.2084645669291336
11
1.834662716535433
21
-3.2083896456692913
0
LINE
8
BLACK
6
CONTINUOUS
10
1.834662716535433
20
-3.2083896456692913
11
1.8341300393700788
21
-3.2078569685039371
0
LINE
8
BLACK
6
CONTINUOUS
10
1.8341300393700788
20
-3.2078569685039371
11
1.8340551181102362
21
-3.2074803149606299
0
LINE
8
BLACK
6
CONTINUOUS
10
1.8340551181102362
20
-3.2074803149606299
11
1.8340551181102362
21
-1.1996062992125984
0
LINE
8
BLACK
6
CONTINUOUS
10
1.8340551181102362
20
-1.1996062992125984
11
1.8341300393700788
21
-1.1992296456692912
0
LINE
8
BLACK
6
CONTINUOUS
10
1.8341300393700788
20
-1.1992296456692912
11
1.834662716535433
21
-1.198696968503937
0
LINE
8
BLACK
6
CONTINUOUS
10
1.834662716535433
20
-1.198696968503937
11
1.8350393700787402
21
-1.1986220472440945
0
LINE
8
BLACK
6
CONTINUOUS
10
1.8350393700787402
20
-1.1986220472440945
11
5.0240157480314958
21
-1.1986220472440945
0
LINE
8
BLACK
6
CONTINUOUS
10
5.0240157480314958
20
-1.1986220472440945
11
5.0243924015748034
21
-1.198696968503937
0
LINE
8
BLACK
6
CONTINUOUS
10
1.8360236220472441
20
-1.2005905511811024
11
1.8360236220472441
21
-3.2064960629921258
0
LINE
8
BLACK
6
CONTINUOUS
10
1.8360236220472441
20
-3.2064960629921258
11
5.023031496062992
21
-3.2064960629921258
0
LINE
8
BLACK
6
CONTINUOUS
10
5.023031496062992
20
-3.2064960629921258
11
5.023031496062992
21
-1.2005905511811024
0
LINE
8
BLACK
6
CONTINUOUS
10
5.023031496062992
20
-1.2005905511811024
11
1.8360236220472441
21
-1.2005905511811024
0
LINE
8
BLACK
6
CONTINUOUS
10
5.706282165354331
20
-2.2612953937007871
11
5.7068148425196847
21
-2.2618280708661418
0
LINE
8
BLACK
6
CONTINUOUS
10
5.7068148425196847
20
-2.2618280708661418
11
5.7068897637795271
21
-2.262204724409449
0
LINE
8
BLACK
6
CONTINUOUS
10
5.7068897637795271
20
-2.262204724409449
11
5.7068897637795271
21
-2.8291338582677166
0
LINE
8
BLACK
6
CONTINUOUS
10
5.7068897637795271
20
-2.8291338582677166
11
5.7068148425196847
21
-2.8295105118110238
0
LINE
8
BLACK
6
CONTINUOUS
10
5.7068148425196847
20
-2.8295105118110238
11
5.706282165354331
21
-2.830043188976378
0
LINE
8
BLACK
6
CONTINUOUS
10
5.706282165354331
20
-2.830043188976378
11
5.7059055118110233
21
-2.8301181102362203
0
LINE
8
BLACK
6
CONTINUOUS
10
5.7059055118110233
20
-2.8301181102362203
11
5.1822834645669289
21
-2.8301181102362203
0
LINE
8
BLACK
6
CONTINUOUS
10
5.1822834645669289
20
-2.8301181102362203
11
5.1819068110236222
21
-2.830043188976378
0
LINE
8
BLACK
6
CONTINUOUS
10
5.1819068110236222
20
-2.830043188976378
11
5.1813741338582675
21
-2.8295105118110238
0
LINE
8
BLACK
6
CONTINUOUS
10
5.1813741338582675
20
-2.8295105118110238
11
5.1812992125984252
21
-2.8291338582677166
0
LINE
8
BLACK
6
CONTINUOUS
10
5.1812992125984252
20
-2.8291338582677166
11
5.1812992125984252
21
-2.262204724409449
0
LINE
8
BLACK
6
CONTINUOUS
10
5.1812992125984252
20
-2.262204724409449
11
5.1813741338582675
21
-2.2618280708661418
0
LINE
8
BLACK
6
CONTINUOUS
10
5.1813741338582675
20
-2.2618280708661418
11
5.1819068110236222
21
-2.2612953937007871
0
LINE
8
BLACK
6
CONTINUOUS
10
5.1819068110236222
20
-2.2612953937007871
11
5.1822834645669289
21
-2.2612204724409448
0
LINE
8
BLACK
6
CONTINUOUS
10
5.1822834645669289
20
-2.2612204724409448
11
5.7059055118110233
21
-2.2612204724409448
0
LINE
8
BLACK
6
CONTINUOUS
10
5.7059055118110233
20
-2.2612204724409448
11
5.706282165354331
21
-2.2612953937007871
0
LINE
8
BLACK
6
CONTINUOUS
10
5.1832677165354326
20
-2.2631889763779527
11
5.1832677165354326
21
-2.8281496062992124
0
LINE
8
BLACK
6
CONTINUOUS
10
5.1832677165354326
20
-2.8281496062992124
11
5.7049212598425196
21
-2.8281496062992124
0
LINE
8
BLACK
6
CONTINUOUS
10
5.7049212598425196
20
-2.8281496062992124
11
5.7049212598425196
21
-2.2631889763779527
0
LINE
8
BLACK
6
CONTINUOUS
10
5.7049212598425196
20
-2.2631889763779527
11
5.1832677165354326
21
-2.2631889763779527
0
LINE
8
BLACK
6
CONTINUOUS
10
6.8460459448818893
20
-2.2612953937007871
11
6.846578622047244
21
-2.2618280708661418
0
LINE
8
BLACK
6
CONTINUOUS
10
6.846578622047244
20
-2.2618280708661418
11
6.8466535433070863
21
-2.262204724409449
0
LINE
8
BLACK
6
CONTINUOUS
10
6.8466535433070863
20
-2.262204724409449
11
6.8466535433070863
21
-2.8291338582677166
0
LINE
8
BLACK
6
CONTINUOUS
10
6.8466535433070863
20
-2.8291338582677166
11
6.846578622047244
21
-2.8295105118110238
0
LINE
8
BLACK
6
CONTINUOUS
10
6.846578622047244
20
-2.8295105118110238
11
6.8460459448818893
21
-2.830043188976378
0
LINE
8
BLACK
6
CONTINUOUS
10
6.8460459448818893
20
-2.830043188976378
11
6.8456692913385826
21
-2.8301181102362203
0
LINE
8
BLACK
6
CONTINUOUS
10
6.8456692913385826
20
-2.8301181102362203
11
6.3220472440944881
21
-2.8301181102362203
0
LINE
8
BLACK
6
CONTINUOUS
10
6.3220472440944881
20
-2.8301181102362203
11
6.3216705905511805
21
-2.830043188976378
0
LINE
8
BLACK
6
CONTINUOUS
10
6.3216705905511805
20
-2.830043188976378
11
6.3211379133858268
21
-2.8295105118110238
0
LINE
8
BLACK
6
CONTINUOUS
10
6.3211379133858268
20
-2.8295105118110238
11
6.3210629921259844
21
-2.8291338582677166
0
LINE
8
BLACK
6
CONTINUOUS
10
6.3210629921259844
20
-2.8291338582677166
11
6.3210629921259844
21
-2.262204724409449
0
LINE
8
BLACK
6
CONTINUOUS
10
6.3210629921259844
20
-2.262204724409449
11
6.3211379133858268
21
-2.2618280708661418
0
LINE
8
BLACK
6
CONTINUOUS
10
6.3211379133858268
20
-2.2618280708661418
11
6.3216705905511805
21
-2.2612953937007871
0
LINE
8
BLACK
6
CONTINUOUS
10
6.3216705905511805
20
-2.2612953937007871
11
6.3220472440944881
21
-2.2612204724409448
0
LINE
8
BLACK
6
CONTINUOUS
10
6.3220472440944881
20
-2.2612204724409448
11
6.8456692913385826
21
-2.2612204724409448
0
LINE
8
BLACK
6
CONTINUOUS
10
6.8456692913385826
20
-2.2612204724409448
11
6.8460459448818893
21
-2.2612953937007871
0
LINE
8
BLACK
6
CONTINUOUS
10
6.3230314960629919
20
-2.2631889763779527
11
6.3230314960629919
21
-2.8281496062992124
0
LINE
8
BLACK
6
CONTINUOUS
10
6.3230314960629919
20
-2.8281496062992124
11
6.8446850393700789
21
-2.8281496062992124
0
LINE
8
BLACK
6
CONTINUOUS
10
6.8446850393700789
20
-2.8281496062992124
11
6.8446850393700789
21
-2.2631889763779527
0
LINE
8
BLACK
6
CONTINUOUS
10
6.8446850393700789
20
-2.2631889763779527
11
6.3230314960629919
21
-2.2631889763779527
0
LINE
8
BLACK
6
CONTINUOUS
10
7.9858097244094486
20
-2.2612953937007871
11
7.9863424015748032
21
-2.2618280708661418
0
LINE
8
BLACK
6
CONTINUOUS
10
7.9863424015748032
20
-2.2618280708661418
11
7.9864173228346456
21
-2.262204724409449
0
LINE
8
BLACK
6
CONTINUOUS
10
7.9864173228346456
20
-2.262204724409449
11
7.9864173228346456
21
-2.8291338582677166
0
LINE
8
BLACK
6
CONTINUOUS
10
7.9864173228346456
20
-2.8291338582677166
11
7.9863424015748032
21
-2.8295105118110238
0
LINE
8
BLACK
6
CONTINUOUS
10
7.9863424015748032
20
-2.8295105118110238
11
7.9858097244094486
21
-2.830043188976378
0
LINE
8
BLACK
6
CONTINUOUS
10
7.9858097244094486
20
-2.830043188976378
11
7.9854330708661418
21
-2.8301181102362203
0
LINE
8
BLACK
6
CONTINUOUS
10
7.9854330708661418
20
-2.8301181102362203
11
7.4618110236220474
21
-2.8301181102362203
0
LINE
8
BLACK
6
CONTINUOUS
10
7.4618110236220474
20
-2.8301181102362203
11
7.4614343700787398
21
-2.830043188976378
0
LINE
8
BLACK
6
CONTINUOUS
10
7.4614343700787398
20
-2.830043188976378
11
7.460901692913386
21
-2.8295105118110238
0
LINE
8
BLACK
6
CONTINUOUS
10
7.460901692913386
20
-2.8295105118110238
11
7.4608267716535428
21
-2.8291338582677166
0
LINE
8
BLACK
6
CONTINUOUS
10
7.4608267716535428
20
-2.8291338582677166
11
7.4608267716535428
21
-2.262204724409449
0
LINE
8
BLACK
6
CONTINUOUS
10
7.4608267716535428
20
-2.262204724409449
11
7.460901692913386
21
-2.2618280708661418
0
LINE
8
BLACK
6
CONTINUOUS
10
7.460901692913386
20
-2.2618280708661418
11
7.4614343700787398
21
-2.2612953937007871
0
LINE
8
BLACK
6
CONTINUOUS
10
7.4614343700787398
20
-2.2612953937007871
11
7.4618110236220474
21
-2.2612204724409448
0
LINE
8
BLACK
6
CONTINUOUS
10
7.4618110236220474
20
-2.2612204724409448
11
7.9854330708661418
21
-2.2612204724409448
0
LINE
8
BLACK
6
CONTINUOUS
10
7.9854330708661418
20
-2.2612204724409448
11
7.9858097244094486
21
-2.2612953937007871
0
LINE
8
BLACK
6
CONTINUOUS
10
7.4627952755905511
20
-2.2631889763779527
11
7.4627952755905511
21
-2.8281496062992124
0
LINE
8
BLACK
6
CONTINUOUS
10
7.4627952755905511
20
-2.8281496062992124
11
7.9844488188976372
21
-2.8281496062992124
0
LINE
8
BLACK
6
CONTINUOUS
10
7.9844488188976372
20
-2.8281496062992124
11
7.9844488188976372
21
-2.2631889763779527
0
LINE
8
BLACK
6
CONTINUOUS
10
7.9844488188976372
20
-2.2631889763779527
11
7.4627952755905511
21
-2.2631889763779527
0
LINE
8
BLACK
6
CONTINUOUS
10
5.6413215354330708
20
-1.2152324015748031
11
5.6418542125984255
21
-1.2157650787401575
0
LINE
8
BLACK
6
CONTINUOUS
10
5.6418542125984255
20
-1.2157650787401575
11
5.6419291338582678
21
-1.2161417322834644
0
LINE
8
BLACK
6
CONTINUOUS
10
5.6419291338582678
20
-1.2161417322834644
11
5.6419291338582678
21
-1.7830708661417323
0
LINE
8
BLACK
6
CONTINUOUS
10
5.6419291338582678
20
-1.7830708661417323
11
5.6418542125984255
21
-1.7834475196850392
0
LINE
8
BLACK
6
CONTINUOUS
10
5.6418542125984255
20
-1.7834475196850392
11
5.6413215354330708
21
-1.7839801968503937
0
LINE
8
BLACK
6
CONTINUOUS
10
5.6413215354330708
20
-1.7839801968503937
11
5.6409448818897641
21
-1.7840551181102362
0
LINE
8
BLACK
6
CONTINUOUS
10
5.6409448818897641
20
-1.7840551181102362
11
5.2472440944881891
21
-1.7840551181102362
0
LINE
8
BLACK
6
CONTINUOUS
10
5.2472440944881891
20
-1.7840551181102362
11
5.2468674409448814
21
-1.7839801968503937
0
LINE
8
BLACK
6
CONTINUOUS
10
5.2468674409448814
20
-1.7839801968503937
11
5.2463347637795277
21
-1.7834475196850392
0
LINE
8
BLACK
6
CONTINUOUS
10
5.2463347637795277
20
-1.7834475196850392
11
5.2462598425196854
21
-1.7830708661417323
0
LINE
8
BLACK
6
CONTINUOUS
10
5.2462598425196854
20
-1.7830708661417323
11
5.2462598425196854
21
-1.2161417322834644
0
LINE
8
BLACK
6
CONTINUOUS
10
5.2462598425196854
20
-1.2161417322834644
11
5.2463347637795277
21
-1.2157650787401575
0
LINE
8
BLACK
6
CONTINUOUS
10
5.2463347637795277
20
-1.2157650787401575
11
5.2468674409448814
21
-1.2152324015748031
0
LINE
8
BLACK
6
CONTINUOUS
10
5.2468674409448814
20
-1.2152324015748031
11
5.2472440944881891
21
-1.2151574803149605
0
LINE
8
BLACK
6
CONTINUOUS
10
5.2472440944881891
20
-1.2151574803149605
11
5.6409448818897641
21
-1.2151574803149605
0
LINE
8
BLACK
6
CONTINUOUS
10
5.6409448818897641
20
-1.2151574803149605
11
5.6413215354330708
21
-1.2152324015748031
0
LINE
8
BLACK
6
CONTINUOUS
10
5.2482283464566928
20
-1.2171259842519684
11
5.2482283464566928
21
-1.7820866141732283
0
LINE
8
BLACK
6
CONTINUOUS
10
5.2482283464566928
20
-1.7820866141732283
11
5.6399606299212595
21
-1.7820866141732283
0
LINE
8
BLACK
6
CONTINUOUS
10
5.6399606299212595
20
-1.7820866141732283
11
5.6399606299212595
21
-1.2171259842519684
0
LINE
8
BLACK
6
CONTINUOUS
10
5.6399606299212595
20
-1.2171259842519684
11
5.2482283464566928
21
-1.2171259842519684
0
LINE
8
BLACK
6
CONTINUOUS
10
6.7810853149606301
20
-1.2152324015748031
11
6.7816179921259838
21
-1.2157650787401575
0
LINE
8
BLACK
6
CONTINUOUS
10
6.7816179921259838
20
-1.2157650787401575
11
6.781692913385827
21
-1.2161417322834644
0
LINE
8
BLACK
6
CONTINUOUS
10
6.781692913385827
20
-1.2161417322834644
11
6.781692913385827
21
-1.7830708661417323
0
LINE
8
BLACK
6
CONTINUOUS
10
6.781692913385827
20
-1.7830708661417323
11
6.7816179921259838
21
-1.7834475196850392
0
LINE
8
BLACK
6
CONTINUOUS
10
6.7816179921259838
20
-1.7834475196850392
11
6.7810853149606301
21
-1.7839801968503937
0
LINE
8
BLACK
6
CONTINUOUS
10
6.7810853149606301
20
-1.7839801968503937
11
6.7807086614173224
21
-1.7840551181102362
0
LINE
8
BLACK
6
CONTINUOUS
10
6.7807086614173224
20
-1.7840551181102362
11
6.3870078740157483
21
-1.7840551181102362
0
LINE
8
BLACK
6
CONTINUOUS
10
6.3870078740157483
20
-1.7840551181102362
11
6.3866312204724407
21
-1.7839801968503937
0
LINE
8
BLACK
6
CONTINUOUS
10
6.3866312204724407
20
-1.7839801968503937
11
6.386098543307086
21
-1.7834475196850392
0
LINE
8
BLACK
6
CONTINUOUS
10
6.386098543307086
20
-1.7834475196850392
11
6.3860236220472437
21
-1.7830708661417323
0
LINE
8
BLACK
6
CONTINUOUS
10
6.3860236220472437
20
-1.7830708661417323
11
6.3860236220472437
21
-1.2161417322834644
0
LINE
8
BLACK
6
CONTINUOUS
10
6.3860236220472437
20
-1.2161417322834644
11
6.386098543307086
21
-1.2157650787401575
0
LINE
8
BLACK
6
CONTINUOUS
10
6.386098543307086
20
-1.2157650787401575
11
6.3866312204724407
21
-1.2152324015748031
0
LINE
8
BLACK
6
CONTINUOUS
10
6.3866312204724407
20
-1.2152324015748031
11
6.3870078740157483
21
-1.2151574803149605
0
LINE
8
BLACK
6
CONTINUOUS
10
6.3870078740157483
20
-1.2151574803149605
11
6.7807086614173224
21
-1.2151574803149605
0
LINE
8
BLACK
6
CONTINUOUS
10
6.7807086614173224
20
-1.2151574803149605
11
6.7810853149606301
21
-1.2152324015748031
0
LINE
8
BLACK
6
CONTINUOUS
10
6.387992125984252
20
-1.2171259842519684
11
6.387992125984252
21
-1.7820866141732283
0
LINE
8
BLACK
6
CONTINUOUS
10
6.387992125984252
20
-1.7820866141732283
11
6.7797244094488187
21
-1.7820866141732283
0
LINE
8
BLACK
6
CONTINUOUS
10
6.7797244094488187
20
-1.7820866141732283
11
6.7797244094488187
21
-1.2171259842519684
0
LINE
8
BLACK
6
CONTINUOUS
10
6.7797244094488187
20
-1.2171259842519684
11
6.387992125984252
21
-1.2171259842519684
0
LINE
8
BLACK
6
CONTINUOUS
10
7.8440774409448819
20
-1.3431851574803149
11
7.8446101181102357
21
-1.3437178346456693
0
LINE
8
BLACK
6
CONTINUOUS
10
7.8446101181102357
20
-1.3437178346456693
11
7.8446850393700789
21
-1.3440944881889763
0
LINE
8
BLACK
6
CONTINUOUS
10
7.8446850393700789
20
-1.3440944881889763
11
7.8446850393700789
21
-1.7102362204724408
0
LINE
8
BLACK
6
CONTINUOUS
10
7.8446850393700789
20
-1.7102362204724408
11
7.8446101181102357
21
-1.710612874015748
0
LINE
8
BLACK
6
CONTINUOUS
10
7.8446101181102357
20
-1.710612874015748
11
7.8440774409448819
21
-1.7111455511811022
0
LINE
8
BLACK
6
CONTINUOUS
10
7.8440774409448819
20
-1.7111455511811022
11
7.8437007874015743
21
-1.7112204724409448
0
LINE
8
BLACK
6
CONTINUOUS
10
7.8437007874015743
20
-1.7112204724409448
11
7.6035433070866141
21
-1.7112204724409448
0
LINE
8
BLACK
6
CONTINUOUS
10
7.6035433070866141
20
-1.7112204724409448
11
7.6031666535433073
21
-1.7111455511811022
0
LINE
8
BLACK
6
CONTINUOUS
10
7.6031666535433073
20
-1.7111455511811022
11
7.6026339763779527
21
-1.710612874015748
0
LINE
8
BLACK
6
CONTINUOUS
10
7.6026339763779527
20
-1.710612874015748
11
7.6025590551181104
21
-1.7102362204724408
0
LINE
8
BLACK
6
CONTINUOUS
10
7.6025590551181104
20
-1.7102362204724408
11
7.6025590551181104
21
-1.3440944881889763
0
LINE
8
BLACK
6
CONTINUOUS
10
7.6025590551181104
20
-1.3440944881889763
11
7.6026339763779527
21
-1.3437178346456693
0
LINE
8
BLACK
6
CONTINUOUS
10
7.6026339763779527
20
-1.3437178346456693
11
7.6031666535433073
21
-1.3431851574803149
0
LINE
8
BLACK
6
CONTINUOUS
10
7.6031666535433073
20
-1.3431851574803149
11
7.6035433070866141
21
-1.3431102362204723
0
LINE
8
BLACK
6
CONTINUOUS
10
7.6035433070866141
20
-1.3431102362204723
11
7.8437007874015743
21
-1.3431102362204723
0
LINE
8
BLACK
6
CONTINUOUS
10
7.8437007874015743
20
-1.3431102362204723
11
7.8440774409448819
21
-1.3431851574803149
0
LINE
8
BLACK
6
CONTINUOUS
10
7.6045275590551178
20
-1.3450787401574802
11
7.6045275590551178
21
-1.7092519685039369
0
LINE
8
BLACK
6
CONTINUOUS
10
7.6045275590551178
20
-1.7092519685039369
11
7.8427165354330706
21
-1.7092519685039369
0
LINE
8
BLACK
6
CONTINUOUS
10
7.8427165354330706
20
-1.7092519685039369
11
7.8427165354330706
21
-1.3450787401574802
0
LINE
8
BLACK
6
CONTINUOUS
10
7.8427165354330706
20
-1.3450787401574802
11
7.6045275590551178
21
-1.3450787401574802
0
LINE
8
BLACK
6
CONTINUOUS
10
1.8604353543307086
20
-1.017673622047244
11
1.870508464566929
21
-1.0203726771653543
0
LINE
8
BLACK
6
CONTINUOUS
10
1.870508464566929
20
-1.0203726771653543
11
1.8801431102362205
21
-1.0243635039370078
0
LINE
8
BLACK
6
CONTINUOUS
10
1.8801431102362205
20
-1.0243635039370078
11
1.8891744094488188
21
-1.029577716535433
0
LINE
8
BLACK
6
CONTINUOUS
10
1.8891744094488188
20
-1.029577716535433
11
1.8974478346456694
21
-1.0359261417322834
0
LINE
8
BLACK
6
CONTINUOUS
10
1.8974478346456694
20
-1.0359261417322834
11
1.9048218897637794
21
-1.0433001968503937
0
LINE
8
BLACK
6
CONTINUOUS
10
1.9048218897637794
20
-1.0433001968503937
11
1.9111703149606298
21
-1.051573622047244
0
LINE
8
BLACK
6
CONTINUOUS
10
1.9111703149606298
20
-1.051573622047244
11
1.916384527559055
21
-1.0606049212598425
0
LINE
8
BLACK
6
CONTINUOUS
10
1.916384527559055
20
-1.0606049212598425
11
1.9203753543307087
21
-1.0702395669291338
0
LINE
8
BLACK
6
CONTINUOUS
10
1.9203753543307087
20
-1.0702395669291338
11
1.9230744094488188
21
-1.0803126771653544
0
LINE
8
BLACK
6
CONTINUOUS
10
1.9230744094488188
20
-1.0803126771653544
11
1.924435590551181
21
-1.0906519291338583
0
LINE
8
BLACK
6
CONTINUOUS
10
1.924435590551181
20
-1.0906519291338583
11
1.924435590551181
21
-1.1010803543307086
0
LINE
8
BLACK
6
CONTINUOUS
10
1.924435590551181
20
-1.1010803543307086
11
1.9230744094488188
21
-1.1114196062992125
0
LINE
8
BLACK
6
CONTINUOUS
10
1.9230744094488188
20
-1.1114196062992125
11
1.9203753543307087
21
-1.1214927165354331
0
LINE
8
BLACK
6
CONTINUOUS
10
1.9203753543307087
20
-1.1214927165354331
11
1.916384527559055
21
-1.1311273622047244
0
LINE
8
BLACK
6
CONTINUOUS
10
1.916384527559055
20
-1.1311273622047244
11
1.9111703149606298
21
-1.1401586614173229
0
LINE
8
BLACK
6
CONTINUOUS
10
1.9111703149606298
20
-1.1401586614173229
11
1.9048218897637794
21
-1.1484320866141733
0
LINE
8
BLACK
6
CONTINUOUS
10
1.9048218897637794
20
-1.1484320866141733
11
1.8974478346456694
21
-1.1558061417322834
0
LINE
8
BLACK
6
CONTINUOUS
10
1.8974478346456694
20
-1.1558061417322834
11
1.8891744094488188
21
-1.1621545669291338
0
LINE
8
BLACK
6
CONTINUOUS
10
1.8891744094488188
20
-1.1621545669291338
11
1.8801431102362205
21
-1.1673687795275591
0
LINE
8
BLACK
6
CONTINUOUS
10
1.8801431102362205
20
-1.1673687795275591
11
1.870508464566929
21
-1.1713596062992127
0
LINE
8
BLACK
6
CONTINUOUS
10
1.870508464566929
20
-1.1713596062992127
11
1.8604353543307086
21
-1.1740586614173227
0
LINE
8
BLACK
6
CONTINUOUS
10
1.8604353543307086
20
-1.1740586614173227
11
1.8500961023622047
21
-1.1754198425196851
0
LINE
8
BLACK
6
CONTINUOUS
10
1.8500961023622047
20
-1.1754198425196851
11
1.8396676771653544
21
-1.1754198425196851
0
LINE
8
BLACK
6
CONTINUOUS
10
1.8396676771653544
20
-1.1754198425196851
11
1.8293284251968505
21
-1.1740586614173227
0
LINE
8
BLACK
6
CONTINUOUS
10
1.8293284251968505
20
-1.1740586614173227
11
1.8192553149606299
21
-1.1713596062992127
0
LINE
8
BLACK
6
CONTINUOUS
10
1.8192553149606299
20
-1.1713596062992127
11
1.8096206692913386
21
-1.1673687795275591
0
LINE
8
BLACK
6
CONTINUOUS
10
1.8096206692913386
20
-1.1673687795275591
11
1.8005893700787401
21
-1.1621545669291338
0
LINE
8
BLACK
6
CONTINUOUS
10
1.8005893700787401
20
-1.1621545669291338
11
1.7923159448818897
21
-1.1558061417322834
0
LINE
8
BLACK
6
CONTINUOUS
10
1.7923159448818897
20
-1.1558061417322834
11
1.7849418897637794
21
-1.1484320866141733
0
LINE
8
BLACK
6
CONTINUOUS
10
1.7849418897637794
20
-1.1484320866141733
11
1.778593464566929
21
-1.1401586614173229
0
LINE
8
BLACK
6
CONTINUOUS
10
1.778593464566929
20
-1.1401586614173229
11
1.7733792519685039
21
-1.1311273622047244
0
LINE
8
BLACK
6
CONTINUOUS
10
1.7733792519685039
20
-1.1311273622047244
11
1.7693884251968504
21
-1.1214927165354331
0
LINE
8
BLACK
6
CONTINUOUS
10
1.7693884251968504
20
-1.1214927165354331
11
1.7666893700787401
21
-1.1114196062992125
0
LINE
8
BLACK
6
CONTINUOUS
10
1.7666893700787401
20
-1.1114196062992125
11
1.7653281889763779
21
-1.1010803543307086
0
LINE
8
BLACK
6
CONTINUOUS
10
1.7653281889763779
20
-1.1010803543307086
11
1.7653281889763779
21
-1.0907697637795275
0
LINE
8
BLACK
6
CONTINUOUS
10
1.7653281889763779
20
-1.0907697637795275
11
1.7653281889763779
21
-1.0906519291338583
0
LINE
8
BLACK
6
CONTINUOUS
10
1.7653281889763779
20
-1.0906519291338583
11
1.7666893700787401
21
-1.0803126771653544
0
LINE
8
BLACK
6
CONTINUOUS
10
1.7666893700787401
20
-1.0803126771653544
11
1.7693884251968504
21
-1.0702395669291338
0
LINE
8
BLACK
6
CONTINUOUS
10
1.7693884251968504
20
-1.0702395669291338
11
1.7733792519685039
21
-1.0606049212598425
0
LINE
8
BLACK
6
CONTINUOUS
10
1.7733792519685039
20
-1.0606049212598425
11
1.778593464566929
21
-1.051573622047244
0
LINE
8
BLACK
6
CONTINUOUS
10
1.778593464566929
20
-1.051573622047244
11
1.7849418897637794
21
-1.0433001968503937
0
LINE
8
BLACK
6
CONTINUOUS
10
1.7849418897637794
20
-1.0433001968503937
11
1.7923159448818897
21
-1.0359261417322834
0
LINE
8
BLACK
6
CONTINUOUS
10
1.7923159448818897
20
-1.0359261417322834
11
1.8005893700787401
21
-1.029577716535433
0
LINE
8
BLACK
6
CONTINUOUS
10
1.8005893700787401
20
-1.029577716535433
11
1.8096206692913386
21
-1.0243635039370078
0
LINE
8
BLACK
6
CONTINUOUS
10
1.8096206692913386
20
-1.0243635039370078
11
1.8192553149606299
21
-1.0203726771653543
0
LINE
8
BLACK
6
CONTINUOUS
10
1.8192553149606299
20
-1.0203726771653543
11
1.8293284251968505
21
-1.017673622047244
0
LINE
8
BLACK
6
CONTINUOUS
10
1.8293284251968505
20
-1.017673622047244
11
1.8396676771653544
21
-1.0163124409448818
0
LINE
8
BLACK
6
CONTINUOUS
10
1.8396676771653544
20
-1.0163124409448818
11
1.8500961023622047
21
-1.0163124409448818
0
LINE
8
BLACK
6
CONTINUOUS
10
1.8500961023622047
20
-1.0163124409448818
11
1.8604353543307086
21
-1.017673622047244
0
LINE
8
BLACK
6
CONTINUOUS
10
1.7671259842519684
20
-1.1009625196850394
11
1.7684564173228345
21
-1.1110681102362205
0
LINE
8
BLACK
6
CONTINUOUS
10
1.7684564173228345
20
-1.1110681102362205
11
1.7710944881889763
21
-1.1209135826771652
0
LINE
8
BLACK
6
CONTINUOUS
10
1.7710944881889763
20
-1.1209135826771652
11
1.7749950787401574
21
-1.1303305118110236
0
LINE
8
BLACK
6
CONTINUOUS
10
1.7749950787401574
20
-1.1303305118110236
11
1.7800914960629921
21
-1.139157716535433
0
LINE
8
BLACK
6
CONTINUOUS
10
1.7800914960629921
20
-1.139157716535433
11
1.7862964566929134
21
-1.1472441732283465
0
LINE
8
BLACK
6
CONTINUOUS
10
1.7862964566929134
20
-1.1472441732283465
11
1.7935038582677165
21
-1.1544515748031496
0
LINE
8
BLACK
6
CONTINUOUS
10
1.7935038582677165
20
-1.1544515748031496
11
1.8015903149606298
21
-1.1606565354330709
0
LINE
8
BLACK
6
CONTINUOUS
10
1.8015903149606298
20
-1.1606565354330709
11
1.8104175196850394
21
-1.1657529527559054
0
LINE
8
BLACK
6
CONTINUOUS
10
1.8104175196850394
20
-1.1657529527559054
11
1.8198344488188976
21
-1.1696535433070865
0
LINE
8
BLACK
6
CONTINUOUS
10
1.8198344488188976
20
-1.1696535433070865
11
1.8296799212598425
21
-1.1722916141732282
0
LINE
8
BLACK
6
CONTINUOUS
10
1.8296799212598425
20
-1.1722916141732282
11
1.8397855118110236
21
-1.1736220472440944
0
LINE
8
BLACK
6
CONTINUOUS
10
1.8397855118110236
20
-1.1736220472440944
11
1.8499782677165353
21
-1.1736220472440944
0
LINE
8
BLACK
6
CONTINUOUS
10
1.8499782677165353
20
-1.1736220472440944
11
1.8600838582677164
21
-1.1722916141732282
0
LINE
8
BLACK
6
CONTINUOUS
10
1.8600838582677164
20
-1.1722916141732282
11
1.8699293307086613
21
-1.1696535433070865
0
LINE
8
BLACK
6
CONTINUOUS
10
1.8699293307086613
20
-1.1696535433070865
11
1.8793462598425197
21
-1.1657529527559054
0
LINE
8
BLACK
6
CONTINUOUS
10
1.8793462598425197
20
-1.1657529527559054
11
1.888173464566929
21
-1.1606565354330709
0
LINE
8
BLACK
6
CONTINUOUS
10
1.888173464566929
20
-1.1606565354330709
11
1.8962599212598426
21
-1.1544515748031496
0
LINE
8
BLACK
6
CONTINUOUS
10
1.8962599212598426
20
-1.1544515748031496
11
1.9034673228346457
21
-1.1472441732283465
0
LINE
8
BLACK
6
CONTINUOUS
10
1.9034673228346457
20
-1.1472441732283465
11
1.909672283464567
21
-1.139157716535433
0
LINE
8
BLACK
6
CONTINUOUS
10
1.909672283464567
20
-1.139157716535433
11
1.9147687007874015
21
-1.1303305118110236
0
LINE
8
BLACK
6
CONTINUOUS
10
1.9147687007874015
20
-1.1303305118110236
11
1.9186692913385825
21
-1.1209135826771652
0
LINE
8
BLACK
6
CONTINUOUS
10
1.9186692913385825
20
-1.1209135826771652
11
1.9213073622047243
21
-1.1110681102362205
0
LINE
8
BLACK
6
CONTINUOUS
10
1.9213073622047243
20
-1.1110681102362205
11
1.9226377952755904
21
-1.1009625196850394
0
LINE
8
BLACK
6
CONTINUOUS
10
1.9226377952755904
20
-1.1009625196850394
11
1.9226377952755904
21
-1.0907697637795275
0
LINE
8
BLACK
6
CONTINUOUS
10
1.9226377952755904
20
-1.0907697637795275
11
1.9213073622047243
21
-1.0806641732283464
0
LINE
8
BLACK
6
CONTINUOUS
10
1.9213073622047243
20
-1.0806641732283464
11
1.9186692913385825
21
-1.0708187007874015
0
LINE
8
BLACK
6
CONTINUOUS
10
1.9186692913385825
20
-1.0708187007874015
11
1.9147687007874015
21
-1.0614017716535433
0
LINE
8
BLACK
6
CONTINUOUS
10
1.9147687007874015
20
-1.0614017716535433
11
1.909672283464567
21
-1.0525745669291338
0
LINE
8
BLACK
6
CONTINUOUS
10
1.909672283464567
20
-1.0525745669291338
11
1.9034673228346457
21
-1.0444881102362205
0
LINE
8
BLACK
6
CONTINUOUS
10
1.9034673228346457
20
-1.0444881102362205
11
1.8962599212598426
21
-1.0372807086614173
0
LINE
8
BLACK
6
CONTINUOUS
10
1.8962599212598426
20
-1.0372807086614173
11
1.888173464566929
21
-1.031075748031496
0
LINE
8
BLACK
6
CONTINUOUS
10
1.888173464566929
20
-1.031075748031496
11
1.8793462598425197
21
-1.0259793307086613
0
LINE
8
BLACK
6
CONTINUOUS
10
1.8793462598425197
20
-1.0259793307086613
11
1.8699293307086613
21
-1.0220787401574802
0
LINE
8
BLACK
6
CONTINUOUS
10
1.8699293307086613
20
-1.0220787401574802
11
1.8600838582677164
21
-1.0194406692913385
0
LINE
8
BLACK
6
CONTINUOUS
10
1.8600838582677164
20
-1.0194406692913385
11
1.8499782677165353
21
-1.0181102362204724
0
LINE
8
BLACK
6
CONTINUOUS
10
1.8499782677165353
20
-1.0181102362204724
11
1.8397855118110236
21
-1.0181102362204724
0
LINE
8
BLACK
6
CONTINUOUS
10
1.8397855118110236
20
-1.0181102362204724
11
1.8296799212598425
21
-1.0194406692913385
0
LINE
8
BLACK
6
CONTINUOUS
10
1.8296799212598425
20
-1.0194406692913385
11
1.8198344488188976
21
-1.0220787401574802
0
LINE
8
BLACK
6
CONTINUOUS
10
1.8198344488188976
20
-1.0220787401574802
11
1.8104175196850394
21
-1.0259793307086613
0
LINE
8
BLACK
6
CONTINUOUS
10
1.8104175196850394
20
-1.0259793307086613
11
1.8015903149606298
21
-1.031075748031496
0
LINE
8
BLACK
6
CONTINUOUS
10
1.8015903149606298
20
-1.031075748031496
11
1.7935038582677165
21
-1.0372807086614173
0
LINE
8
BLACK
6
CONTINUOUS
10
1.7935038582677165
20
-1.0372807086614173
11
1.7862964566929134
21
-1.0444881102362205
0
LINE
8
BLACK
6
CONTINUOUS
10
1.7862964566929134
20
-1.0444881102362205
11
1.7800914960629921
21
-1.0525745669291338
0
LINE
8
BLACK
6
CONTINUOUS
10
1.7800914960629921
20
-1.0525745669291338
11
1.7749950787401574
21
-1.0614017716535433
0
LINE
8
BLACK
6
CONTINUOUS
10
1.7749950787401574
20
-1.0614017716535433
11
1.7710944881889763
21
-1.0708187007874015
0
LINE
8
BLACK
6
CONTINUOUS
10
1.7710944881889763
20
-1.0708187007874015
11
1.7684564173228345
21
-1.0806641732283464
0
LINE
8
BLACK
6
CONTINUOUS
10
1.7684564173228345
20
-1.0806641732283464
11
1.7671259842519684
21
-1.0907697637795275
0
LINE
8
BLACK
6
CONTINUOUS
10
1.7671259842519684
20
-1.0907697637795275
11
1.7671259842519684
21
-1.1009625196850394
0
LINE
8
BLACK
6
CONTINUOUS
10
5.0578762992125981
20
-1.017673622047244
11
5.0679494094488184
21
-1.0203726771653543
0
LINE
8
BLACK
6
CONTINUOUS
10
5.0679494094488184
20
-1.0203726771653543
11
5.07758405511811
21
-1.0243635039370078
0
LINE
8
BLACK
6
CONTINUOUS
10
5.07758405511811
20
-1.0243635039370078
11
5.0866153543307089
21
-1.029577716535433
0
LINE
8
BLACK
6
CONTINUOUS
10
5.0866153543307089
20
-1.029577716535433
11
5.094888779527559
21
-1.0359261417322834
0
LINE
8
BLACK
6
CONTINUOUS
10
5.094888779527559
20
-1.0359261417322834
11
5.1022628346456695
21
-1.0433001968503937
0
LINE
8
BLACK
6
CONTINUOUS
10
5.1022628346456695
20
-1.0433001968503937
11
5.1086112598425197
21
-1.051573622047244
0
LINE
8
BLACK
6
CONTINUOUS
10
5.1086112598425197
20
-1.051573622047244
11
5.1138254724409444
21
-1.0606049212598425
0
LINE
8
BLACK
6
CONTINUOUS
10
5.1138254724409444
20
-1.0606049212598425
11
5.1178162992125982
21
-1.0702395669291338
0
LINE
8
BLACK
6
CONTINUOUS
10
5.1178162992125982
20
-1.0702395669291338
11
5.1205153543307089
21
-1.0803126771653544
0
LINE
8
BLACK
6
CONTINUOUS
10
5.1205153543307089
20
-1.0803126771653544
11
5.1218765354330706
21
-1.0906519291338583
0
LINE
8
BLACK
6
CONTINUOUS
10
5.1218765354330706
20
-1.0906519291338583
11
5.1218765354330706
21
-1.1010803543307086
0
LINE
8
BLACK
6
CONTINUOUS
10
5.1218765354330706
20
-1.1010803543307086
11
5.1205153543307089
21
-1.1114196062992125
0
LINE
8
BLACK
6
CONTINUOUS
10
5.1205153543307089
20
-1.1114196062992125
11
5.1178162992125982
21
-1.1214927165354331
0
LINE
8
BLACK
6
CONTINUOUS
10
5.1178162992125982
20
-1.1214927165354331
11
5.1138254724409444
21
-1.1311273622047244
0
LINE
8
BLACK
6
CONTINUOUS
10
5.1138254724409444
20
-1.1311273622047244
11
5.1086112598425197
21
-1.1401586614173229
0
LINE
8
BLACK
6
CONTINUOUS
10
5.1086112598425197
20
-1.1401586614173229
11
5.1022628346456695
21
-1.1484320866141733
0
LINE
8
BLACK
6
CONTINUOUS
10
5.1022628346456695
20
-1.1484320866141733
11
5.094888779527559
21
-1.1558061417322834
0
LINE
8
BLACK
6
CONTINUOUS
10
5.094888779527559
20
-1.1558061417322834
11
5.0866153543307089
21
-1.1621545669291338
0
LINE
8
BLACK
6
CONTINUOUS
10
5.0866153543307089
20
-1.1621545669291338
11
5.07758405511811
21
-1.1673687795275591
0
LINE
8
BLACK
6
CONTINUOUS
10
5.07758405511811
20
-1.1673687795275591
11
5.0679494094488184
21
-1.1713596062992127
0
LINE
8
BLACK
6
CONTINUOUS
10
5.0679494094488184
20
-1.1713596062992127
11
5.0578762992125981
21
-1.1740586614173227
0
LINE
8
BLACK
6
CONTINUOUS
10
5.0578762992125981
20
-1.1740586614173227
11
5.0475370472440941
21
-1.1754198425196851
0
LINE
8
BLACK
6
CONTINUOUS
10
5.0475370472440941
20
-1.1754198425196851
11
5.0371086220472439
21
-1.1754198425196851
0
LINE
8
BLACK
6
CONTINUOUS
10
5.0371086220472439
20
-1.1754198425196851
11
5.0267693700787399
21
-1.1740586614173227
0
LINE
8
BLACK
6
CONTINUOUS
10
5.0267693700787399
20
-1.1740586614173227
11
5.0166962598425195
21
-1.1713596062992127
0
LINE
8
BLACK
6
CONTINUOUS
10
5.0166962598425195
20
-1.1713596062992127
11
5.007061614173228
21
-1.1673687795275591
0
LINE
8
BLACK
6
CONTINUOUS
10
5.007061614173228
20
-1.1673687795275591
11
4.99803031496063
21
-1.1621545669291338
0
LINE
8
BLACK
6
CONTINUOUS
10
4.99803031496063
20
-1.1621545669291338
11
4.9897568897637798
21
-1.1558061417322834
0
LINE
8
BLACK
6
CONTINUOUS
10
4.9897568897637798
20
-1.1558061417322834
11
4.9823828346456693
21
-1.1484320866141733
0
LINE
8
BLACK
6
CONTINUOUS
10
4.9823828346456693
20
-1.1484320866141733
11
4.9760344094488191
21
-1.1401586614173229
0
LINE
8
BLACK
6
CONTINUOUS
10
4.9760344094488191
20
-1.1401586614173229
11
4.9708201968503936
21
-1.1311273622047244
0
LINE
8
BLACK
6
CONTINUOUS
10
4.9708201968503936
20
-1.1311273622047244
11
4.9668293700787398
21
-1.1214927165354331
0
LINE
8
BLACK
6
CONTINUOUS
10
4.9668293700787398
20
-1.1214927165354331
11
4.96413031496063
21
-1.1114196062992125
0
LINE
8
BLACK
6
CONTINUOUS
10
4.96413031496063
20
-1.1114196062992125
11
4.9627691338582673
21
-1.1010803543307086
0
LINE
8
BLACK
6
CONTINUOUS
10
4.9627691338582673
20
-1.1010803543307086
11
4.9627691338582673
21
-1.0907697637795275
0
LINE
8
BLACK
6
CONTINUOUS
10
4.9627691338582673
20
-1.0907697637795275
11
4.9627691338582673
21
-1.0906519291338583
0
LINE
8
BLACK
6
CONTINUOUS
10
4.9627691338582673
20
-1.0906519291338583
11
4.96413031496063
21
-1.0803126771653544
0
LINE
8
BLACK
6
CONTINUOUS
10
4.96413031496063
20
-1.0803126771653544
11
4.9668293700787398
21
-1.0702395669291338
0
LINE
8
BLACK
6
CONTINUOUS
10
4.9668293700787398
20
-1.0702395669291338
11
4.9708201968503936
21
-1.0606049212598425
0
LINE
8
BLACK
6
CONTINUOUS
10
4.9708201968503936
20
-1.0606049212598425
11
4.9760344094488191
21
-1.051573622047244
0
LINE
8
BLACK
6
CONTINUOUS
10
4.9760344094488191
20
-1.051573622047244
11
4.9823828346456693
21
-1.0433001968503937
0
LINE
8
BLACK
6
CONTINUOUS
10
4.9823828346456693
20
-1.0433001968503937
11
4.9897568897637798
21
-1.0359261417322834
0
LINE
8
BLACK
6
CONTINUOUS
10
4.9897568897637798
20
-1.0359261417322834
11
4.99803031496063
21
-1.029577716535433
0
LINE
8
BLACK
6
CONTINUOUS
10
4.99803031496063
20
-1.029577716535433
11
5.007061614173228
21
-1.0243635039370078
0
LINE
8
BLACK
6
CONTINUOUS
10
5.007061614173228
20
-1.0243635039370078
11
5.0166962598425195
21
-1.0203726771653543
0
LINE
8
BLACK
6
CONTINUOUS
10
5.0166962598425195
20
-1.0203726771653543
11
5.0267693700787399
21
-1.017673622047244
0
LINE
8
BLACK
6
CONTINUOUS
10
5.0267693700787399
20
-1.017673622047244
11
5.0371086220472439
21
-1.0163124409448818
0
LINE
8
BLACK
6
CONTINUOUS
10
5.0371086220472439
20
-1.0163124409448818
11
5.0475370472440941
21
-1.0163124409448818
0
LINE
8
BLACK
6
CONTINUOUS
10
5.0475370472440941
20
-1.0163124409448818
11
5.0578762992125981
21
-1.017673622047244
0
LINE
8
BLACK
6
CONTINUOUS
10
4.9645669291338583
20
-1.1009625196850394
11
4.965897362204724
21
-1.1110681102362205
0
LINE
8
BLACK
6
CONTINUOUS
10
4.965897362204724
20
-1.1110681102362205
11
4.9685354330708664
21
-1.1209135826771652
0
LINE
8
BLACK
6
CONTINUOUS
10
4.9685354330708664
20
-1.1209135826771652
11
4.9724360236220475
21
-1.1303305118110236
0
LINE
8
BLACK
6
CONTINUOUS
10
4.9724360236220475
20
-1.1303305118110236
11
4.9775324409448816
21
-1.139157716535433
0
LINE
8
BLACK
6
CONTINUOUS
10
4.9775324409448816
20
-1.139157716535433
11
4.9837374015748033
21
-1.1472441732283465
0
LINE
8
BLACK
6
CONTINUOUS
10
4.9837374015748033
20
-1.1472441732283465
11
4.9909448031496062
21
-1.1544515748031496
0
LINE
8
BLACK
6
CONTINUOUS
10
4.9909448031496062
20
-1.1544515748031496
11
4.9990312598425195
21
-1.1606565354330709
0
LINE
8
BLACK
6
CONTINUOUS
10
4.9990312598425195
20
-1.1606565354330709
11
5.0078584645669286
21
-1.1657529527559054
0
LINE
8
BLACK
6
CONTINUOUS
10
5.0078584645669286
20
-1.1657529527559054
11
5.0172753937007872
21
-1.1696535433070865
0
LINE
8
BLACK
6
CONTINUOUS
10
5.0172753937007872
20
-1.1696535433070865
11
5.0271208661417326
21
-1.1722916141732282
0
LINE
8
BLACK
6
CONTINUOUS
10
5.0271208661417326
20
-1.1722916141732282
11
5.0372264566929132
21
-1.1736220472440944
0
LINE
8
BLACK
6
CONTINUOUS
10
5.0372264566929132
20
-1.1736220472440944
11
5.0474192125984247
21
-1.1736220472440944
0
LINE
8
BLACK
6
CONTINUOUS
10
5.0474192125984247
20
-1.1736220472440944
11
5.0575248031496063
21
-1.1722916141732282
0
LINE
8
BLACK
6
CONTINUOUS
10
5.0575248031496063
20
-1.1722916141732282
11
5.0673702755905508
21
-1.1696535433070865
0
LINE
8
BLACK
6
CONTINUOUS
10
5.0673702755905508
20
-1.1696535433070865
11
5.0767872047244094
21
-1.1657529527559054
0
LINE
8
BLACK
6
CONTINUOUS
10
5.0767872047244094
20
-1.1657529527559054
11
5.0856144094488185
21
-1.1606565354330709
0
LINE
8
BLACK
6
CONTINUOUS
10
5.0856144094488185
20
-1.1606565354330709
11
5.0937008661417318
21
-1.1544515748031496
0
LINE
8
BLACK
6
CONTINUOUS
10
5.0937008661417318
20
-1.1544515748031496
11
5.1009082677165356
21
-1.1472441732283465
0
LINE
8
BLACK
6
CONTINUOUS
10
5.1009082677165356
20
-1.1472441732283465
11
5.1071132283464564
21
-1.139157716535433
0
LINE
8
BLACK
6
CONTINUOUS
10
5.1071132283464564
20
-1.139157716535433
11
5.1122096456692914
21
-1.1303305118110236
0
LINE
8
BLACK
6
CONTINUOUS
10
5.1122096456692914
20
-1.1303305118110236
11
5.1161102362204725
21
-1.1209135826771652
0
LINE
8
BLACK
6
CONTINUOUS
10
5.1161102362204725
20
-1.1209135826771652
11
5.118748307086614
21
-1.1110681102362205
0
LINE
8
BLACK
6
CONTINUOUS
10
5.118748307086614
20
-1.1110681102362205
11
5.1200787401574805
21
-1.1009625196850394
0
LINE
8
BLACK
6
CONTINUOUS
10
5.1200787401574805
20
-1.1009625196850394
11
5.1200787401574805
21
-1.0907697637795275
0
LINE
8
BLACK
6
CONTINUOUS
10
5.1200787401574805
20
-1.0907697637795275
11
5.118748307086614
21
-1.0806641732283464
0
LINE
8
BLACK
6
CONTINUOUS
10
5.118748307086614
20
-1.0806641732283464
11
5.1161102362204725
21
-1.0708187007874015
0
LINE
8
BLACK
6
CONTINUOUS
10
5.1161102362204725
20
-1.0708187007874015
11
5.1122096456692914
21
-1.0614017716535433
0
LINE
8
BLACK
6
CONTINUOUS
10
5.1122096456692914
20
-1.0614017716535433
11
5.1071132283464564
21
-1.0525745669291338
0
LINE
8
BLACK
6
CONTINUOUS
10
5.1071132283464564
20
-1.0525745669291338
11
5.1009082677165356
21
-1.0444881102362205
0
LINE
8
BLACK
6
CONTINUOUS
10
5.1009082677165356
20
-1.0444881102362205
11
5.0937008661417318
21
-1.0372807086614173
0
LINE
8
BLACK
6
CONTINUOUS
10
5.0937008661417318
20
-1.0372807086614173
11
5.0856144094488185
21
-1.031075748031496
0
LINE
8
BLACK
6
CONTINUOUS
10
5.0856144094488185
20
-1.031075748031496
11
5.0767872047244094
21
-1.0259793307086613
0
LINE
8
BLACK
6
CONTINUOUS
10
5.0767872047244094
20
-1.0259793307086613
11
5.0673702755905508
21
-1.0220787401574802
0
LINE
8
BLACK
6
CONTINUOUS
10
5.0673702755905508
20
-1.0220787401574802
11
5.0575248031496063
21
-1.0194406692913385
0
LINE
8
BLACK
6
CONTINUOUS
10
5.0575248031496063
20
-1.0194406692913385
11
5.0474192125984247
21
-1.0181102362204724
0
LINE
8
BLACK
6
CONTINUOUS
10
5.0474192125984247
20
-1.0181102362204724
11
5.0372264566929132
21
-1.0181102362204724
0
LINE
8
BLACK
6
CONTINUOUS
10
5.0372264566929132
20
-1.0181102362204724
11
5.0271208661417326
21
-1.0194406692913385
0
LINE
8
BLACK
6
CONTINUOUS
10
5.0271208661417326
20
-1.0194406692913385
11
5.0172753937007872
21
-1.0220787401574802
0
LINE
8
BLACK
6
CONTINUOUS
10
5.0172753937007872
20
-1.0220787401574802
11
5.0078584645669286
21
-1.0259793307086613
0
LINE
8
BLACK
6
CONTINUOUS
10
5.0078584645669286
20
-1.0259793307086613
11
4.9990312598425195
21
-1.031075748031496
0
LINE
8
BLACK
6
CONTINUOUS
10
4.9990312598425195
20
-1.031075748031496
11
4.9909448031496062
21
-1.0372807086614173
0
LINE
8
BLACK
6
CONTINUOUS
10
4.9909448031496062
20
-1.0372807086614173
11
4.9837374015748033
21
-1.0444881102362205
0
LINE
8
BLACK
6
CONTINUOUS
10
4.9837374015748033
20
-1.0444881102362205
11
4.9775324409448816
21
-1.0525745669291338
0
LINE
8
BLACK
6
CONTINUOUS
10
4.9775324409448816
20
-1.0525745669291338
11
4.9724360236220475
21
-1.0614017716535433
0
LINE
8
BLACK
6
CONTINUOUS
10
4.9724360236220475
20
-1.0614017716535433
11
4.9685354330708664
21
-1.0708187007874015
0
LINE
8
BLACK
6
CONTINUOUS
10
4.9685354330708664
20
-1.0708187007874015
11
4.965897362204724
21
-1.0806641732283464
0
LINE
8
BLACK
6
CONTINUOUS
10
4.965897362204724
20
-1.0806641732283464
11
4.9645669291338583
21
-1.0907697637795275
0
LINE
8
BLACK
6
CONTINUOUS
10
4.9645669291338583
20
-1.0907697637795275
11
4.9645669291338583
21
-1.1009625196850394
0
LINE
8
BLACK
6
CONTINUOUS
10
8.2777581889763781
20
-1.017673622047244
11
8.2878312992125984
21
-1.0203726771653543
0
LINE
8
BLACK
6
CONTINUOUS
10
8.2878312992125984
20
-1.0203726771653543
11
8.297465944881889
21
-1.0243635039370078
0
LINE
8
BLACK
6
CONTINUOUS
10
8.297465944881889
20
-1.0243635039370078
11
8.3064972440944889
21
-1.029577716535433
0
LINE
8
BLACK
6
CONTINUOUS
10
8.3064972440944889
20
-1.029577716535433
11
8.3147706692913381
21
-1.0359261417322834
0
LINE
8
BLACK
6
CONTINUOUS
10
8.3147706692913381
20
-1.0359261417322834
11
8.3221447244094477
21
-1.0433001968503937
0
LINE
8
BLACK
6
CONTINUOUS
10
8.3221447244094477
20
-1.0433001968503937
11
8.3284931496062988
21
-1.051573622047244
0
LINE
8
BLACK
6
CONTINUOUS
10
8.3284931496062988
20
-1.051573622047244
11
8.3337073622047235
21
-1.0606049212598425
0
LINE
8
BLACK
6
CONTINUOUS
10
8.3337073622047235
20
-1.0606049212598425
11
8.3376981889763773
21
-1.0702395669291338
0
LINE
8
BLACK
6
CONTINUOUS
10
8.3376981889763773
20
-1.0702395669291338
11
8.340397244094488
21
-1.0803126771653544
0
LINE
8
BLACK
6
CONTINUOUS
10
8.340397244094488
20
-1.0803126771653544
11
8.3417584251968506
21
-1.0906519291338583
0
LINE
8
BLACK
6
CONTINUOUS
10
8.3417584251968506
20
-1.0906519291338583
11
8.3417584251968506
21
-1.1010803543307086
0
LINE
8
BLACK
6
CONTINUOUS
10
8.3417584251968506
20
-1.1010803543307086
11
8.340397244094488
21
-1.1114196062992125
0
LINE
8
BLACK
6
CONTINUOUS
10
8.340397244094488
20
-1.1114196062992125
11
8.3376981889763773
21
-1.1214927165354331
0
LINE
8
BLACK
6
CONTINUOUS
10
8.3376981889763773
20
-1.1214927165354331
11
8.3337073622047235
21
-1.1311273622047244
0
LINE
8
BLACK
6
CONTINUOUS
10
8.3337073622047235
20
-1.1311273622047244
11
8.3284931496062988
21
-1.1401586614173229
0
LINE
8
BLACK
6
CONTINUOUS
10
8.3284931496062988
20
-1.1401586614173229
11
8.3221447244094477
21
-1.1484320866141733
0
LINE
8
BLACK
6
CONTINUOUS
10
8.3221447244094477
20
-1.1484320866141733
11
8.3147706692913381
21
-1.1558061417322834
0
LINE
8
BLACK
6
CONTINUOUS
10
8.3147706692913381
20
-1.1558061417322834
11
8.3064972440944889
21
-1.1621545669291338
0
LINE
8
BLACK
6
CONTINUOUS
10
8.3064972440944889
20
-1.1621545669291338
11
8.297465944881889
21
-1.1673687795275591
0
LINE
8
BLACK
6
CONTINUOUS
10
8.297465944881889
20
-1.1673687795275591
11
8.2878312992125984
21
-1.1713596062992127
0
LINE
8
BLACK
6
CONTINUOUS
10
8.2878312992125984
20
-1.1713596062992127
11
8.2777581889763781
21
-1.1740586614173227
0
LINE
8
BLACK
6
CONTINUOUS
10
8.2777581889763781
20
-1.1740586614173227
11
8.2674189370078732
21
-1.1754198425196851
0
LINE
8
BLACK
6
CONTINUOUS
10
8.2674189370078732
20
-1.1754198425196851
11
8.2569905118110238
21
-1.1754198425196851
0
LINE
8
BLACK
6
CONTINUOUS
10
8.2569905118110238
20
-1.1754198425196851
11
8.246651259842519
21
-1.1740586614173227
0
LINE
8
BLACK
6
CONTINUOUS
10
8.246651259842519
20
-1.1740586614173227
11
8.2365781496062986
21
-1.1713596062992127
0
LINE
8
BLACK
6
CONTINUOUS
10
8.2365781496062986
20
-1.1713596062992127
11
8.226943503937008
21
-1.1673687795275591
0
LINE
8
BLACK
6
CONTINUOUS
10
8.226943503937008
20
-1.1673687795275591
11
8.21791220472441
21
-1.1621545669291338
0
LINE
8
BLACK
6
CONTINUOUS
10
8.21791220472441
20
-1.1621545669291338
11
8.2096387795275589
21
-1.1558061417322834
0
LINE
8
BLACK
6
CONTINUOUS
10
8.2096387795275589
20
-1.1558061417322834
11
8.2022647244094493
21
-1.1484320866141733
0
LINE
8
BLACK
6
CONTINUOUS
10
8.2022647244094493
20
-1.1484320866141733
11
8.1959162992125982
21
-1.1401586614173229
0
LINE
8
BLACK
6
CONTINUOUS
10
8.1959162992125982
20
-1.1401586614173229
11
8.1907020866141735
21
-1.1311273622047244
0
LINE
8
BLACK
6
CONTINUOUS
10
8.1907020866141735
20
-1.1311273622047244
11
8.1867112598425198
21
-1.1214927165354331
0
LINE
8
BLACK
6
CONTINUOUS
10
8.1867112598425198
20
-1.1214927165354331
11
8.184012204724409
21
-1.1114196062992125
0
LINE
8
BLACK
6
CONTINUOUS
10
8.184012204724409
20
-1.1114196062992125
11
8.1826510236220464
21
-1.1010803543307086
0
LINE
8
BLACK
6
CONTINUOUS
10
8.1826510236220464
20
-1.1010803543307086
11
8.1826510236220464
21
-1.0907697637795275
0
LINE
8
BLACK
6
CONTINUOUS
10
8.1826510236220464
20
-1.0907697637795275
11
8.1826510236220464
21
-1.0906519291338583
0
LINE
8
BLACK
6
CONTINUOUS
10
8.1826510236220464
20
-1.0906519291338583
11
8.184012204724409
21
-1.0803126771653544
0
LINE
8
BLACK
6
CONTINUOUS
10
8.184012204724409
20
-1.0803126771653544
11
8.1867112598425198
21
-1.0702395669291338
0
LINE
8
BLACK
6
CONTINUOUS
10
8.1867112598425198
20
-1.0702395669291338
11
8.1907020866141735
21
-1.0606049212598425
0
LINE
8
BLACK
6
CONTINUOUS
10
8.1907020866141735
20
-1.0606049212598425
11
8.1959162992125982
21
-1.051573622047244
0
LINE
8
BLACK
6
CONTINUOUS
10
8.1959162992125982
20
-1.051573622047244
11
8.2022647244094493
21
-1.0433001968503937
0
LINE
8
BLACK
6
CONTINUOUS
10
8.2022647244094493
20
-1.0433001968503937
11
8.2096387795275589
21
-1.0359261417322834
0
LINE
8
BLACK
6
CONTINUOUS
10
8.2096387795275589
20
-1.0359261417322834
11
8.21791220472441
21
-1.029577716535433
0
LINE
8
BLACK
6
CONTINUOUS
10
8.21791220472441
20
-1.029577716535433
11
8.226943503937008
21
-1.0243635039370078
0
LINE
8
BLACK
6
CONTINUOUS
10
8.226943503937008
20
-1.0243635039370078
11
8.2365781496062986
21
-1.0203726771653543
0
LINE
8
BLACK
6
CONTINUOUS
10
8.2365781496062986
20
-1.0203726771653543
11
8.246651259842519
21
-1.017673622047244
0
LINE
8
BLACK
6
CONTINUOUS
10
8.246651259842519
20
-1.017673622047244
11
8.2569905118110238
21
-1.0163124409448818
0
LINE
8
BLACK
6
CONTINUOUS
10
8.2569905118110238
20
-1.0163124409448818
11
8.2674189370078732
21
-1.0163124409448818
0
LINE
8
BLACK
6
CONTINUOUS
10
8.2674189370078732
20
-1.0163124409448818
11
8.2777581889763781
21
-1.017673622047244
0
LINE
8
BLACK
6
CONTINUOUS
10
8.1844488188976374
20
-1.1009625196850394
11
8.1857792519685031
21
-1.1110681102362205
0
LINE
8
BLACK
6
CONTINUOUS
10
8.1857792519685031
20
-1.1110681102362205
11
8.1884173228346455
21
-1.1209135826771652
0
LINE
8
BLACK
6
CONTINUOUS
10
8.1884173228346455
20
-1.1209135826771652
11
8.1923179133858266
21
-1.1303305118110236
0
LINE
8
BLACK
6
CONTINUOUS
10
8.1923179133858266
20
-1.1303305118110236
11
8.1974143307086607
21
-1.139157716535433
0
LINE
8
BLACK
6
CONTINUOUS
10
8.1974143307086607
20
-1.139157716535433
11
8.2036192913385833
21
-1.1472441732283465
0
LINE
8
BLACK
6
CONTINUOUS
10
8.2036192913385833
20
-1.1472441732283465
11
8.2108266929133862
21
-1.1544515748031496
0
LINE
8
BLACK
6
CONTINUOUS
10
8.2108266929133862
20
-1.1544515748031496
11
8.2189131496062995
21
-1.1606565354330709
0
LINE
8
BLACK
6
CONTINUOUS
10
8.2189131496062995
20
-1.1606565354330709
11
8.2277403543307077
21
-1.1657529527559054
0
LINE
8
BLACK
6
CONTINUOUS
10
8.2277403543307077
20
-1.1657529527559054
11
8.2371572834645672
21
-1.1696535433070865
0
LINE
8
BLACK
6
CONTINUOUS
10
8.2371572834645672
20
-1.1696535433070865
11
8.2470027559055108
21
-1.1722916141732282
0
LINE
8
BLACK
6
CONTINUOUS
10
8.2470027559055108
20
-1.1722916141732282
11
8.2571083464566932
21
-1.1736220472440944
0
LINE
8
BLACK
6
CONTINUOUS
10
8.2571083464566932
20
-1.1736220472440944
11
8.2673011023622038
21
-1.1736220472440944
0
LINE
8
BLACK
6
CONTINUOUS
10
8.2673011023622038
20
-1.1736220472440944
11
8.2774066929133863
21
-1.1722916141732282
0
LINE
8
BLACK
6
CONTINUOUS
10
8.2774066929133863
20
-1.1722916141732282
11
8.2872521653543298
21
-1.1696535433070865
0
LINE
8
BLACK
6
CONTINUOUS
10
8.2872521653543298
20
-1.1696535433070865
11
8.2966690944881893
21
-1.1657529527559054
0
LINE
8
BLACK
6
CONTINUOUS
10
8.2966690944881893
20
-1.1657529527559054
11
8.3054962992125976
21
-1.1606565354330709
0
LINE
8
BLACK
6
CONTINUOUS
10
8.3054962992125976
20
-1.1606565354330709
11
8.3135827559055109
21
-1.1544515748031496
0
LINE
8
BLACK
6
CONTINUOUS
10
8.3135827559055109
20
-1.1544515748031496
11
8.3207901574803156
21
-1.1472441732283465
0
LINE
8
BLACK
6
CONTINUOUS
10
8.3207901574803156
20
-1.1472441732283465
11
8.3269951181102364
21
-1.139157716535433
0
LINE
8
BLACK
6
CONTINUOUS
10
8.3269951181102364
20
-1.139157716535433
11
8.3320915354330705
21
-1.1303305118110236
0
LINE
8
BLACK
6
CONTINUOUS
10
8.3320915354330705
20
-1.1303305118110236
11
8.3359921259842515
21
-1.1209135826771652
0
LINE
8
BLACK
6
CONTINUOUS
10
8.3359921259842515
20
-1.1209135826771652
11
8.338630196850394
21
-1.1110681102362205
0
LINE
8
BLACK
6
CONTINUOUS
10
8.338630196850394
20
-1.1110681102362205
11
8.3399606299212596
21
-1.1009625196850394
0
LINE
8
BLACK
6
CONTINUOUS
10
8.3399606299212596
20
-1.1009625196850394
11
8.3399606299212596
21
-1.0907697637795275
0
LINE
8
BLACK
6
CONTINUOUS
10
8.3399606299212596
20
-1.0907697637795275
11
8.338630196850394
21
-1.0806641732283464
0
LINE
8
BLACK
6
CONTINUOUS
10
8.338630196850394
20
-1.0806641732283464
11
8.3359921259842515
21
-1.0708187007874015
0
LINE
8
BLACK
6
CONTINUOUS
10
8.3359921259842515
20
-1.0708187007874015
11
8.3320915354330705
21
-1.0614017716535433
0
LINE
8
BLACK
6
CONTINUOUS
10
8.3320915354330705
20
-1.0614017716535433
11
8.3269951181102364
21
-1.0525745669291338
0
LINE
8
BLACK
6
CONTINUOUS
10
8.3269951181102364
20
-1.0525745669291338
11
8.3207901574803156
21
-1.0444881102362205
0
LINE
8
BLACK
6
CONTINUOUS
10
8.3207901574803156
20
-1.0444881102362205
11
8.3135827559055109
21
-1.0372807086614173
0
LINE
8
BLACK
6
CONTINUOUS
10
8.3135827559055109
20
-1.0372807086614173
11
8.3054962992125976
21
-1.031075748031496
0
LINE
8
BLACK
6
CONTINUOUS
10
8.3054962992125976
20
-1.031075748031496
11
8.2966690944881893
21
-1.0259793307086613
0
LINE
8
BLACK
6
CONTINUOUS
10
8.2966690944881893
20
-1.0259793307086613
11
8.2872521653543298
21
-1.0220787401574802
0
LINE
8
BLACK
6
CONTINUOUS
10
8.2872521653543298
20
-1.0220787401574802
11
8.2774066929133863
21
-1.0194406692913385
0
LINE
8
BLACK
6
CONTINUOUS
10
8.2774066929133863
20
-1.0194406692913385
11
8.2673011023622038
21
-1.0181102362204724
0
LINE
8
BLACK
6
CONTINUOUS
10
8.2673011023622038
20
-1.0181102362204724
11
8.2571083464566932
21
-1.0181102362204724
0
LINE
8
BLACK
6
CONTINUOUS
10
8.2571083464566932
20
-1.0181102362204724
11
8.2470027559055108
21
-1.0194406692913385
0
LINE
8
BLACK
6
CONTINUOUS
10
8.2470027559055108
20
-1.0194406692913385
11
8.2371572834645672
21
-1.0220787401574802
0
LINE
8
BLACK
6
CONTINUOUS
10
8.2371572834645672
20
-1.0220787401574802
11
8.2277403543307077
21
-1.0259793307086613
0
LINE
8
BLACK
6
CONTINUOUS
10
8.2277403543307077
20
-1.0259793307086613
11
8.2189131496062995
21
-1.031075748031496
0
LINE
8
BLACK
6
CONTINUOUS
10
8.2189131496062995
20
-1.031075748031496
11
8.2108266929133862
21
-1.0372807086614173
0
LINE
8
BLACK
6
CONTINUOUS
10
8.2108266929133862
20
-1.0372807086614173
11
8.2036192913385833
21
-1.0444881102362205
0
LINE
8
BLACK
6
CONTINUOUS
10
8.2036192913385833
20
-1.0444881102362205
11
8.1974143307086607
21
-1.0525745669291338
0
LINE
8
BLACK
6
CONTINUOUS
10
8.1974143307086607
20
-1.0525745669291338
11
8.1923179133858266
21
-1.0614017716535433
0
LINE
8
BLACK
6
CONTINUOUS
10
8.1923179133858266
20
-1.0614017716535433
11
8.1884173228346455
21
-1.0708187007874015
0
LINE
8
BLACK
6
CONTINUOUS
10
8.1884173228346455
20
-1.0708187007874015
11
8.1857792519685031
21
-1.0806641732283464
0
LINE
8
BLACK
6
CONTINUOUS
10
8.1857792519685031
20
-1.0806641732283464
11
8.1844488188976374
21
-1.0907697637795275
0
LINE
8
BLACK
6
CONTINUOUS
10
8.1844488188976374
20
-1.0907697637795275
11
8.1844488188976374
21
-1.1009625196850394
  0
ENDSEC
  0
EOF
