%TF.GenerationSoftware,KiCad,Pcbnew,9.0.3*%
%TF.CreationDate,2026-09-05T18:09:07+10:00*%
%TF.ProjectId,Kicad - Acid Front Panel,4b696361-6420-42d2-9041-636964204672,rev?*%
%TF.SameCoordinates,Original*%
%TF.FileFunction,Profile,NP*%
%FSLAX46Y46*%
G04 Gerber Fmt 4.6, Leading zero omitted, Abs format (unit mm)*
G04 Created by KiCad (PCBNEW 9.0.3) date 2026-09-05 18:09:07*
%MOMM*%
%LPD*%
G01*
G04 APERTURE LIST*
%TA.AperFunction,Profile*%
%ADD10C,0.200000*%
%TD*%
G04 APERTURE END LIST*
D10*
X73063798Y-46023857D02*
G75*
G02*
X70863798Y-46023857I-1100000J0D01*
G01*
X70863798Y-46023857D02*
G75*
G02*
X73063798Y-46023857I1100000J0D01*
G01*
X148759615Y-90223857D02*
G75*
G02*
X146559615Y-90223857I-1100000J0D01*
G01*
X146559615Y-90223857D02*
G75*
G02*
X148759615Y-90223857I1100000J0D01*
G01*
X244769253Y-158946357D02*
X56769253Y-158946357D01*
X60869253Y-92446357D02*
G75*
G02*
X58669253Y-92446357I-1100000J0D01*
G01*
X58669253Y-92446357D02*
G75*
G02*
X60869253Y-92446357I1100000J0D01*
G01*
X242869253Y-28946357D02*
G75*
G02*
X240669253Y-28946357I-1100000J0D01*
G01*
X240669253Y-28946357D02*
G75*
G02*
X242869253Y-28946357I1100000J0D01*
G01*
X228835591Y-143557774D02*
X73335591Y-143557774D01*
X228835591Y-104057774D02*
X228835591Y-143557774D01*
X74570002Y-93623859D02*
X74570002Y-42623859D01*
X233681333Y-38223857D02*
G75*
G02*
X231481333Y-38223857I-1100000J0D01*
G01*
X231481333Y-38223857D02*
G75*
G02*
X233681333Y-38223857I1100000J0D01*
G01*
X151869253Y-38213857D02*
G75*
G02*
X149669253Y-38213857I-1100000J0D01*
G01*
X149669253Y-38213857D02*
G75*
G02*
X151869253Y-38213857I1100000J0D01*
G01*
X193410000Y-50160661D02*
G75*
G02*
X185910000Y-50160661I-3750000J0D01*
G01*
X185910000Y-50160661D02*
G75*
G02*
X193410000Y-50160661I3750000J0D01*
G01*
X74570002Y-42623859D02*
X145070002Y-42623859D01*
X244769253Y-25946357D02*
X244769253Y-158946357D01*
X56769253Y-25946357D02*
X244769253Y-25946357D01*
X148759034Y-46013857D02*
G75*
G02*
X146559034Y-46013857I-1100000J0D01*
G01*
X146559034Y-46013857D02*
G75*
G02*
X148759034Y-46013857I1100000J0D01*
G01*
X222360000Y-78663563D02*
G75*
G02*
X214860000Y-78663563I-3750000J0D01*
G01*
X214860000Y-78663563D02*
G75*
G02*
X222360000Y-78663563I3750000J0D01*
G01*
X211820000Y-50150000D02*
G75*
G02*
X205620000Y-50150000I-3100000J0D01*
G01*
X205620000Y-50150000D02*
G75*
G02*
X211820000Y-50150000I3100000J0D01*
G01*
X145070002Y-42623859D02*
X145070002Y-93623859D01*
X225442470Y-50143857D02*
G75*
G02*
X220242470Y-50143857I-2600000J0D01*
G01*
X220242470Y-50143857D02*
G75*
G02*
X225442470Y-50143857I2600000J0D01*
G01*
X164450000Y-78644759D02*
G75*
G02*
X156950000Y-78644759I-3750000J0D01*
G01*
X156950000Y-78644759D02*
G75*
G02*
X164450000Y-78644759I3750000J0D01*
G01*
X145070002Y-93623859D02*
X74570002Y-93623859D01*
X60869253Y-155946357D02*
G75*
G02*
X58669253Y-155946357I-1100000J0D01*
G01*
X58669253Y-155946357D02*
G75*
G02*
X60869253Y-155946357I1100000J0D01*
G01*
X159030000Y-50143820D02*
G75*
G02*
X153830000Y-50143820I-2600000J0D01*
G01*
X153830000Y-50143820D02*
G75*
G02*
X159030000Y-50143820I2600000J0D01*
G01*
X151869253Y-28946357D02*
G75*
G02*
X149669253Y-28946357I-1100000J0D01*
G01*
X149669253Y-28946357D02*
G75*
G02*
X151869253Y-28946357I1100000J0D01*
G01*
X242869253Y-155946357D02*
G75*
G02*
X240669253Y-155946357I-1100000J0D01*
G01*
X240669253Y-155946357D02*
G75*
G02*
X242869253Y-155946357I1100000J0D01*
G01*
X151915011Y-155946357D02*
G75*
G02*
X149715011Y-155946357I-1100000J0D01*
G01*
X149715011Y-155946357D02*
G75*
G02*
X151915011Y-155946357I1100000J0D01*
G01*
X233696827Y-146663857D02*
G75*
G02*
X231496827Y-146663857I-1100000J0D01*
G01*
X231496827Y-146663857D02*
G75*
G02*
X233696827Y-146663857I1100000J0D01*
G01*
X73335591Y-104057774D02*
X228835591Y-104057774D01*
X56769253Y-158946357D02*
X56769253Y-25946357D01*
X73060000Y-90221470D02*
G75*
G02*
X70860000Y-90221470I-1100000J0D01*
G01*
X70860000Y-90221470D02*
G75*
G02*
X73060000Y-90221470I1100000J0D01*
G01*
X70703171Y-146663857D02*
G75*
G02*
X68503171Y-146663857I-1100000J0D01*
G01*
X68503171Y-146663857D02*
G75*
G02*
X70703171Y-146663857I1100000J0D01*
G01*
X73335591Y-143557774D02*
X73335591Y-104057774D01*
X193400000Y-78654705D02*
G75*
G02*
X185900000Y-78654705I-3750000J0D01*
G01*
X185900000Y-78654705D02*
G75*
G02*
X193400000Y-78654705I3750000J0D01*
G01*
X60869253Y-28946357D02*
G75*
G02*
X58669253Y-28946357I-1100000J0D01*
G01*
X58669253Y-28946357D02*
G75*
G02*
X60869253Y-28946357I1100000J0D01*
G01*
X70666387Y-38233857D02*
G75*
G02*
X68466387Y-38233857I-1100000J0D01*
G01*
X68466387Y-38233857D02*
G75*
G02*
X70666387Y-38233857I1100000J0D01*
G01*
X242869253Y-92446357D02*
G75*
G02*
X240669253Y-92446357I-1100000J0D01*
G01*
X240669253Y-92446357D02*
G75*
G02*
X242869253Y-92446357I1100000J0D01*
G01*
X173680000Y-50156079D02*
G75*
G02*
X167480000Y-50156079I-3100000J0D01*
G01*
X167480000Y-50156079D02*
G75*
G02*
X173680000Y-50156079I3100000J0D01*
G01*
X151915011Y-146663857D02*
G75*
G02*
X149715011Y-146663857I-1100000J0D01*
G01*
X149715011Y-146663857D02*
G75*
G02*
X151915011Y-146663857I1100000J0D01*
G01*
M02*
