%TF.GenerationSoftware,KiCad,Pcbnew,9.0.3*%
%TF.CreationDate,2026-09-05T18:09:07+10:00*%
%TF.ProjectId,Kicad - Acid Front Panel,4b696361-6420-42d2-9041-636964204672,rev?*%
%TF.SameCoordinates,Original*%
%TF.FileFunction,Copper,L1,Top*%
%TF.FilePolarity,Positive*%
%FSLAX46Y46*%
G04 Gerber Fmt 4.6, Leading zero omitted, Abs format (unit mm)*
G04 Created by KiCad (PCBNEW 9.0.3) date 2026-09-05 18:09:07*
%MOMM*%
%LPD*%
G01*
G04 APERTURE LIST*
G04 APERTURE END LIST*
%TA.AperFunction,NonConductor*%
G36*
X244211792Y-26466542D02*
G01*
X244257547Y-26519346D01*
X244268753Y-26570857D01*
X244268753Y-158321857D01*
X244249068Y-158388896D01*
X244196264Y-158434651D01*
X244144753Y-158445857D01*
X57393753Y-158445857D01*
X57326714Y-158426172D01*
X57280959Y-158373368D01*
X57269753Y-158321857D01*
X57269753Y-155820395D01*
X58168753Y-155820395D01*
X58168753Y-156072318D01*
X58208163Y-156321142D01*
X58286013Y-156560740D01*
X58400385Y-156785205D01*
X58548454Y-156989006D01*
X58548458Y-156989011D01*
X58726598Y-157167151D01*
X58726603Y-157167155D01*
X58904370Y-157296309D01*
X58930408Y-157315227D01*
X59073437Y-157388104D01*
X59154869Y-157429596D01*
X59154871Y-157429596D01*
X59154874Y-157429598D01*
X59394468Y-157507447D01*
X59643291Y-157546857D01*
X59643292Y-157546857D01*
X59895214Y-157546857D01*
X59895215Y-157546857D01*
X60144038Y-157507447D01*
X60383632Y-157429598D01*
X60608098Y-157315227D01*
X60811909Y-157167150D01*
X60990046Y-156989013D01*
X61138123Y-156785202D01*
X61252494Y-156560736D01*
X61330343Y-156321142D01*
X61369753Y-156072319D01*
X61369753Y-155820395D01*
X149214511Y-155820395D01*
X149214511Y-156072318D01*
X149253921Y-156321142D01*
X149331771Y-156560740D01*
X149446143Y-156785205D01*
X149594212Y-156989006D01*
X149594216Y-156989011D01*
X149772356Y-157167151D01*
X149772361Y-157167155D01*
X149950128Y-157296309D01*
X149976166Y-157315227D01*
X150119195Y-157388104D01*
X150200627Y-157429596D01*
X150200629Y-157429596D01*
X150200632Y-157429598D01*
X150440226Y-157507447D01*
X150689049Y-157546857D01*
X150689050Y-157546857D01*
X150940972Y-157546857D01*
X150940973Y-157546857D01*
X151189796Y-157507447D01*
X151429390Y-157429598D01*
X151653856Y-157315227D01*
X151857667Y-157167150D01*
X152035804Y-156989013D01*
X152183881Y-156785202D01*
X152298252Y-156560736D01*
X152376101Y-156321142D01*
X152415511Y-156072319D01*
X152415511Y-155820395D01*
X240168753Y-155820395D01*
X240168753Y-156072318D01*
X240208163Y-156321142D01*
X240286013Y-156560740D01*
X240400385Y-156785205D01*
X240548454Y-156989006D01*
X240548458Y-156989011D01*
X240726598Y-157167151D01*
X240726603Y-157167155D01*
X240904370Y-157296309D01*
X240930408Y-157315227D01*
X241073437Y-157388104D01*
X241154869Y-157429596D01*
X241154871Y-157429596D01*
X241154874Y-157429598D01*
X241394468Y-157507447D01*
X241643291Y-157546857D01*
X241643292Y-157546857D01*
X241895214Y-157546857D01*
X241895215Y-157546857D01*
X242144038Y-157507447D01*
X242383632Y-157429598D01*
X242608098Y-157315227D01*
X242811909Y-157167150D01*
X242990046Y-156989013D01*
X243138123Y-156785202D01*
X243252494Y-156560736D01*
X243330343Y-156321142D01*
X243369753Y-156072319D01*
X243369753Y-155820395D01*
X243330343Y-155571572D01*
X243252494Y-155331978D01*
X243252492Y-155331975D01*
X243252492Y-155331973D01*
X243211000Y-155250541D01*
X243138123Y-155107512D01*
X243119205Y-155081474D01*
X242990051Y-154903707D01*
X242990047Y-154903702D01*
X242811907Y-154725562D01*
X242811902Y-154725558D01*
X242608101Y-154577489D01*
X242608100Y-154577488D01*
X242608098Y-154577487D01*
X242538000Y-154541770D01*
X242383636Y-154463117D01*
X242144038Y-154385267D01*
X241895215Y-154345857D01*
X241643291Y-154345857D01*
X241518879Y-154365562D01*
X241394467Y-154385267D01*
X241154869Y-154463117D01*
X240930404Y-154577489D01*
X240726603Y-154725558D01*
X240726598Y-154725562D01*
X240548458Y-154903702D01*
X240548454Y-154903707D01*
X240400385Y-155107508D01*
X240286013Y-155331973D01*
X240208163Y-155571571D01*
X240168753Y-155820395D01*
X152415511Y-155820395D01*
X152376101Y-155571572D01*
X152298252Y-155331978D01*
X152298250Y-155331975D01*
X152298250Y-155331973D01*
X152256758Y-155250541D01*
X152183881Y-155107512D01*
X152164963Y-155081474D01*
X152035809Y-154903707D01*
X152035805Y-154903702D01*
X151857665Y-154725562D01*
X151857660Y-154725558D01*
X151653859Y-154577489D01*
X151653858Y-154577488D01*
X151653856Y-154577487D01*
X151583758Y-154541770D01*
X151429394Y-154463117D01*
X151189796Y-154385267D01*
X150940973Y-154345857D01*
X150689049Y-154345857D01*
X150564637Y-154365562D01*
X150440225Y-154385267D01*
X150200627Y-154463117D01*
X149976162Y-154577489D01*
X149772361Y-154725558D01*
X149772356Y-154725562D01*
X149594216Y-154903702D01*
X149594212Y-154903707D01*
X149446143Y-155107508D01*
X149331771Y-155331973D01*
X149253921Y-155571571D01*
X149214511Y-155820395D01*
X61369753Y-155820395D01*
X61330343Y-155571572D01*
X61252494Y-155331978D01*
X61252492Y-155331975D01*
X61252492Y-155331973D01*
X61211000Y-155250541D01*
X61138123Y-155107512D01*
X61119205Y-155081474D01*
X60990051Y-154903707D01*
X60990047Y-154903702D01*
X60811907Y-154725562D01*
X60811902Y-154725558D01*
X60608101Y-154577489D01*
X60608100Y-154577488D01*
X60608098Y-154577487D01*
X60538000Y-154541770D01*
X60383636Y-154463117D01*
X60144038Y-154385267D01*
X59895215Y-154345857D01*
X59643291Y-154345857D01*
X59518879Y-154365562D01*
X59394467Y-154385267D01*
X59154869Y-154463117D01*
X58930404Y-154577489D01*
X58726603Y-154725558D01*
X58726598Y-154725562D01*
X58548458Y-154903702D01*
X58548454Y-154903707D01*
X58400385Y-155107508D01*
X58286013Y-155331973D01*
X58208163Y-155571571D01*
X58168753Y-155820395D01*
X57269753Y-155820395D01*
X57269753Y-146537895D01*
X68002671Y-146537895D01*
X68002671Y-146789818D01*
X68042081Y-147038642D01*
X68119931Y-147278240D01*
X68234303Y-147502705D01*
X68382372Y-147706506D01*
X68382376Y-147706511D01*
X68560516Y-147884651D01*
X68560521Y-147884655D01*
X68738288Y-148013809D01*
X68764326Y-148032727D01*
X68907355Y-148105604D01*
X68988787Y-148147096D01*
X68988789Y-148147096D01*
X68988792Y-148147098D01*
X69228386Y-148224947D01*
X69477209Y-148264357D01*
X69477210Y-148264357D01*
X69729132Y-148264357D01*
X69729133Y-148264357D01*
X69977956Y-148224947D01*
X70217550Y-148147098D01*
X70442016Y-148032727D01*
X70645827Y-147884650D01*
X70823964Y-147706513D01*
X70972041Y-147502702D01*
X71086412Y-147278236D01*
X71164261Y-147038642D01*
X71203671Y-146789819D01*
X71203671Y-146537895D01*
X149214511Y-146537895D01*
X149214511Y-146789818D01*
X149253921Y-147038642D01*
X149331771Y-147278240D01*
X149446143Y-147502705D01*
X149594212Y-147706506D01*
X149594216Y-147706511D01*
X149772356Y-147884651D01*
X149772361Y-147884655D01*
X149950128Y-148013809D01*
X149976166Y-148032727D01*
X150119195Y-148105604D01*
X150200627Y-148147096D01*
X150200629Y-148147096D01*
X150200632Y-148147098D01*
X150440226Y-148224947D01*
X150689049Y-148264357D01*
X150689050Y-148264357D01*
X150940972Y-148264357D01*
X150940973Y-148264357D01*
X151189796Y-148224947D01*
X151429390Y-148147098D01*
X151653856Y-148032727D01*
X151857667Y-147884650D01*
X152035804Y-147706513D01*
X152183881Y-147502702D01*
X152298252Y-147278236D01*
X152376101Y-147038642D01*
X152415511Y-146789819D01*
X152415511Y-146537895D01*
X230996327Y-146537895D01*
X230996327Y-146789818D01*
X231035737Y-147038642D01*
X231113587Y-147278240D01*
X231227959Y-147502705D01*
X231376028Y-147706506D01*
X231376032Y-147706511D01*
X231554172Y-147884651D01*
X231554177Y-147884655D01*
X231731944Y-148013809D01*
X231757982Y-148032727D01*
X231901011Y-148105604D01*
X231982443Y-148147096D01*
X231982445Y-148147096D01*
X231982448Y-148147098D01*
X232222042Y-148224947D01*
X232470865Y-148264357D01*
X232470866Y-148264357D01*
X232722788Y-148264357D01*
X232722789Y-148264357D01*
X232971612Y-148224947D01*
X233211206Y-148147098D01*
X233435672Y-148032727D01*
X233639483Y-147884650D01*
X233817620Y-147706513D01*
X233965697Y-147502702D01*
X234080068Y-147278236D01*
X234157917Y-147038642D01*
X234197327Y-146789819D01*
X234197327Y-146537895D01*
X234157917Y-146289072D01*
X234080068Y-146049478D01*
X234080066Y-146049475D01*
X234080066Y-146049473D01*
X234038574Y-145968041D01*
X233965697Y-145825012D01*
X233946779Y-145798974D01*
X233817625Y-145621207D01*
X233817621Y-145621202D01*
X233639481Y-145443062D01*
X233639476Y-145443058D01*
X233435675Y-145294989D01*
X233435674Y-145294988D01*
X233435672Y-145294987D01*
X233365574Y-145259270D01*
X233211210Y-145180617D01*
X232971612Y-145102767D01*
X232722789Y-145063357D01*
X232470865Y-145063357D01*
X232346453Y-145083062D01*
X232222041Y-145102767D01*
X231982443Y-145180617D01*
X231757978Y-145294989D01*
X231554177Y-145443058D01*
X231554172Y-145443062D01*
X231376032Y-145621202D01*
X231376028Y-145621207D01*
X231227959Y-145825008D01*
X231113587Y-146049473D01*
X231035737Y-146289071D01*
X230996327Y-146537895D01*
X152415511Y-146537895D01*
X152376101Y-146289072D01*
X152298252Y-146049478D01*
X152298250Y-146049475D01*
X152298250Y-146049473D01*
X152256758Y-145968041D01*
X152183881Y-145825012D01*
X152164963Y-145798974D01*
X152035809Y-145621207D01*
X152035805Y-145621202D01*
X151857665Y-145443062D01*
X151857660Y-145443058D01*
X151653859Y-145294989D01*
X151653858Y-145294988D01*
X151653856Y-145294987D01*
X151583758Y-145259270D01*
X151429394Y-145180617D01*
X151189796Y-145102767D01*
X150940973Y-145063357D01*
X150689049Y-145063357D01*
X150564637Y-145083062D01*
X150440225Y-145102767D01*
X150200627Y-145180617D01*
X149976162Y-145294989D01*
X149772361Y-145443058D01*
X149772356Y-145443062D01*
X149594216Y-145621202D01*
X149594212Y-145621207D01*
X149446143Y-145825008D01*
X149331771Y-146049473D01*
X149253921Y-146289071D01*
X149214511Y-146537895D01*
X71203671Y-146537895D01*
X71164261Y-146289072D01*
X71086412Y-146049478D01*
X71086410Y-146049475D01*
X71086410Y-146049473D01*
X71044918Y-145968041D01*
X70972041Y-145825012D01*
X70953123Y-145798974D01*
X70823969Y-145621207D01*
X70823965Y-145621202D01*
X70645825Y-145443062D01*
X70645820Y-145443058D01*
X70442019Y-145294989D01*
X70442018Y-145294988D01*
X70442016Y-145294987D01*
X70371918Y-145259270D01*
X70217554Y-145180617D01*
X69977956Y-145102767D01*
X69729133Y-145063357D01*
X69477209Y-145063357D01*
X69352797Y-145083062D01*
X69228385Y-145102767D01*
X68988787Y-145180617D01*
X68764322Y-145294989D01*
X68560521Y-145443058D01*
X68560516Y-145443062D01*
X68382376Y-145621202D01*
X68382372Y-145621207D01*
X68234303Y-145825008D01*
X68119931Y-146049473D01*
X68042081Y-146289071D01*
X68002671Y-146537895D01*
X57269753Y-146537895D01*
X57269753Y-103991882D01*
X72835091Y-103991882D01*
X72835091Y-143623665D01*
X72869199Y-143750961D01*
X72902145Y-143808024D01*
X72935091Y-143865088D01*
X73028277Y-143958274D01*
X73142405Y-144024166D01*
X73269699Y-144058274D01*
X73269701Y-144058274D01*
X228901481Y-144058274D01*
X228901483Y-144058274D01*
X229028777Y-144024166D01*
X229142905Y-143958274D01*
X229236091Y-143865088D01*
X229301983Y-143750960D01*
X229336091Y-143623666D01*
X229336091Y-103991882D01*
X229301983Y-103864588D01*
X229236091Y-103750460D01*
X229142905Y-103657274D01*
X229085841Y-103624328D01*
X229028778Y-103591382D01*
X228965130Y-103574328D01*
X228901483Y-103557274D01*
X73401483Y-103557274D01*
X73269699Y-103557274D01*
X73142403Y-103591382D01*
X73028277Y-103657274D01*
X73028274Y-103657276D01*
X72935093Y-103750457D01*
X72935091Y-103750460D01*
X72869199Y-103864586D01*
X72835091Y-103991882D01*
X57269753Y-103991882D01*
X57269753Y-92320395D01*
X58168753Y-92320395D01*
X58168753Y-92572318D01*
X58208163Y-92821142D01*
X58286013Y-93060740D01*
X58400385Y-93285205D01*
X58548454Y-93489006D01*
X58548458Y-93489011D01*
X58726598Y-93667151D01*
X58726603Y-93667155D01*
X58904370Y-93796309D01*
X58930408Y-93815227D01*
X59073437Y-93888104D01*
X59154869Y-93929596D01*
X59154871Y-93929596D01*
X59154874Y-93929598D01*
X59394468Y-94007447D01*
X59643291Y-94046857D01*
X59643292Y-94046857D01*
X59895214Y-94046857D01*
X59895215Y-94046857D01*
X60144038Y-94007447D01*
X60383632Y-93929598D01*
X60608098Y-93815227D01*
X60811909Y-93667150D01*
X60990046Y-93489013D01*
X61138123Y-93285202D01*
X61252494Y-93060736D01*
X61330343Y-92821142D01*
X61369753Y-92572319D01*
X61369753Y-92320395D01*
X61330343Y-92071572D01*
X61252494Y-91831978D01*
X61252492Y-91831975D01*
X61252492Y-91831973D01*
X61211000Y-91750541D01*
X61138123Y-91607512D01*
X61019798Y-91444651D01*
X60990051Y-91403707D01*
X60990047Y-91403702D01*
X60811907Y-91225562D01*
X60811902Y-91225558D01*
X60608101Y-91077489D01*
X60608100Y-91077488D01*
X60608098Y-91077487D01*
X60538000Y-91041770D01*
X60383636Y-90963117D01*
X60144038Y-90885267D01*
X59895215Y-90845857D01*
X59643291Y-90845857D01*
X59518879Y-90865562D01*
X59394467Y-90885267D01*
X59154869Y-90963117D01*
X58930404Y-91077489D01*
X58726603Y-91225558D01*
X58726598Y-91225562D01*
X58548458Y-91403702D01*
X58548454Y-91403707D01*
X58400385Y-91607508D01*
X58286013Y-91831973D01*
X58208163Y-92071571D01*
X58168753Y-92320395D01*
X57269753Y-92320395D01*
X57269753Y-90095508D01*
X70359500Y-90095508D01*
X70359500Y-90347431D01*
X70398910Y-90596255D01*
X70476760Y-90835853D01*
X70591132Y-91060318D01*
X70739201Y-91264119D01*
X70739205Y-91264124D01*
X70917345Y-91442264D01*
X70917350Y-91442268D01*
X71095117Y-91571422D01*
X71121155Y-91590340D01*
X71264184Y-91663217D01*
X71345616Y-91704709D01*
X71345618Y-91704709D01*
X71345621Y-91704711D01*
X71585215Y-91782560D01*
X71834038Y-91821970D01*
X71834039Y-91821970D01*
X72085961Y-91821970D01*
X72085962Y-91821970D01*
X72334785Y-91782560D01*
X72574379Y-91704711D01*
X72798845Y-91590340D01*
X73002656Y-91442263D01*
X73180793Y-91264126D01*
X73328870Y-91060315D01*
X73443241Y-90835849D01*
X73521090Y-90596255D01*
X73560500Y-90347432D01*
X73560500Y-90095508D01*
X73521090Y-89846685D01*
X73443241Y-89607091D01*
X73443239Y-89607088D01*
X73443239Y-89607086D01*
X73401747Y-89525654D01*
X73328870Y-89382625D01*
X73182532Y-89181207D01*
X73180798Y-89178820D01*
X73180794Y-89178815D01*
X73002654Y-89000675D01*
X73002649Y-89000671D01*
X72798848Y-88852602D01*
X72798847Y-88852601D01*
X72798845Y-88852600D01*
X72728747Y-88816883D01*
X72574383Y-88738230D01*
X72334785Y-88660380D01*
X72085962Y-88620970D01*
X71834038Y-88620970D01*
X71709626Y-88640675D01*
X71585214Y-88660380D01*
X71345616Y-88738230D01*
X71121151Y-88852602D01*
X70917350Y-89000671D01*
X70917345Y-89000675D01*
X70739205Y-89178815D01*
X70739201Y-89178820D01*
X70591132Y-89382621D01*
X70476760Y-89607086D01*
X70398910Y-89846684D01*
X70359500Y-90095508D01*
X57269753Y-90095508D01*
X57269753Y-45897895D01*
X70363298Y-45897895D01*
X70363298Y-46149818D01*
X70402708Y-46398642D01*
X70480558Y-46638240D01*
X70543598Y-46761961D01*
X70589834Y-46852705D01*
X70594930Y-46862705D01*
X70742999Y-47066506D01*
X70743003Y-47066511D01*
X70921143Y-47244651D01*
X70921148Y-47244655D01*
X70978504Y-47286326D01*
X71124953Y-47392727D01*
X71267982Y-47465604D01*
X71349414Y-47507096D01*
X71349416Y-47507096D01*
X71349419Y-47507098D01*
X71589013Y-47584947D01*
X71837836Y-47624357D01*
X71837837Y-47624357D01*
X72089759Y-47624357D01*
X72089760Y-47624357D01*
X72338583Y-47584947D01*
X72578177Y-47507098D01*
X72802643Y-47392727D01*
X73006454Y-47244650D01*
X73184591Y-47066513D01*
X73332668Y-46862702D01*
X73447039Y-46638236D01*
X73524888Y-46398642D01*
X73564298Y-46149819D01*
X73564298Y-45897895D01*
X73524888Y-45649072D01*
X73447039Y-45409478D01*
X73447037Y-45409475D01*
X73447037Y-45409473D01*
X73405545Y-45328041D01*
X73332668Y-45185012D01*
X73313750Y-45158974D01*
X73184596Y-44981207D01*
X73184592Y-44981202D01*
X73006452Y-44803062D01*
X73006447Y-44803058D01*
X72802646Y-44654989D01*
X72802645Y-44654988D01*
X72802643Y-44654987D01*
X72732545Y-44619270D01*
X72578181Y-44540617D01*
X72338583Y-44462767D01*
X72275446Y-44452767D01*
X72089760Y-44423357D01*
X71837836Y-44423357D01*
X71713424Y-44443062D01*
X71589012Y-44462767D01*
X71349414Y-44540617D01*
X71124949Y-44654989D01*
X70921148Y-44803058D01*
X70921143Y-44803062D01*
X70743003Y-44981202D01*
X70742999Y-44981207D01*
X70594930Y-45185008D01*
X70480558Y-45409473D01*
X70402708Y-45649071D01*
X70363298Y-45897895D01*
X57269753Y-45897895D01*
X57269753Y-42557967D01*
X74069502Y-42557967D01*
X74069502Y-93689750D01*
X74103610Y-93817046D01*
X74136556Y-93874109D01*
X74169502Y-93931173D01*
X74262688Y-94024359D01*
X74376816Y-94090251D01*
X74504110Y-94124359D01*
X74504112Y-94124359D01*
X145135892Y-94124359D01*
X145135894Y-94124359D01*
X145263188Y-94090251D01*
X145377316Y-94024359D01*
X145470502Y-93931173D01*
X145536394Y-93817045D01*
X145570502Y-93689751D01*
X145570502Y-92320395D01*
X240168753Y-92320395D01*
X240168753Y-92572318D01*
X240208163Y-92821142D01*
X240286013Y-93060740D01*
X240400385Y-93285205D01*
X240548454Y-93489006D01*
X240548458Y-93489011D01*
X240726598Y-93667151D01*
X240726603Y-93667155D01*
X240904370Y-93796309D01*
X240930408Y-93815227D01*
X241073437Y-93888104D01*
X241154869Y-93929596D01*
X241154871Y-93929596D01*
X241154874Y-93929598D01*
X241394468Y-94007447D01*
X241643291Y-94046857D01*
X241643292Y-94046857D01*
X241895214Y-94046857D01*
X241895215Y-94046857D01*
X242144038Y-94007447D01*
X242383632Y-93929598D01*
X242608098Y-93815227D01*
X242811909Y-93667150D01*
X242990046Y-93489013D01*
X243138123Y-93285202D01*
X243252494Y-93060736D01*
X243330343Y-92821142D01*
X243369753Y-92572319D01*
X243369753Y-92320395D01*
X243330343Y-92071572D01*
X243252494Y-91831978D01*
X243252492Y-91831975D01*
X243252492Y-91831973D01*
X243211000Y-91750541D01*
X243138123Y-91607512D01*
X243019798Y-91444651D01*
X242990051Y-91403707D01*
X242990047Y-91403702D01*
X242811907Y-91225562D01*
X242811902Y-91225558D01*
X242608101Y-91077489D01*
X242608100Y-91077488D01*
X242608098Y-91077487D01*
X242538000Y-91041770D01*
X242383636Y-90963117D01*
X242144038Y-90885267D01*
X241895215Y-90845857D01*
X241643291Y-90845857D01*
X241518879Y-90865562D01*
X241394467Y-90885267D01*
X241154869Y-90963117D01*
X240930404Y-91077489D01*
X240726603Y-91225558D01*
X240726598Y-91225562D01*
X240548458Y-91403702D01*
X240548454Y-91403707D01*
X240400385Y-91607508D01*
X240286013Y-91831973D01*
X240208163Y-92071571D01*
X240168753Y-92320395D01*
X145570502Y-92320395D01*
X145570502Y-90097895D01*
X146059115Y-90097895D01*
X146059115Y-90349818D01*
X146098525Y-90598642D01*
X146176375Y-90838240D01*
X146200337Y-90885267D01*
X146289530Y-91060318D01*
X146290747Y-91062705D01*
X146438816Y-91266506D01*
X146438820Y-91266511D01*
X146616960Y-91444651D01*
X146616965Y-91444655D01*
X146794732Y-91573809D01*
X146820770Y-91592727D01*
X146963799Y-91665604D01*
X147045231Y-91707096D01*
X147045233Y-91707096D01*
X147045236Y-91707098D01*
X147284830Y-91784947D01*
X147533653Y-91824357D01*
X147533654Y-91824357D01*
X147785576Y-91824357D01*
X147785577Y-91824357D01*
X148034400Y-91784947D01*
X148273994Y-91707098D01*
X148498460Y-91592727D01*
X148702271Y-91444650D01*
X148880408Y-91266513D01*
X149028485Y-91062702D01*
X149142856Y-90838236D01*
X149220705Y-90598642D01*
X149260115Y-90349819D01*
X149260115Y-90097895D01*
X149220705Y-89849072D01*
X149142856Y-89609478D01*
X149142854Y-89609475D01*
X149142854Y-89609473D01*
X149101362Y-89528041D01*
X149028485Y-89385012D01*
X149009567Y-89358974D01*
X148880413Y-89181207D01*
X148880409Y-89181202D01*
X148702269Y-89003062D01*
X148702264Y-89003058D01*
X148498463Y-88854989D01*
X148498462Y-88854988D01*
X148498460Y-88854987D01*
X148428362Y-88819270D01*
X148273998Y-88740617D01*
X148034400Y-88662767D01*
X148019329Y-88660380D01*
X147785577Y-88623357D01*
X147533653Y-88623357D01*
X147409241Y-88643062D01*
X147284829Y-88662767D01*
X147045231Y-88740617D01*
X146820766Y-88854989D01*
X146616965Y-89003058D01*
X146616960Y-89003062D01*
X146438820Y-89181202D01*
X146438816Y-89181207D01*
X146290747Y-89385008D01*
X146176375Y-89609473D01*
X146098525Y-89849071D01*
X146059115Y-90097895D01*
X145570502Y-90097895D01*
X145570502Y-78459174D01*
X156449500Y-78459174D01*
X156449500Y-78830343D01*
X156481849Y-79200091D01*
X156485165Y-79218895D01*
X156546301Y-79565612D01*
X156548966Y-79575558D01*
X156642362Y-79924120D01*
X156769306Y-80272899D01*
X156926164Y-80609281D01*
X156926172Y-80609297D01*
X156937025Y-80628095D01*
X157111750Y-80930727D01*
X157111754Y-80930733D01*
X157111761Y-80930744D01*
X157324639Y-81234765D01*
X157357214Y-81273586D01*
X157563217Y-81519091D01*
X157825668Y-81781542D01*
X157918084Y-81859088D01*
X158109993Y-82020119D01*
X158414014Y-82232997D01*
X158414021Y-82233001D01*
X158414032Y-82233009D01*
X158735468Y-82418590D01*
X158775802Y-82437398D01*
X159071859Y-82575452D01*
X159332566Y-82670341D01*
X159420632Y-82702394D01*
X159420633Y-82702394D01*
X159420638Y-82702396D01*
X159533267Y-82732574D01*
X159779147Y-82798458D01*
X160144670Y-82862910D01*
X160514417Y-82895258D01*
X160514418Y-82895259D01*
X160514419Y-82895259D01*
X160885582Y-82895259D01*
X160885582Y-82895258D01*
X161255330Y-82862910D01*
X161620853Y-82798458D01*
X161979368Y-82702394D01*
X162300813Y-82585398D01*
X162328140Y-82575452D01*
X162328141Y-82575451D01*
X162328145Y-82575450D01*
X162664532Y-82418590D01*
X162985968Y-82233009D01*
X163290005Y-82020120D01*
X163574332Y-81781542D01*
X163836783Y-81519091D01*
X164075361Y-81234764D01*
X164288250Y-80930727D01*
X164473831Y-80609291D01*
X164630691Y-80272904D01*
X164757635Y-79924127D01*
X164853699Y-79565612D01*
X164918151Y-79200089D01*
X164950500Y-78830340D01*
X164950500Y-78469120D01*
X185399500Y-78469120D01*
X185399500Y-78840289D01*
X185430979Y-79200089D01*
X185431849Y-79210035D01*
X185496301Y-79575558D01*
X185498676Y-79584423D01*
X185592362Y-79934066D01*
X185719306Y-80282845D01*
X185876164Y-80619227D01*
X185876172Y-80619243D01*
X185996115Y-80826990D01*
X186061750Y-80940673D01*
X186061754Y-80940679D01*
X186061761Y-80940690D01*
X186274639Y-81244711D01*
X186431750Y-81431948D01*
X186513217Y-81529037D01*
X186775668Y-81791488D01*
X186804499Y-81815680D01*
X187059993Y-82030065D01*
X187364014Y-82242943D01*
X187364021Y-82242947D01*
X187364032Y-82242955D01*
X187685468Y-82428536D01*
X187704464Y-82437394D01*
X188021859Y-82585398D01*
X188282566Y-82680287D01*
X188370632Y-82712340D01*
X188370633Y-82712340D01*
X188370638Y-82712342D01*
X188483267Y-82742520D01*
X188729147Y-82808404D01*
X189094670Y-82872856D01*
X189464417Y-82905204D01*
X189464418Y-82905205D01*
X189464419Y-82905205D01*
X189835582Y-82905205D01*
X189835582Y-82905204D01*
X190205330Y-82872856D01*
X190570853Y-82808404D01*
X190929368Y-82712340D01*
X191191821Y-82616815D01*
X191278140Y-82585398D01*
X191278141Y-82585397D01*
X191278145Y-82585396D01*
X191614532Y-82428536D01*
X191935968Y-82242955D01*
X192240005Y-82030066D01*
X192524332Y-81791488D01*
X192786783Y-81529037D01*
X193025361Y-81244710D01*
X193238250Y-80940673D01*
X193423831Y-80619237D01*
X193580691Y-80282850D01*
X193707635Y-79934073D01*
X193803699Y-79575558D01*
X193868151Y-79210035D01*
X193900500Y-78840286D01*
X193900500Y-78477978D01*
X214359500Y-78477978D01*
X214359500Y-78849147D01*
X214391849Y-79218895D01*
X214456300Y-79584410D01*
X214456303Y-79584423D01*
X214552362Y-79942924D01*
X214679306Y-80291703D01*
X214832038Y-80619237D01*
X214836169Y-80628095D01*
X215021750Y-80949531D01*
X215021754Y-80949537D01*
X215021761Y-80949548D01*
X215234639Y-81253569D01*
X215384317Y-81431948D01*
X215473217Y-81537895D01*
X215735668Y-81800346D01*
X215828084Y-81877892D01*
X216019993Y-82038923D01*
X216324014Y-82251801D01*
X216324021Y-82251805D01*
X216324032Y-82251813D01*
X216645468Y-82437394D01*
X216645477Y-82437398D01*
X216981859Y-82594256D01*
X217242566Y-82689145D01*
X217330632Y-82721198D01*
X217330633Y-82721198D01*
X217330638Y-82721200D01*
X217443267Y-82751378D01*
X217689147Y-82817262D01*
X218054670Y-82881714D01*
X218424417Y-82914062D01*
X218424418Y-82914063D01*
X218424419Y-82914063D01*
X218795582Y-82914063D01*
X218795582Y-82914062D01*
X219165330Y-82881714D01*
X219530853Y-82817262D01*
X219889368Y-82721198D01*
X220238145Y-82594254D01*
X220574532Y-82437394D01*
X220895968Y-82251813D01*
X221200005Y-82038924D01*
X221484332Y-81800346D01*
X221746783Y-81537895D01*
X221985361Y-81253568D01*
X222198250Y-80949531D01*
X222383831Y-80628095D01*
X222540691Y-80291708D01*
X222667635Y-79942931D01*
X222670009Y-79934073D01*
X222717110Y-79758287D01*
X222763699Y-79584416D01*
X222828151Y-79218893D01*
X222860500Y-78849144D01*
X222860500Y-78477982D01*
X222828151Y-78108233D01*
X222763699Y-77742710D01*
X222667635Y-77384195D01*
X222620765Y-77255419D01*
X222540693Y-77035422D01*
X222383835Y-76699040D01*
X222383827Y-76699024D01*
X222372177Y-76678846D01*
X222198250Y-76377595D01*
X222198242Y-76377584D01*
X222198238Y-76377577D01*
X221985360Y-76073556D01*
X221746780Y-75789228D01*
X221484334Y-75526782D01*
X221473777Y-75517924D01*
X221391916Y-75449234D01*
X221200006Y-75288202D01*
X220895985Y-75075324D01*
X220895974Y-75075317D01*
X220895968Y-75075313D01*
X220800470Y-75020177D01*
X220574538Y-74889735D01*
X220574522Y-74889727D01*
X220238140Y-74732869D01*
X219889361Y-74605925D01*
X219530860Y-74509866D01*
X219530863Y-74509866D01*
X219530853Y-74509864D01*
X219479246Y-74500764D01*
X219165332Y-74445412D01*
X218795584Y-74413063D01*
X218795581Y-74413063D01*
X218424419Y-74413063D01*
X218424415Y-74413063D01*
X218054667Y-74445412D01*
X217689152Y-74509863D01*
X217689149Y-74509863D01*
X217689147Y-74509864D01*
X217689142Y-74509865D01*
X217689139Y-74509866D01*
X217330638Y-74605925D01*
X216981859Y-74732869D01*
X216645477Y-74889727D01*
X216645461Y-74889735D01*
X216324040Y-75075308D01*
X216324014Y-75075324D01*
X216019993Y-75288202D01*
X215735665Y-75526782D01*
X215473219Y-75789228D01*
X215234639Y-76073556D01*
X215021761Y-76377577D01*
X215021745Y-76377603D01*
X214836172Y-76699024D01*
X214836164Y-76699040D01*
X214679306Y-77035422D01*
X214552362Y-77384201D01*
X214456303Y-77742702D01*
X214456300Y-77742715D01*
X214391849Y-78108230D01*
X214359500Y-78477978D01*
X193900500Y-78477978D01*
X193900500Y-78469124D01*
X193868151Y-78099375D01*
X193803699Y-77733852D01*
X193710010Y-77384201D01*
X193707637Y-77375343D01*
X193580693Y-77026564D01*
X193427966Y-76699040D01*
X193423831Y-76690173D01*
X193238250Y-76368737D01*
X193238242Y-76368726D01*
X193238238Y-76368719D01*
X193025360Y-76064698D01*
X192851559Y-75857570D01*
X192786783Y-75780373D01*
X192524332Y-75517922D01*
X192405222Y-75417977D01*
X192240006Y-75279344D01*
X191935985Y-75066466D01*
X191935974Y-75066459D01*
X191935968Y-75066455D01*
X191629875Y-74889732D01*
X191614538Y-74880877D01*
X191614522Y-74880869D01*
X191278140Y-74724011D01*
X190929361Y-74597067D01*
X190570860Y-74501008D01*
X190570863Y-74501008D01*
X190570853Y-74501006D01*
X190514441Y-74491059D01*
X190205332Y-74436554D01*
X189835584Y-74404205D01*
X189835581Y-74404205D01*
X189464419Y-74404205D01*
X189464415Y-74404205D01*
X189094667Y-74436554D01*
X188729152Y-74501005D01*
X188729149Y-74501005D01*
X188729147Y-74501006D01*
X188729142Y-74501007D01*
X188729139Y-74501008D01*
X188370638Y-74597067D01*
X188021859Y-74724011D01*
X187685477Y-74880869D01*
X187685461Y-74880877D01*
X187364040Y-75066450D01*
X187364014Y-75066466D01*
X187059993Y-75279344D01*
X186775665Y-75517924D01*
X186513219Y-75780370D01*
X186274639Y-76064698D01*
X186061761Y-76368719D01*
X186061745Y-76368745D01*
X185876172Y-76690166D01*
X185876164Y-76690182D01*
X185719306Y-77026564D01*
X185592362Y-77375343D01*
X185496303Y-77733844D01*
X185496300Y-77733857D01*
X185431849Y-78099372D01*
X185399500Y-78469120D01*
X164950500Y-78469120D01*
X164950500Y-78459178D01*
X164918151Y-78089429D01*
X164853699Y-77723906D01*
X164757635Y-77365391D01*
X164637537Y-77035422D01*
X164630693Y-77016618D01*
X164487264Y-76709034D01*
X164473831Y-76680227D01*
X164288250Y-76358791D01*
X164288242Y-76358780D01*
X164288238Y-76358773D01*
X164075360Y-76054752D01*
X163852561Y-75789231D01*
X163836783Y-75770427D01*
X163574332Y-75507976D01*
X163467075Y-75417977D01*
X163290006Y-75269398D01*
X162985985Y-75056520D01*
X162985974Y-75056513D01*
X162985968Y-75056509D01*
X162697102Y-74889732D01*
X162664538Y-74870931D01*
X162664522Y-74870923D01*
X162328140Y-74714065D01*
X161979361Y-74587121D01*
X161620860Y-74491062D01*
X161620863Y-74491062D01*
X161620853Y-74491060D01*
X161569246Y-74481960D01*
X161255332Y-74426608D01*
X160885584Y-74394259D01*
X160885581Y-74394259D01*
X160514419Y-74394259D01*
X160514415Y-74394259D01*
X160144667Y-74426608D01*
X159779152Y-74491059D01*
X159779149Y-74491059D01*
X159779147Y-74491060D01*
X159779142Y-74491061D01*
X159779139Y-74491062D01*
X159420638Y-74587121D01*
X159071859Y-74714065D01*
X158735477Y-74870923D01*
X158735461Y-74870931D01*
X158414040Y-75056504D01*
X158414014Y-75056520D01*
X158109993Y-75269398D01*
X157825665Y-75507978D01*
X157563219Y-75770424D01*
X157324639Y-76054752D01*
X157111761Y-76358773D01*
X157111745Y-76358799D01*
X156926172Y-76680220D01*
X156926164Y-76680236D01*
X156769306Y-77016618D01*
X156642362Y-77365397D01*
X156546303Y-77723898D01*
X156546300Y-77723911D01*
X156481849Y-78089426D01*
X156449500Y-78459174D01*
X145570502Y-78459174D01*
X145570502Y-49969695D01*
X153329500Y-49969695D01*
X153329500Y-50317944D01*
X153368489Y-50663978D01*
X153368490Y-50663987D01*
X153368491Y-50663991D01*
X153373288Y-50685008D01*
X153445982Y-51003504D01*
X153445985Y-51003512D01*
X153560999Y-51332202D01*
X153712092Y-51645950D01*
X153897371Y-51940819D01*
X153897372Y-51940821D01*
X154114487Y-52213076D01*
X154360743Y-52459332D01*
X154632998Y-52676447D01*
X154633001Y-52676448D01*
X154633003Y-52676450D01*
X154927867Y-52861726D01*
X155241621Y-53012822D01*
X155485544Y-53098174D01*
X155570307Y-53127834D01*
X155570315Y-53127837D01*
X155570318Y-53127837D01*
X155570319Y-53127838D01*
X155909829Y-53205329D01*
X156255876Y-53244319D01*
X156255877Y-53244320D01*
X156255880Y-53244320D01*
X156604123Y-53244320D01*
X156604123Y-53244319D01*
X156950171Y-53205329D01*
X157289681Y-53127838D01*
X157618379Y-53012822D01*
X157932133Y-52861726D01*
X158226997Y-52676450D01*
X158255169Y-52653984D01*
X158499256Y-52459332D01*
X158499258Y-52459329D01*
X158499263Y-52459326D01*
X158745506Y-52213083D01*
X158753535Y-52203016D01*
X158962627Y-51940821D01*
X158962628Y-51940819D01*
X158962630Y-51940817D01*
X159147906Y-51645953D01*
X159299002Y-51332199D01*
X159414018Y-51003501D01*
X159491509Y-50663991D01*
X159530500Y-50317940D01*
X159530500Y-49979198D01*
X166979500Y-49979198D01*
X166979500Y-50010324D01*
X166979500Y-50332960D01*
X166989923Y-50438786D01*
X167014173Y-50685008D01*
X167014176Y-50685025D01*
X167083185Y-51031963D01*
X167083188Y-51031974D01*
X167185882Y-51370515D01*
X167321262Y-51697350D01*
X167321264Y-51697355D01*
X167488017Y-52009326D01*
X167488028Y-52009344D01*
X167684558Y-52303472D01*
X167684568Y-52303486D01*
X167908992Y-52576948D01*
X168159130Y-52827086D01*
X168159135Y-52827090D01*
X168159136Y-52827091D01*
X168432598Y-53051515D01*
X168726741Y-53248055D01*
X168726750Y-53248060D01*
X168726752Y-53248061D01*
X169038723Y-53414814D01*
X169038725Y-53414814D01*
X169038731Y-53414818D01*
X169365565Y-53550197D01*
X169704095Y-53652888D01*
X169704101Y-53652889D01*
X169704104Y-53652890D01*
X169704115Y-53652893D01*
X169921674Y-53696167D01*
X170051060Y-53721904D01*
X170403119Y-53756579D01*
X170403122Y-53756579D01*
X170756878Y-53756579D01*
X170756881Y-53756579D01*
X171108940Y-53721904D01*
X171280679Y-53687742D01*
X171455884Y-53652893D01*
X171455895Y-53652890D01*
X171455895Y-53652889D01*
X171455905Y-53652888D01*
X171794435Y-53550197D01*
X172121269Y-53414818D01*
X172433259Y-53248055D01*
X172727402Y-53051515D01*
X173000864Y-52827091D01*
X173251012Y-52576943D01*
X173475436Y-52303481D01*
X173671976Y-52009338D01*
X173838739Y-51697348D01*
X173974118Y-51370514D01*
X174076809Y-51031984D01*
X174076811Y-51031974D01*
X174076814Y-51031963D01*
X174119230Y-50818719D01*
X174145825Y-50685019D01*
X174180500Y-50332960D01*
X174180500Y-49979198D01*
X174180094Y-49975076D01*
X185409500Y-49975076D01*
X185409500Y-50346245D01*
X185441849Y-50715993D01*
X185506300Y-51081508D01*
X185506303Y-51081521D01*
X185602362Y-51440022D01*
X185729306Y-51788801D01*
X185886164Y-52125183D01*
X185886172Y-52125199D01*
X185989106Y-52303486D01*
X186071750Y-52446629D01*
X186071754Y-52446635D01*
X186071761Y-52446646D01*
X186284639Y-52750667D01*
X186377829Y-52861726D01*
X186523217Y-53034993D01*
X186785668Y-53297444D01*
X186878084Y-53374990D01*
X187069993Y-53536021D01*
X187374014Y-53748899D01*
X187374021Y-53748903D01*
X187374032Y-53748911D01*
X187695468Y-53934492D01*
X187695477Y-53934496D01*
X188031859Y-54091354D01*
X188292566Y-54186243D01*
X188380632Y-54218296D01*
X188380633Y-54218296D01*
X188380638Y-54218298D01*
X188493267Y-54248476D01*
X188739147Y-54314360D01*
X189104670Y-54378812D01*
X189474417Y-54411160D01*
X189474418Y-54411161D01*
X189474419Y-54411161D01*
X189845582Y-54411161D01*
X189845582Y-54411160D01*
X190215330Y-54378812D01*
X190580853Y-54314360D01*
X190939368Y-54218296D01*
X191288145Y-54091352D01*
X191624532Y-53934492D01*
X191945968Y-53748911D01*
X192250005Y-53536022D01*
X192534332Y-53297444D01*
X192796783Y-53034993D01*
X193035361Y-52750666D01*
X193248250Y-52446629D01*
X193433831Y-52125193D01*
X193590691Y-51788806D01*
X193717635Y-51440029D01*
X193813699Y-51081514D01*
X193878151Y-50715991D01*
X193910500Y-50346242D01*
X193910500Y-49975080D01*
X193910329Y-49973129D01*
X193910328Y-49973119D01*
X205119500Y-49973119D01*
X205119500Y-50004245D01*
X205119500Y-50326881D01*
X205129923Y-50432707D01*
X205154173Y-50678929D01*
X205154176Y-50678946D01*
X205223185Y-51025884D01*
X205223188Y-51025895D01*
X205325882Y-51364436D01*
X205461262Y-51691271D01*
X205461264Y-51691276D01*
X205628017Y-52003247D01*
X205628028Y-52003265D01*
X205824558Y-52297393D01*
X205824568Y-52297407D01*
X206048992Y-52570869D01*
X206299130Y-52821007D01*
X206299135Y-52821011D01*
X206299136Y-52821012D01*
X206572598Y-53045436D01*
X206866741Y-53241976D01*
X206866750Y-53241981D01*
X206866752Y-53241982D01*
X207178723Y-53408735D01*
X207178725Y-53408735D01*
X207178731Y-53408739D01*
X207505565Y-53544118D01*
X207844095Y-53646809D01*
X207844101Y-53646810D01*
X207844104Y-53646811D01*
X207844115Y-53646814D01*
X208061674Y-53690088D01*
X208191060Y-53715825D01*
X208543119Y-53750500D01*
X208543122Y-53750500D01*
X208896878Y-53750500D01*
X208896881Y-53750500D01*
X209248940Y-53715825D01*
X209420679Y-53681663D01*
X209595884Y-53646814D01*
X209595895Y-53646811D01*
X209595895Y-53646810D01*
X209595905Y-53646809D01*
X209934435Y-53544118D01*
X210261269Y-53408739D01*
X210573259Y-53241976D01*
X210867402Y-53045436D01*
X211140864Y-52821012D01*
X211391012Y-52570864D01*
X211615436Y-52297402D01*
X211811976Y-52003259D01*
X211978739Y-51691269D01*
X212114118Y-51364435D01*
X212216809Y-51025905D01*
X212216811Y-51025895D01*
X212216814Y-51025884D01*
X212258028Y-50818682D01*
X212285825Y-50678940D01*
X212320500Y-50326881D01*
X212320500Y-49973119D01*
X212320166Y-49969732D01*
X219741970Y-49969732D01*
X219741970Y-50317981D01*
X219780959Y-50664015D01*
X219780960Y-50664024D01*
X219780961Y-50664028D01*
X219792821Y-50715991D01*
X219858452Y-51003541D01*
X219858455Y-51003549D01*
X219973469Y-51332239D01*
X220124562Y-51645987D01*
X220309841Y-51940856D01*
X220309842Y-51940858D01*
X220526957Y-52213113D01*
X220773213Y-52459369D01*
X221045468Y-52676484D01*
X221045471Y-52676485D01*
X221045473Y-52676487D01*
X221340337Y-52861763D01*
X221654091Y-53012859D01*
X221897908Y-53098174D01*
X221982777Y-53127871D01*
X221982785Y-53127874D01*
X221982788Y-53127874D01*
X221982789Y-53127875D01*
X222322299Y-53205366D01*
X222668346Y-53244356D01*
X222668347Y-53244357D01*
X222668350Y-53244357D01*
X223016593Y-53244357D01*
X223016593Y-53244356D01*
X223362641Y-53205366D01*
X223702151Y-53127875D01*
X224030849Y-53012859D01*
X224344603Y-52861763D01*
X224639467Y-52676487D01*
X224639471Y-52676484D01*
X224911726Y-52459369D01*
X224911728Y-52459366D01*
X224911733Y-52459363D01*
X225157976Y-52213120D01*
X225158012Y-52213076D01*
X225375097Y-51940858D01*
X225375098Y-51940856D01*
X225375100Y-51940854D01*
X225560376Y-51645990D01*
X225711472Y-51332236D01*
X225826488Y-51003538D01*
X225903979Y-50664028D01*
X225942970Y-50317977D01*
X225942970Y-49969737D01*
X225903979Y-49623686D01*
X225826488Y-49284176D01*
X225711472Y-48955478D01*
X225560376Y-48641724D01*
X225375100Y-48346860D01*
X225375098Y-48346857D01*
X225375097Y-48346855D01*
X225157982Y-48074600D01*
X224911726Y-47828344D01*
X224639471Y-47611229D01*
X224639469Y-47611228D01*
X224344600Y-47425949D01*
X224030852Y-47274856D01*
X223702162Y-47159842D01*
X223702154Y-47159839D01*
X223444860Y-47101114D01*
X223362641Y-47082348D01*
X223362637Y-47082347D01*
X223362628Y-47082346D01*
X223016594Y-47043357D01*
X223016590Y-47043357D01*
X222668350Y-47043357D01*
X222668345Y-47043357D01*
X222322311Y-47082346D01*
X222322299Y-47082348D01*
X221982785Y-47159839D01*
X221982777Y-47159842D01*
X221654087Y-47274856D01*
X221340339Y-47425949D01*
X221045470Y-47611228D01*
X221045468Y-47611229D01*
X220773213Y-47828344D01*
X220526957Y-48074600D01*
X220309842Y-48346855D01*
X220309841Y-48346857D01*
X220124562Y-48641726D01*
X219973469Y-48955474D01*
X219858455Y-49284164D01*
X219858452Y-49284172D01*
X219780961Y-49623686D01*
X219780959Y-49623698D01*
X219741970Y-49969732D01*
X212320166Y-49969732D01*
X212285825Y-49621060D01*
X212249103Y-49436445D01*
X212216814Y-49274115D01*
X212216811Y-49274104D01*
X212216810Y-49274101D01*
X212216809Y-49274095D01*
X212114118Y-48935565D01*
X211978739Y-48608731D01*
X211955561Y-48565369D01*
X211811982Y-48296752D01*
X211811981Y-48296750D01*
X211811976Y-48296741D01*
X211615436Y-48002598D01*
X211391012Y-47729136D01*
X211391011Y-47729135D01*
X211391007Y-47729130D01*
X211140869Y-47478992D01*
X210867407Y-47254568D01*
X210867406Y-47254567D01*
X210867402Y-47254564D01*
X210573259Y-47058024D01*
X210573254Y-47058021D01*
X210573247Y-47058017D01*
X210261276Y-46891264D01*
X210261271Y-46891262D01*
X209934436Y-46755882D01*
X209595895Y-46653188D01*
X209595884Y-46653185D01*
X209248946Y-46584176D01*
X209248929Y-46584173D01*
X208982700Y-46557952D01*
X208896881Y-46549500D01*
X208543119Y-46549500D01*
X208463748Y-46557317D01*
X208191070Y-46584173D01*
X208191053Y-46584176D01*
X207844115Y-46653185D01*
X207844104Y-46653188D01*
X207505563Y-46755882D01*
X207178728Y-46891262D01*
X207178723Y-46891264D01*
X206866752Y-47058017D01*
X206866734Y-47058028D01*
X206572606Y-47254558D01*
X206572592Y-47254568D01*
X206299130Y-47478992D01*
X206048992Y-47729130D01*
X205824568Y-48002592D01*
X205824558Y-48002606D01*
X205628028Y-48296734D01*
X205628017Y-48296752D01*
X205461264Y-48608723D01*
X205461262Y-48608728D01*
X205325882Y-48935563D01*
X205223188Y-49274104D01*
X205223185Y-49274115D01*
X205154176Y-49621053D01*
X205154173Y-49621070D01*
X205143025Y-49734265D01*
X205119500Y-49973119D01*
X193910328Y-49973119D01*
X193889428Y-49734228D01*
X193878151Y-49605331D01*
X193813699Y-49239808D01*
X193733806Y-48941644D01*
X193717637Y-48881299D01*
X193590693Y-48532520D01*
X193504099Y-48346820D01*
X193433831Y-48196129D01*
X193248250Y-47874693D01*
X193248242Y-47874682D01*
X193248238Y-47874675D01*
X193035360Y-47570654D01*
X192796780Y-47286326D01*
X192534334Y-47023880D01*
X192516057Y-47008544D01*
X192441916Y-46946332D01*
X192250006Y-46785300D01*
X191945985Y-46572422D01*
X191945974Y-46572415D01*
X191945968Y-46572411D01*
X191802313Y-46489472D01*
X191624538Y-46386833D01*
X191624522Y-46386825D01*
X191288140Y-46229967D01*
X190939361Y-46103023D01*
X190580860Y-46006964D01*
X190580863Y-46006964D01*
X190580853Y-46006962D01*
X190529246Y-45997862D01*
X190215332Y-45942510D01*
X189845584Y-45910161D01*
X189845581Y-45910161D01*
X189474419Y-45910161D01*
X189474415Y-45910161D01*
X189104667Y-45942510D01*
X188739152Y-46006961D01*
X188739149Y-46006961D01*
X188739147Y-46006962D01*
X188739142Y-46006963D01*
X188739139Y-46006964D01*
X188380638Y-46103023D01*
X188031859Y-46229967D01*
X187695477Y-46386825D01*
X187695461Y-46386833D01*
X187374040Y-46572406D01*
X187374014Y-46572422D01*
X187069993Y-46785300D01*
X186785665Y-47023880D01*
X186523219Y-47286326D01*
X186284639Y-47570654D01*
X186071761Y-47874675D01*
X186071745Y-47874701D01*
X185886172Y-48196122D01*
X185886164Y-48196138D01*
X185729306Y-48532520D01*
X185602362Y-48881299D01*
X185506303Y-49239800D01*
X185506300Y-49239813D01*
X185441849Y-49605328D01*
X185409500Y-49975076D01*
X174180094Y-49975076D01*
X174145825Y-49627139D01*
X174114361Y-49468958D01*
X174076814Y-49280194D01*
X174076811Y-49280183D01*
X174076810Y-49280180D01*
X174076809Y-49280174D01*
X173974118Y-48941644D01*
X173838739Y-48614810D01*
X173835485Y-48608723D01*
X173671982Y-48302831D01*
X173671981Y-48302829D01*
X173671976Y-48302820D01*
X173475436Y-48008677D01*
X173251012Y-47735215D01*
X173251011Y-47735214D01*
X173251007Y-47735209D01*
X173000869Y-47485071D01*
X172727407Y-47260647D01*
X172727406Y-47260646D01*
X172727402Y-47260643D01*
X172433259Y-47064103D01*
X172433254Y-47064100D01*
X172433247Y-47064096D01*
X172121276Y-46897343D01*
X172121271Y-46897341D01*
X171794436Y-46761961D01*
X171455895Y-46659267D01*
X171455884Y-46659264D01*
X171108946Y-46590255D01*
X171108929Y-46590252D01*
X170842700Y-46564031D01*
X170756881Y-46555579D01*
X170403119Y-46555579D01*
X170323748Y-46563396D01*
X170051070Y-46590252D01*
X170051053Y-46590255D01*
X169704115Y-46659264D01*
X169704104Y-46659267D01*
X169365563Y-46761961D01*
X169038728Y-46897341D01*
X169038723Y-46897343D01*
X168726752Y-47064096D01*
X168726734Y-47064107D01*
X168432606Y-47260637D01*
X168432592Y-47260647D01*
X168159130Y-47485071D01*
X167908992Y-47735209D01*
X167684568Y-48008671D01*
X167684558Y-48008685D01*
X167488028Y-48302813D01*
X167488017Y-48302831D01*
X167321264Y-48614802D01*
X167321262Y-48614807D01*
X167185882Y-48941642D01*
X167083188Y-49280183D01*
X167083185Y-49280194D01*
X167014176Y-49627132D01*
X167014173Y-49627149D01*
X166987317Y-49899827D01*
X166979500Y-49979198D01*
X159530500Y-49979198D01*
X159530500Y-49969700D01*
X159491509Y-49623649D01*
X159414018Y-49284139D01*
X159410510Y-49274115D01*
X159337666Y-49065937D01*
X159299002Y-48955441D01*
X159147906Y-48641687D01*
X158962630Y-48346823D01*
X158962628Y-48346820D01*
X158962627Y-48346818D01*
X158745512Y-48074563D01*
X158499256Y-47828307D01*
X158227001Y-47611192D01*
X158226999Y-47611191D01*
X157932130Y-47425912D01*
X157618382Y-47274819D01*
X157289692Y-47159805D01*
X157289684Y-47159802D01*
X157032552Y-47101114D01*
X156950171Y-47082311D01*
X156950167Y-47082310D01*
X156950158Y-47082309D01*
X156604124Y-47043320D01*
X156604120Y-47043320D01*
X156255880Y-47043320D01*
X156255875Y-47043320D01*
X155909841Y-47082309D01*
X155909829Y-47082311D01*
X155570315Y-47159802D01*
X155570307Y-47159805D01*
X155241617Y-47274819D01*
X154927869Y-47425912D01*
X154633000Y-47611191D01*
X154632998Y-47611192D01*
X154360743Y-47828307D01*
X154114487Y-48074563D01*
X153897372Y-48346818D01*
X153897371Y-48346820D01*
X153712092Y-48641689D01*
X153560999Y-48955437D01*
X153445985Y-49284127D01*
X153445982Y-49284135D01*
X153368491Y-49623649D01*
X153368489Y-49623661D01*
X153329500Y-49969695D01*
X145570502Y-49969695D01*
X145570502Y-45887895D01*
X146058534Y-45887895D01*
X146058534Y-46139818D01*
X146097944Y-46388642D01*
X146175794Y-46628240D01*
X146290166Y-46852705D01*
X146438235Y-47056506D01*
X146438239Y-47056511D01*
X146616379Y-47234651D01*
X146616384Y-47234655D01*
X146687504Y-47286326D01*
X146820189Y-47382727D01*
X146963218Y-47455604D01*
X147044650Y-47497096D01*
X147044652Y-47497096D01*
X147044655Y-47497098D01*
X147284249Y-47574947D01*
X147533072Y-47614357D01*
X147533073Y-47614357D01*
X147784995Y-47614357D01*
X147784996Y-47614357D01*
X148033819Y-47574947D01*
X148273413Y-47497098D01*
X148497879Y-47382727D01*
X148701690Y-47234650D01*
X148879827Y-47056513D01*
X149027904Y-46852702D01*
X149142275Y-46628236D01*
X149220124Y-46388642D01*
X149259534Y-46139819D01*
X149259534Y-45887895D01*
X149220124Y-45639072D01*
X149142275Y-45399478D01*
X149142273Y-45399475D01*
X149142273Y-45399473D01*
X149100781Y-45318041D01*
X149027904Y-45175012D01*
X148887097Y-44981207D01*
X148879832Y-44971207D01*
X148879828Y-44971202D01*
X148701688Y-44793062D01*
X148701683Y-44793058D01*
X148497882Y-44644989D01*
X148497881Y-44644988D01*
X148497879Y-44644987D01*
X148427781Y-44609270D01*
X148273417Y-44530617D01*
X148033819Y-44452767D01*
X147784996Y-44413357D01*
X147533072Y-44413357D01*
X147469935Y-44423357D01*
X147284248Y-44452767D01*
X147044650Y-44530617D01*
X146820185Y-44644989D01*
X146616384Y-44793058D01*
X146616379Y-44793062D01*
X146438239Y-44971202D01*
X146438235Y-44971207D01*
X146290166Y-45175008D01*
X146175794Y-45399473D01*
X146097944Y-45639071D01*
X146058534Y-45887895D01*
X145570502Y-45887895D01*
X145570502Y-42557967D01*
X145536394Y-42430673D01*
X145470502Y-42316545D01*
X145377316Y-42223359D01*
X145320252Y-42190413D01*
X145263189Y-42157467D01*
X145199541Y-42140413D01*
X145135894Y-42123359D01*
X74635894Y-42123359D01*
X74504110Y-42123359D01*
X74376814Y-42157467D01*
X74262688Y-42223359D01*
X74262685Y-42223361D01*
X74169504Y-42316542D01*
X74169502Y-42316545D01*
X74103610Y-42430671D01*
X74069502Y-42557967D01*
X57269753Y-42557967D01*
X57269753Y-38107895D01*
X67965887Y-38107895D01*
X67965887Y-38359818D01*
X68005297Y-38608642D01*
X68083147Y-38848240D01*
X68161800Y-39002604D01*
X68192423Y-39062705D01*
X68197519Y-39072705D01*
X68345588Y-39276506D01*
X68345592Y-39276511D01*
X68523732Y-39454651D01*
X68523737Y-39454655D01*
X68700010Y-39582724D01*
X68727542Y-39602727D01*
X68870571Y-39675604D01*
X68952003Y-39717096D01*
X68952005Y-39717096D01*
X68952008Y-39717098D01*
X69191602Y-39794947D01*
X69440425Y-39834357D01*
X69440426Y-39834357D01*
X69692348Y-39834357D01*
X69692349Y-39834357D01*
X69941172Y-39794947D01*
X70180766Y-39717098D01*
X70405232Y-39602727D01*
X70609043Y-39454650D01*
X70787180Y-39276513D01*
X70935257Y-39072702D01*
X71049628Y-38848236D01*
X71127477Y-38608642D01*
X71166887Y-38359819D01*
X71166887Y-38107895D01*
X71163719Y-38087895D01*
X149168753Y-38087895D01*
X149168753Y-38339818D01*
X149208163Y-38588642D01*
X149286013Y-38828240D01*
X149400385Y-39052705D01*
X149548454Y-39256506D01*
X149548458Y-39256511D01*
X149726598Y-39434651D01*
X149726603Y-39434655D01*
X149904370Y-39563809D01*
X149930408Y-39582727D01*
X150073437Y-39655604D01*
X150154869Y-39697096D01*
X150154871Y-39697096D01*
X150154874Y-39697098D01*
X150394468Y-39774947D01*
X150643291Y-39814357D01*
X150643292Y-39814357D01*
X150895214Y-39814357D01*
X150895215Y-39814357D01*
X151144038Y-39774947D01*
X151383632Y-39697098D01*
X151608098Y-39582727D01*
X151811909Y-39434650D01*
X151990046Y-39256513D01*
X152138123Y-39052702D01*
X152252494Y-38828236D01*
X152330343Y-38588642D01*
X152369753Y-38339819D01*
X152369753Y-38097895D01*
X230980833Y-38097895D01*
X230980833Y-38349818D01*
X231020243Y-38598642D01*
X231098093Y-38838240D01*
X231176746Y-38992604D01*
X231207369Y-39052705D01*
X231212465Y-39062705D01*
X231360534Y-39266506D01*
X231360538Y-39266511D01*
X231538678Y-39444651D01*
X231538683Y-39444655D01*
X231716450Y-39573809D01*
X231742488Y-39592727D01*
X231885517Y-39665604D01*
X231966949Y-39707096D01*
X231966951Y-39707096D01*
X231966954Y-39707098D01*
X232206548Y-39784947D01*
X232455371Y-39824357D01*
X232455372Y-39824357D01*
X232707294Y-39824357D01*
X232707295Y-39824357D01*
X232956118Y-39784947D01*
X233195712Y-39707098D01*
X233420178Y-39592727D01*
X233623989Y-39444650D01*
X233802126Y-39266513D01*
X233950203Y-39062702D01*
X234064574Y-38838236D01*
X234142423Y-38598642D01*
X234181833Y-38349819D01*
X234181833Y-38097895D01*
X234142423Y-37849072D01*
X234064574Y-37609478D01*
X234064572Y-37609475D01*
X234064572Y-37609473D01*
X234023080Y-37528041D01*
X233950203Y-37385012D01*
X233809396Y-37191207D01*
X233802131Y-37181207D01*
X233802127Y-37181202D01*
X233623987Y-37003062D01*
X233623982Y-37003058D01*
X233420181Y-36854989D01*
X233420180Y-36854988D01*
X233420178Y-36854987D01*
X233350080Y-36819270D01*
X233195716Y-36740617D01*
X232956118Y-36662767D01*
X232892981Y-36652767D01*
X232707295Y-36623357D01*
X232455371Y-36623357D01*
X232392234Y-36633357D01*
X232206547Y-36662767D01*
X231966949Y-36740617D01*
X231742484Y-36854989D01*
X231538683Y-37003058D01*
X231538678Y-37003062D01*
X231360538Y-37181202D01*
X231360534Y-37181207D01*
X231212465Y-37385008D01*
X231098093Y-37609473D01*
X231020243Y-37849071D01*
X230980833Y-38097895D01*
X152369753Y-38097895D01*
X152369753Y-38087895D01*
X152330343Y-37839072D01*
X152252494Y-37599478D01*
X152252492Y-37599475D01*
X152252492Y-37599473D01*
X152148311Y-37395008D01*
X152138123Y-37375012D01*
X152119205Y-37348974D01*
X151990051Y-37171207D01*
X151990047Y-37171202D01*
X151811907Y-36993062D01*
X151811902Y-36993058D01*
X151608101Y-36844989D01*
X151608100Y-36844988D01*
X151608098Y-36844987D01*
X151538000Y-36809270D01*
X151383636Y-36730617D01*
X151144038Y-36652767D01*
X151021489Y-36633357D01*
X150895215Y-36613357D01*
X150643291Y-36613357D01*
X150580154Y-36623357D01*
X150394467Y-36652767D01*
X150154869Y-36730617D01*
X149930404Y-36844989D01*
X149726603Y-36993058D01*
X149726598Y-36993062D01*
X149548458Y-37171202D01*
X149548454Y-37171207D01*
X149400385Y-37375008D01*
X149286013Y-37599473D01*
X149208163Y-37839071D01*
X149168753Y-38087895D01*
X71163719Y-38087895D01*
X71144282Y-37965176D01*
X71127477Y-37859071D01*
X71069290Y-37679991D01*
X71049628Y-37619478D01*
X71049626Y-37619475D01*
X71049626Y-37619473D01*
X71008134Y-37538041D01*
X70935257Y-37395012D01*
X70916339Y-37368974D01*
X70787185Y-37191207D01*
X70787181Y-37191202D01*
X70609041Y-37013062D01*
X70609036Y-37013058D01*
X70405235Y-36864989D01*
X70405234Y-36864988D01*
X70405232Y-36864987D01*
X70335134Y-36829270D01*
X70180770Y-36750617D01*
X69941172Y-36672767D01*
X69878035Y-36662767D01*
X69692349Y-36633357D01*
X69440425Y-36633357D01*
X69317876Y-36652767D01*
X69191601Y-36672767D01*
X68952003Y-36750617D01*
X68727538Y-36864989D01*
X68523737Y-37013058D01*
X68523732Y-37013062D01*
X68345592Y-37191202D01*
X68345588Y-37191207D01*
X68197519Y-37395008D01*
X68083147Y-37619473D01*
X68005297Y-37859071D01*
X67965887Y-38107895D01*
X57269753Y-38107895D01*
X57269753Y-28820395D01*
X58168753Y-28820395D01*
X58168753Y-29072318D01*
X58208163Y-29321142D01*
X58286013Y-29560740D01*
X58400385Y-29785205D01*
X58548454Y-29989006D01*
X58548458Y-29989011D01*
X58726598Y-30167151D01*
X58726603Y-30167155D01*
X58904370Y-30296309D01*
X58930408Y-30315227D01*
X59073437Y-30388104D01*
X59154869Y-30429596D01*
X59154871Y-30429596D01*
X59154874Y-30429598D01*
X59394468Y-30507447D01*
X59643291Y-30546857D01*
X59643292Y-30546857D01*
X59895214Y-30546857D01*
X59895215Y-30546857D01*
X60144038Y-30507447D01*
X60383632Y-30429598D01*
X60608098Y-30315227D01*
X60811909Y-30167150D01*
X60990046Y-29989013D01*
X61138123Y-29785202D01*
X61252494Y-29560736D01*
X61330343Y-29321142D01*
X61369753Y-29072319D01*
X61369753Y-28820395D01*
X149168753Y-28820395D01*
X149168753Y-29072318D01*
X149208163Y-29321142D01*
X149286013Y-29560740D01*
X149400385Y-29785205D01*
X149548454Y-29989006D01*
X149548458Y-29989011D01*
X149726598Y-30167151D01*
X149726603Y-30167155D01*
X149904370Y-30296309D01*
X149930408Y-30315227D01*
X150073437Y-30388104D01*
X150154869Y-30429596D01*
X150154871Y-30429596D01*
X150154874Y-30429598D01*
X150394468Y-30507447D01*
X150643291Y-30546857D01*
X150643292Y-30546857D01*
X150895214Y-30546857D01*
X150895215Y-30546857D01*
X151144038Y-30507447D01*
X151383632Y-30429598D01*
X151608098Y-30315227D01*
X151811909Y-30167150D01*
X151990046Y-29989013D01*
X152138123Y-29785202D01*
X152252494Y-29560736D01*
X152330343Y-29321142D01*
X152369753Y-29072319D01*
X152369753Y-28820395D01*
X240168753Y-28820395D01*
X240168753Y-29072318D01*
X240208163Y-29321142D01*
X240286013Y-29560740D01*
X240400385Y-29785205D01*
X240548454Y-29989006D01*
X240548458Y-29989011D01*
X240726598Y-30167151D01*
X240726603Y-30167155D01*
X240904370Y-30296309D01*
X240930408Y-30315227D01*
X241073437Y-30388104D01*
X241154869Y-30429596D01*
X241154871Y-30429596D01*
X241154874Y-30429598D01*
X241394468Y-30507447D01*
X241643291Y-30546857D01*
X241643292Y-30546857D01*
X241895214Y-30546857D01*
X241895215Y-30546857D01*
X242144038Y-30507447D01*
X242383632Y-30429598D01*
X242608098Y-30315227D01*
X242811909Y-30167150D01*
X242990046Y-29989013D01*
X243138123Y-29785202D01*
X243252494Y-29560736D01*
X243330343Y-29321142D01*
X243369753Y-29072319D01*
X243369753Y-28820395D01*
X243330343Y-28571572D01*
X243252494Y-28331978D01*
X243252492Y-28331975D01*
X243252492Y-28331973D01*
X243211000Y-28250541D01*
X243138123Y-28107512D01*
X243119205Y-28081474D01*
X242990051Y-27903707D01*
X242990047Y-27903702D01*
X242811907Y-27725562D01*
X242811902Y-27725558D01*
X242608101Y-27577489D01*
X242608100Y-27577488D01*
X242608098Y-27577487D01*
X242538000Y-27541770D01*
X242383636Y-27463117D01*
X242144038Y-27385267D01*
X241895215Y-27345857D01*
X241643291Y-27345857D01*
X241518879Y-27365562D01*
X241394467Y-27385267D01*
X241154869Y-27463117D01*
X240930404Y-27577489D01*
X240726603Y-27725558D01*
X240726598Y-27725562D01*
X240548458Y-27903702D01*
X240548454Y-27903707D01*
X240400385Y-28107508D01*
X240286013Y-28331973D01*
X240208163Y-28571571D01*
X240168753Y-28820395D01*
X152369753Y-28820395D01*
X152330343Y-28571572D01*
X152252494Y-28331978D01*
X152252492Y-28331975D01*
X152252492Y-28331973D01*
X152211000Y-28250541D01*
X152138123Y-28107512D01*
X152119205Y-28081474D01*
X151990051Y-27903707D01*
X151990047Y-27903702D01*
X151811907Y-27725562D01*
X151811902Y-27725558D01*
X151608101Y-27577489D01*
X151608100Y-27577488D01*
X151608098Y-27577487D01*
X151538000Y-27541770D01*
X151383636Y-27463117D01*
X151144038Y-27385267D01*
X150895215Y-27345857D01*
X150643291Y-27345857D01*
X150518879Y-27365562D01*
X150394467Y-27385267D01*
X150154869Y-27463117D01*
X149930404Y-27577489D01*
X149726603Y-27725558D01*
X149726598Y-27725562D01*
X149548458Y-27903702D01*
X149548454Y-27903707D01*
X149400385Y-28107508D01*
X149286013Y-28331973D01*
X149208163Y-28571571D01*
X149168753Y-28820395D01*
X61369753Y-28820395D01*
X61330343Y-28571572D01*
X61252494Y-28331978D01*
X61252492Y-28331975D01*
X61252492Y-28331973D01*
X61211000Y-28250541D01*
X61138123Y-28107512D01*
X61119205Y-28081474D01*
X60990051Y-27903707D01*
X60990047Y-27903702D01*
X60811907Y-27725562D01*
X60811902Y-27725558D01*
X60608101Y-27577489D01*
X60608100Y-27577488D01*
X60608098Y-27577487D01*
X60538000Y-27541770D01*
X60383636Y-27463117D01*
X60144038Y-27385267D01*
X59895215Y-27345857D01*
X59643291Y-27345857D01*
X59518879Y-27365562D01*
X59394467Y-27385267D01*
X59154869Y-27463117D01*
X58930404Y-27577489D01*
X58726603Y-27725558D01*
X58726598Y-27725562D01*
X58548458Y-27903702D01*
X58548454Y-27903707D01*
X58400385Y-28107508D01*
X58286013Y-28331973D01*
X58208163Y-28571571D01*
X58168753Y-28820395D01*
X57269753Y-28820395D01*
X57269753Y-26570857D01*
X57289438Y-26503818D01*
X57342242Y-26458063D01*
X57393753Y-26446857D01*
X244144753Y-26446857D01*
X244211792Y-26466542D01*
G37*
%TD.AperFunction*%
M02*
