%TF.GenerationSoftware,KiCad,Pcbnew,9.0.3*%
%TF.CreationDate,2026-06-08T12:34:54+10:00*%
%TF.ProjectId,Kicad - Acid Front Panel,4b696361-6420-42d2-9041-636964204672,rev?*%
%TF.SameCoordinates,Original*%
%TF.FileFunction,Profile,NP*%
%FSLAX46Y46*%
G04 Gerber Fmt 4.6, Leading zero omitted, Abs format (unit mm)*
G04 Created by KiCad (PCBNEW 9.0.3) date 2026-06-08 12:34:54*
%MOMM*%
%LPD*%
G01*
G04 APERTURE LIST*
%TA.AperFunction,Profile*%
%ADD10C,0.200000*%
%TD*%
G04 APERTURE END LIST*
D10*
X241089253Y-92086357D02*
G75*
G02*
X238889253Y-92086357I-1100000J0D01*
G01*
X238889253Y-92086357D02*
G75*
G02*
X241089253Y-92086357I1100000J0D01*
G01*
X241089253Y-28586357D02*
G75*
G02*
X238889253Y-28586357I-1100000J0D01*
G01*
X238889253Y-28586357D02*
G75*
G02*
X241089253Y-28586357I1100000J0D01*
G01*
X220580000Y-78303563D02*
G75*
G02*
X213080000Y-78303563I-3750000J0D01*
G01*
X213080000Y-78303563D02*
G75*
G02*
X220580000Y-78303563I3750000J0D01*
G01*
X191620000Y-78294705D02*
G75*
G02*
X184120000Y-78294705I-3750000J0D01*
G01*
X184120000Y-78294705D02*
G75*
G02*
X191620000Y-78294705I3750000J0D01*
G01*
X162670000Y-78284759D02*
G75*
G02*
X155170000Y-78284759I-3750000J0D01*
G01*
X155170000Y-78284759D02*
G75*
G02*
X162670000Y-78284759I3750000J0D01*
G01*
X227055591Y-103697774D02*
X227055591Y-143197774D01*
X71555591Y-103697774D02*
X227055591Y-103697774D01*
X71555591Y-143197774D02*
X71555591Y-103697774D01*
X227055591Y-143197774D02*
X71555591Y-143197774D01*
X143290002Y-42263859D02*
X143290002Y-93263859D01*
X72790002Y-42263859D02*
X143290002Y-42263859D01*
X72790002Y-93263859D02*
X72790002Y-42263859D01*
X143290002Y-93263859D02*
X72790002Y-93263859D01*
X59089253Y-92086357D02*
G75*
G02*
X56889253Y-92086357I-1100000J0D01*
G01*
X56889253Y-92086357D02*
G75*
G02*
X59089253Y-92086357I1100000J0D01*
G01*
X241089253Y-155586357D02*
G75*
G02*
X238889253Y-155586357I-1100000J0D01*
G01*
X238889253Y-155586357D02*
G75*
G02*
X241089253Y-155586357I1100000J0D01*
G01*
X59089253Y-155586357D02*
G75*
G02*
X56889253Y-155586357I-1100000J0D01*
G01*
X56889253Y-155586357D02*
G75*
G02*
X59089253Y-155586357I1100000J0D01*
G01*
X150135011Y-155586357D02*
G75*
G02*
X147935011Y-155586357I-1100000J0D01*
G01*
X147935011Y-155586357D02*
G75*
G02*
X150135011Y-155586357I1100000J0D01*
G01*
X150089253Y-28586357D02*
G75*
G02*
X147889253Y-28586357I-1100000J0D01*
G01*
X147889253Y-28586357D02*
G75*
G02*
X150089253Y-28586357I1100000J0D01*
G01*
X59089253Y-28586357D02*
G75*
G02*
X56889253Y-28586357I-1100000J0D01*
G01*
X56889253Y-28586357D02*
G75*
G02*
X59089253Y-28586357I1100000J0D01*
G01*
X242989253Y-25586357D02*
X242989253Y-158586357D01*
X54989253Y-25586357D02*
X242989253Y-25586357D01*
X54989253Y-158586357D02*
X54989253Y-25586357D01*
X242989253Y-158586357D02*
X54989253Y-158586357D01*
X71283798Y-45663857D02*
G75*
G02*
X69083798Y-45663857I-1100000J0D01*
G01*
X69083798Y-45663857D02*
G75*
G02*
X71283798Y-45663857I1100000J0D01*
G01*
X71280000Y-89861470D02*
G75*
G02*
X69080000Y-89861470I-1100000J0D01*
G01*
X69080000Y-89861470D02*
G75*
G02*
X71280000Y-89861470I1100000J0D01*
G01*
X146979615Y-89863857D02*
G75*
G02*
X144779615Y-89863857I-1100000J0D01*
G01*
X144779615Y-89863857D02*
G75*
G02*
X146979615Y-89863857I1100000J0D01*
G01*
X146979034Y-45653857D02*
G75*
G02*
X144779034Y-45653857I-1100000J0D01*
G01*
X144779034Y-45653857D02*
G75*
G02*
X146979034Y-45653857I1100000J0D01*
G01*
X231916827Y-146303857D02*
G75*
G02*
X229716827Y-146303857I-1100000J0D01*
G01*
X229716827Y-146303857D02*
G75*
G02*
X231916827Y-146303857I1100000J0D01*
G01*
X150135011Y-146303857D02*
G75*
G02*
X147935011Y-146303857I-1100000J0D01*
G01*
X147935011Y-146303857D02*
G75*
G02*
X150135011Y-146303857I1100000J0D01*
G01*
X68923171Y-146303857D02*
G75*
G02*
X66723171Y-146303857I-1100000J0D01*
G01*
X66723171Y-146303857D02*
G75*
G02*
X68923171Y-146303857I1100000J0D01*
G01*
X68886387Y-37873857D02*
G75*
G02*
X66686387Y-37873857I-1100000J0D01*
G01*
X66686387Y-37873857D02*
G75*
G02*
X68886387Y-37873857I1100000J0D01*
G01*
X150089253Y-37853857D02*
G75*
G02*
X147889253Y-37853857I-1100000J0D01*
G01*
X147889253Y-37853857D02*
G75*
G02*
X150089253Y-37853857I1100000J0D01*
G01*
X231901333Y-37863857D02*
G75*
G02*
X229701333Y-37863857I-1100000J0D01*
G01*
X229701333Y-37863857D02*
G75*
G02*
X231901333Y-37863857I1100000J0D01*
G01*
X223662470Y-49783857D02*
G75*
G02*
X218462470Y-49783857I-2600000J0D01*
G01*
X218462470Y-49783857D02*
G75*
G02*
X223662470Y-49783857I2600000J0D01*
G01*
X210040000Y-49790000D02*
G75*
G02*
X203840000Y-49790000I-3100000J0D01*
G01*
X203840000Y-49790000D02*
G75*
G02*
X210040000Y-49790000I3100000J0D01*
G01*
X191630000Y-49800661D02*
G75*
G02*
X184130000Y-49800661I-3750000J0D01*
G01*
X184130000Y-49800661D02*
G75*
G02*
X191630000Y-49800661I3750000J0D01*
G01*
X171900000Y-49796079D02*
G75*
G02*
X165700000Y-49796079I-3100000J0D01*
G01*
X165700000Y-49796079D02*
G75*
G02*
X171900000Y-49796079I3100000J0D01*
G01*
X157250000Y-49783820D02*
G75*
G02*
X152050000Y-49783820I-2600000J0D01*
G01*
X152050000Y-49783820D02*
G75*
G02*
X157250000Y-49783820I2600000J0D01*
G01*
M02*
